<mxfile host="app.diagrams.net" agent="Mozilla/5.0 (Windows NT 10.0; Win64; x64) AppleWebKit/537.36 (KHTML, like Gecko) Chrome/129.0.0.0 Safari/537.36" version="24.7.17">
  <diagram name="Chương 2 _ phần 1 _ Biến ngẫu nhiên " id="Fjy9n9djA9EtdKymUaAO">
    <mxGraphModel dx="993" dy="974" grid="1" gridSize="10" guides="1" tooltips="1" connect="1" arrows="1" fold="1" page="0" pageScale="1" pageWidth="827" pageHeight="1169" math="0" shadow="0">
      <root>
        <mxCell id="0" />
        <mxCell id="1" parent="0" />
        <mxCell id="vPh5yiBVEbnupIEMpU4R-3" style="edgeStyle=orthogonalEdgeStyle;rounded=0;orthogonalLoop=1;jettySize=auto;html=1;exitX=0;exitY=0;exitDx=0;exitDy=0;entryX=0.5;entryY=1;entryDx=0;entryDy=0;curved=1;" edge="1" parent="1" source="vPh5yiBVEbnupIEMpU4R-1" target="vPh5yiBVEbnupIEMpU4R-2">
          <mxGeometry relative="1" as="geometry" />
        </mxCell>
        <mxCell id="vPh5yiBVEbnupIEMpU4R-129" style="edgeStyle=orthogonalEdgeStyle;rounded=0;orthogonalLoop=1;jettySize=auto;html=1;exitX=0.5;exitY=1;exitDx=0;exitDy=0;entryX=0.5;entryY=0;entryDx=0;entryDy=0;curved=1;" edge="1" parent="1" source="vPh5yiBVEbnupIEMpU4R-1" target="vPh5yiBVEbnupIEMpU4R-128">
          <mxGeometry relative="1" as="geometry" />
        </mxCell>
        <mxCell id="vPh5yiBVEbnupIEMpU4R-1" value="&lt;b&gt;&lt;font color=&quot;#ff99ff&quot;&gt;BIẾN NGẪU NHIÊN&lt;/font&gt;&lt;/b&gt;" style="ellipse;whiteSpace=wrap;html=1;" vertex="1" parent="1">
          <mxGeometry x="384" y="273" width="139" height="55" as="geometry" />
        </mxCell>
        <mxCell id="vPh5yiBVEbnupIEMpU4R-5" style="rounded=0;orthogonalLoop=1;jettySize=auto;html=1;exitX=0;exitY=0.5;exitDx=0;exitDy=0;fontColor=#FF9933;" edge="1" parent="1" source="vPh5yiBVEbnupIEMpU4R-2" target="vPh5yiBVEbnupIEMpU4R-4">
          <mxGeometry relative="1" as="geometry" />
        </mxCell>
        <mxCell id="vPh5yiBVEbnupIEMpU4R-7" style="rounded=0;orthogonalLoop=1;jettySize=auto;html=1;exitX=1;exitY=0.25;exitDx=0;exitDy=0;fontColor=#FF9933;" edge="1" parent="1" source="vPh5yiBVEbnupIEMpU4R-2" target="vPh5yiBVEbnupIEMpU4R-6">
          <mxGeometry relative="1" as="geometry" />
        </mxCell>
        <mxCell id="vPh5yiBVEbnupIEMpU4R-2" value="BNN Rời rạc" style="rounded=1;whiteSpace=wrap;html=1;fillColor=#ffe6cc;strokeColor=#d79b00;fontColor=#FF9933;" vertex="1" parent="1">
          <mxGeometry x="281" y="201" width="94" height="37" as="geometry" />
        </mxCell>
        <mxCell id="vPh5yiBVEbnupIEMpU4R-11" style="rounded=0;orthogonalLoop=1;jettySize=auto;html=1;exitX=0;exitY=0;exitDx=0;exitDy=0;fontColor=#FF9933;" edge="1" parent="1" source="vPh5yiBVEbnupIEMpU4R-4" target="vPh5yiBVEbnupIEMpU4R-8">
          <mxGeometry relative="1" as="geometry" />
        </mxCell>
        <mxCell id="vPh5yiBVEbnupIEMpU4R-12" style="rounded=0;orthogonalLoop=1;jettySize=auto;html=1;exitX=0.75;exitY=0;exitDx=0;exitDy=0;fontColor=#FF9933;" edge="1" parent="1" source="vPh5yiBVEbnupIEMpU4R-4" target="vPh5yiBVEbnupIEMpU4R-10">
          <mxGeometry relative="1" as="geometry" />
        </mxCell>
        <mxCell id="vPh5yiBVEbnupIEMpU4R-4" value="Tính chất" style="text;html=1;align=center;verticalAlign=middle;whiteSpace=wrap;rounded=0;fontColor=#FF9933;" vertex="1" parent="1">
          <mxGeometry x="197" y="133" width="60" height="30" as="geometry" />
        </mxCell>
        <mxCell id="vPh5yiBVEbnupIEMpU4R-15" style="rounded=0;orthogonalLoop=1;jettySize=auto;html=1;exitX=0.5;exitY=0;exitDx=0;exitDy=0;entryX=0.5;entryY=1;entryDx=0;entryDy=0;fontColor=#FF9933;" edge="1" parent="1" source="vPh5yiBVEbnupIEMpU4R-6" target="vPh5yiBVEbnupIEMpU4R-13">
          <mxGeometry relative="1" as="geometry" />
        </mxCell>
        <mxCell id="vPh5yiBVEbnupIEMpU4R-16" style="rounded=0;orthogonalLoop=1;jettySize=auto;html=1;exitX=1;exitY=0.5;exitDx=0;exitDy=0;entryX=0.5;entryY=1;entryDx=0;entryDy=0;fontColor=#FF9933;" edge="1" parent="1" source="vPh5yiBVEbnupIEMpU4R-6" target="vPh5yiBVEbnupIEMpU4R-14">
          <mxGeometry relative="1" as="geometry" />
        </mxCell>
        <mxCell id="vPh5yiBVEbnupIEMpU4R-6" value="Quy luật phân phối" style="text;html=1;align=center;verticalAlign=middle;whiteSpace=wrap;rounded=0;fontColor=#FF9933;" vertex="1" parent="1">
          <mxGeometry x="359" y="119" width="76" height="30" as="geometry" />
        </mxCell>
        <mxCell id="vPh5yiBVEbnupIEMpU4R-8" value="Hữu hạn" style="text;html=1;align=center;verticalAlign=middle;whiteSpace=wrap;rounded=0;fontColor=#FF9933;" vertex="1" parent="1">
          <mxGeometry x="137" y="68" width="60" height="30" as="geometry" />
        </mxCell>
        <mxCell id="vPh5yiBVEbnupIEMpU4R-10" value="Vô hạn đếm được" style="text;html=1;align=center;verticalAlign=middle;whiteSpace=wrap;rounded=0;fontColor=#FF9933;" vertex="1" parent="1">
          <mxGeometry x="233" y="51" width="60" height="30" as="geometry" />
        </mxCell>
        <mxCell id="vPh5yiBVEbnupIEMpU4R-13" value="Bảng phân phối xác suất" style="text;html=1;align=center;verticalAlign=middle;whiteSpace=wrap;rounded=0;fontColor=#FF9933;" vertex="1" parent="1">
          <mxGeometry x="336" y="29" width="108" height="30" as="geometry" />
        </mxCell>
        <mxCell id="vPh5yiBVEbnupIEMpU4R-124" style="rounded=0;orthogonalLoop=1;jettySize=auto;html=1;exitX=0.5;exitY=0;exitDx=0;exitDy=0;entryX=0.5;entryY=1;entryDx=0;entryDy=0;fontColor=#FF9933;" edge="1" parent="1" source="vPh5yiBVEbnupIEMpU4R-14" target="vPh5yiBVEbnupIEMpU4R-123">
          <mxGeometry relative="1" as="geometry" />
        </mxCell>
        <mxCell id="vPh5yiBVEbnupIEMpU4R-14" value="Hàm phân phối xác suất" style="text;html=1;align=center;verticalAlign=middle;whiteSpace=wrap;rounded=0;fontColor=#FF9933;" vertex="1" parent="1">
          <mxGeometry x="483" y="22" width="93" height="30" as="geometry" />
        </mxCell>
        <mxCell id="vPh5yiBVEbnupIEMpU4R-17" style="edgeStyle=orthogonalEdgeStyle;rounded=0;orthogonalLoop=1;jettySize=auto;html=1;exitX=0.935;exitY=0.182;exitDx=0;exitDy=0;entryX=0.5;entryY=1;entryDx=0;entryDy=0;curved=1;exitPerimeter=0;" edge="1" target="vPh5yiBVEbnupIEMpU4R-18" parent="1" source="vPh5yiBVEbnupIEMpU4R-1">
          <mxGeometry relative="1" as="geometry">
            <mxPoint x="725" y="276" as="sourcePoint" />
          </mxGeometry>
        </mxCell>
        <mxCell id="vPh5yiBVEbnupIEMpU4R-18" value="BNN Liên tục" style="rounded=1;whiteSpace=wrap;html=1;fillColor=#e1d5e7;strokeColor=#9673a6;fontColor=#CC99FF;" vertex="1" parent="1">
          <mxGeometry x="610" y="201" width="94" height="37" as="geometry" />
        </mxCell>
        <mxCell id="vPh5yiBVEbnupIEMpU4R-19" style="rounded=0;orthogonalLoop=1;jettySize=auto;html=1;exitX=0.5;exitY=0;exitDx=0;exitDy=0;fontColor=#CC99FF;" edge="1" target="vPh5yiBVEbnupIEMpU4R-20" parent="1" source="vPh5yiBVEbnupIEMpU4R-18">
          <mxGeometry relative="1" as="geometry">
            <mxPoint x="653" y="191.5" as="sourcePoint" />
          </mxGeometry>
        </mxCell>
        <mxCell id="vPh5yiBVEbnupIEMpU4R-20" value="Tính chất&lt;div&gt;Láp đầy 1 khoảng trên trục số&lt;/div&gt;" style="text;html=1;align=center;verticalAlign=middle;whiteSpace=wrap;rounded=0;fontColor=#CC99FF;" vertex="1" parent="1">
          <mxGeometry x="572" y="92" width="121" height="51" as="geometry" />
        </mxCell>
        <mxCell id="vPh5yiBVEbnupIEMpU4R-21" style="rounded=0;orthogonalLoop=1;jettySize=auto;html=1;exitX=1;exitY=0.5;exitDx=0;exitDy=0;fontColor=#CC99FF;" edge="1" target="vPh5yiBVEbnupIEMpU4R-24" parent="1" source="vPh5yiBVEbnupIEMpU4R-18">
          <mxGeometry relative="1" as="geometry">
            <mxPoint x="760" y="233" as="sourcePoint" />
          </mxGeometry>
        </mxCell>
        <mxCell id="vPh5yiBVEbnupIEMpU4R-22" style="rounded=0;orthogonalLoop=1;jettySize=auto;html=1;exitX=0.5;exitY=0;exitDx=0;exitDy=0;entryX=0.5;entryY=1;entryDx=0;entryDy=0;fontColor=#CC99FF;" edge="1" source="vPh5yiBVEbnupIEMpU4R-24" target="vPh5yiBVEbnupIEMpU4R-25" parent="1">
          <mxGeometry relative="1" as="geometry" />
        </mxCell>
        <mxCell id="vPh5yiBVEbnupIEMpU4R-23" style="rounded=0;orthogonalLoop=1;jettySize=auto;html=1;exitX=0.25;exitY=0;exitDx=0;exitDy=0;entryX=0.5;entryY=1;entryDx=0;entryDy=0;fontColor=#CC99FF;" edge="1" source="vPh5yiBVEbnupIEMpU4R-24" target="vPh5yiBVEbnupIEMpU4R-26" parent="1">
          <mxGeometry relative="1" as="geometry" />
        </mxCell>
        <mxCell id="vPh5yiBVEbnupIEMpU4R-24" value="Quy luật phân phối" style="text;html=1;align=center;verticalAlign=middle;whiteSpace=wrap;rounded=0;fontColor=#CC99FF;" vertex="1" parent="1">
          <mxGeometry x="744" y="142" width="76" height="30" as="geometry" />
        </mxCell>
        <mxCell id="vPh5yiBVEbnupIEMpU4R-126" style="rounded=0;orthogonalLoop=1;jettySize=auto;html=1;exitX=0.5;exitY=0;exitDx=0;exitDy=0;fontColor=#CC99FF;" edge="1" parent="1" source="vPh5yiBVEbnupIEMpU4R-25" target="vPh5yiBVEbnupIEMpU4R-125">
          <mxGeometry relative="1" as="geometry" />
        </mxCell>
        <mxCell id="vPh5yiBVEbnupIEMpU4R-25" value="Hàm mật độ xác suất" style="text;html=1;align=center;verticalAlign=middle;whiteSpace=wrap;rounded=0;fontColor=#CC99FF;" vertex="1" parent="1">
          <mxGeometry x="798" y="47" width="108" height="30" as="geometry" />
        </mxCell>
        <mxCell id="vPh5yiBVEbnupIEMpU4R-120" style="rounded=0;orthogonalLoop=1;jettySize=auto;html=1;exitX=0.5;exitY=0;exitDx=0;exitDy=0;entryX=0.5;entryY=1;entryDx=0;entryDy=0;fontColor=#CC99FF;" edge="1" parent="1" source="vPh5yiBVEbnupIEMpU4R-26" target="vPh5yiBVEbnupIEMpU4R-119">
          <mxGeometry relative="1" as="geometry" />
        </mxCell>
        <mxCell id="vPh5yiBVEbnupIEMpU4R-26" value="Hàm phân phối xác suất" style="text;html=1;align=center;verticalAlign=middle;whiteSpace=wrap;rounded=0;fontColor=#CC99FF;" vertex="1" parent="1">
          <mxGeometry x="662" y="12" width="93" height="30" as="geometry" />
        </mxCell>
        <mxCell id="vPh5yiBVEbnupIEMpU4R-108" value="" style="endArrow=none;html=1;rounded=0;fontColor=#FF9933;" edge="1" parent="1">
          <mxGeometry width="50" height="50" relative="1" as="geometry">
            <mxPoint x="245" y="-90" as="sourcePoint" />
            <mxPoint x="478" y="-90" as="targetPoint" />
          </mxGeometry>
        </mxCell>
        <mxCell id="vPh5yiBVEbnupIEMpU4R-109" value="" style="endArrow=none;html=1;rounded=0;fontColor=#FF9933;" edge="1" parent="1">
          <mxGeometry width="50" height="50" relative="1" as="geometry">
            <mxPoint x="245" y="-130" as="sourcePoint" />
            <mxPoint x="478" y="-130" as="targetPoint" />
          </mxGeometry>
        </mxCell>
        <mxCell id="vPh5yiBVEbnupIEMpU4R-110" value="" style="endArrow=none;html=1;rounded=0;fontColor=#FF9933;" edge="1" parent="1">
          <mxGeometry width="50" height="50" relative="1" as="geometry">
            <mxPoint x="295" y="-130" as="sourcePoint" />
            <mxPoint x="295" y="-50" as="targetPoint" />
          </mxGeometry>
        </mxCell>
        <mxCell id="vPh5yiBVEbnupIEMpU4R-111" value="X" style="text;html=1;align=center;verticalAlign=middle;whiteSpace=wrap;rounded=0;fontColor=#FF9933;" vertex="1" parent="1">
          <mxGeometry x="242" y="-130" width="60" height="30" as="geometry" />
        </mxCell>
        <mxCell id="vPh5yiBVEbnupIEMpU4R-112" value="P(X=Xi)" style="text;html=1;align=center;verticalAlign=middle;whiteSpace=wrap;rounded=0;fontColor=#FF9933;" vertex="1" parent="1">
          <mxGeometry x="233" y="-80" width="60" height="30" as="geometry" />
        </mxCell>
        <mxCell id="vPh5yiBVEbnupIEMpU4R-113" value="X1&lt;span style=&quot;white-space: pre;&quot;&gt;&#x9;&lt;span style=&quot;white-space: pre;&quot;&gt;&#x9;&lt;/span&gt;&lt;/span&gt;X2&lt;span style=&quot;white-space: pre;&quot;&gt;&#x9;&lt;span style=&quot;white-space: pre;&quot;&gt;&#x9;&lt;/span&gt;&lt;/span&gt;...&lt;span style=&quot;white-space: pre;&quot;&gt;&#x9;&amp;nbsp;&lt;/span&gt;&amp;nbsp; Xn" style="text;html=1;align=center;verticalAlign=middle;whiteSpace=wrap;rounded=0;fontColor=#FF9933;" vertex="1" parent="1">
          <mxGeometry x="302" y="-130" width="166" height="30" as="geometry" />
        </mxCell>
        <mxCell id="vPh5yiBVEbnupIEMpU4R-114" value="P(X1)&lt;span style=&quot;white-space: pre;&quot;&gt;&#x9;&lt;/span&gt;P(X2)&lt;span style=&quot;white-space: pre;&quot;&gt;&#x9;&lt;/span&gt;...&lt;span style=&quot;white-space: pre;&quot;&gt;&#x9;&lt;/span&gt;P(Xn)" style="text;html=1;align=center;verticalAlign=middle;whiteSpace=wrap;rounded=0;fontColor=#FF9933;" vertex="1" parent="1">
          <mxGeometry x="293" y="-80" width="190" height="30" as="geometry" />
        </mxCell>
        <mxCell id="vPh5yiBVEbnupIEMpU4R-119" value="" style="shape=image;verticalLabelPosition=bottom;labelBackgroundColor=default;verticalAlign=top;aspect=fixed;imageAspect=0;image=data:image/png,iVBORw0KGgoAAAANSUhEUgAAAScAAABYCAYAAAC3WTHhAAAAAXNSR0IArs4c6QAAAARnQU1BAACxjwv8YQUAAAAJcEhZcwAADsMAAA7DAcdvqGQAABLHSURBVHhe7Z0HmFTVFcf/xoIFCTZUFLCEIhKNJWLvGomxBJUkiolBDagoSqx8iogmKkaJLYo1ihgrxJbEWGNBNLbE2KIiKnYEC1ZUcn+ed91xMrNMeW94u3t+3zff7s6bnXnz3rnnnnbPXWDuOM2V4zhOzvhW8tNxHCdXuHJyHCeXuHJyHCeXuHJyHCeXuHJyHCeXuHJyHCeXuHJyHCeXuHJyHCeXuHJyHCeXuHJyHCeXuHJyauaVWdKgy6TlD5dO+7v0+Zf2/AefSIddI60yQnrkJXvOcarFlZNTEx99Jl31T2n0ztLpe0gTHpReeFv6eI404s/S7++QVl1GWvHbyT84TpW4cnJqYvFFpCO2l1ZeSlq/m/TlXOmZN6RJj0lvfyBNP1W669dS547JPzhOlXhXAqdu3vtY2u9yaYl20hfBtfvd7sHV65AcdJwaccvJqZv2QSl1X16aOkM6aRdXTE46uHJy6gbL6fX3zGpynLRw5eTUxYefSiNvlFbuKL36rikpx0kDV05OzVAycMwkqcvS0v6bWXbuX9OTg45TJ66cnKpBKf38UqnDMGl6sJYGbSwtt6TUcwVp8gvSjNnS2XdJz76Z/IPj1IArJ6dqZn5oNU179Q1K6KemmBZbWNpzA+nBF6X+50trrij16JT8g+PUgJcSOI6TS9xychwnl7hychwnl7hychwnl7hychwnl7hychwnl7hychwnl7hychwnl7hychwnl7hyclKF6vFT/ib1GiktMFja8nTp+keTg45TBa6cnNR4833rKc5i4Liu7h//lT6ZY787TjW4cnJS4dPPbZODx6dLNw+VPj9Puu1Q7yHu1I6vrXNS4aFp0q5/kPZYTxqzm9RuoeSA49SIW05O3cwN09t9z1ujuQ1WccXkpEOrVU4MmKdfl4ZfK514S/0tZJ98zVqBXPmQdX90mnj/E+mBF+z3VZa1n/ODdz6UzrlL2nas9ZoiIE9gni2ssiBtGYvc+Yy0W5C1vz1p7nKasI9g5yPt2vDocZz075w2CExNOcUGZPFLV/LgImWx6SIZI4KyZIrmfCHtvm74ogskB2tklWXsfdiPbaszTIAQTse2gnrxHal7J2nJdsmTDeaBqdI24b7QKvjaIFuvj5EO3NIC81lsT5WFjEXW7hLet6d06NXhfcdJj7+SHEiB9bqFiXaUtN+m9ne3HO8tmJpyWnJRadxA6egdmv5+4KgwgMPFLXzMOU+69Bf2mrVXtouTJs+9Jf3sIpt1Jh4gnfUTaY0VgzKsU3DY9ohmanccFgZBL2nX8D3Ovbtpl9u2zJtBOTHJsJddu4WTJxsI1gs7DLOH3rBtpKUWt/u16/dsMHZOefBlJWORZZaQDt5Kuvtw+y7I2sTH0psMec+uS9vv311J+vZi9nveSNWtoxsiNwnW69p0AQpZKHzihqvZReG1HYISSwtS2UdcZ7uBXLGvtMnq6QlMBKU7aqcwawYlzM621zycntC0VKbNSH6ZD+D2nH+PdeBk0lihYFuq7daQHh4hfSfFjpyNkLEI3+Xcn0k/7GOu4z3PJQfqhNKON8L3gJ7LS4vkNEaYeszppWDeAwLRMWjoUqCQmB1QYGldGLbBPukvwd16NiiOflKfzsmBDCDgO2QLaYc1TUFNDi5FW+blmfYTa2XRBgv688GKue1pc0027548mRGNlLEIk+GRP7DdbY6aaFZbvcz+VJr6tr033kteSVU5EXeKF2+1Zc3MLwUxALaqpgd1Wvz9KemyB6Tdgu+/bZhBswbTePDmFns48w5p1kfJgTZIdG0R9vbh0UjIEuLWYQFkHTtptIxFiHf+chOzDscFK7HeIPlr71oPeLyXPNehpaqcYuN7WLMBs0qEbNHER005EhdiBm8EpM2JaxB7+Oe05Mk2BtYEQehGg0IkCH7pZPu7d5C3pYM1nhXzS8Yi/YKVvmUP6S//kZ59I3myRqYF7wYjoveKtjlFXklVOVHn8sSrppF7hJmsUTwTbhamPTePXT/mxZdzLcC41ujgXg6XzvvH/we2eU9KB8gqHnJV6dkKS4GYAwJ7yxPpp32d0tz4L2nhA6SNTzVrAv5wt7TYULtfZIEpCk2TamSMUpOxtweLZ4SVMkwqE8zG2v7ROXbOWETNwRbvGwVZw0q8vYJMMbLIpDngApNxPmPdk6TjbpBuCNcPSnk3WZx7raSqnNhQkYFKILx4v3w09Yan2A1OEy4c5jaKcZ2u0rLtkwNl4PXUvezzR1OkWHvUqDz6cvKCAALAcW4MrBpuYrnCwvW7mWnMGjJmpHqZ8KDd8HofvE8j+PwL6aPPkj8axM5rh/s4LiiMMLkQM+H6E/iOGeHXxphVmxbVyBiD+8iJFsAm/kopw8X3S+9+nLygAILrxOuY5PqECb05FgwjdcNV7ffbwrlQ01UOPpds4pAJdq1ePjlMyGGivWr/YOG/JF0SzgfWL7pGWZ17raSmnD4Lmjou9sRqWqJAI0+fZQoA64RdYdOE4N5/k8+tJPPwfHA7L7xXuumgIGynSTt+14Tu/uftOBed+pWtetpx6kGau/gMDD4XxRwDw22Jz4JyeuuD5I8Gw/Xmumcdb6pUxpDvc4IFhzJ7/8zggh3c9DzWejG8Z/Q0CHjPC2JP1JIROiFuVArkd9jVNtleto80sK+5oGQUGZc/6G2vQ6kXZtOzPvdaSE054ZNjcQBmYbsw+OMs3uVoafwU83GLLap6KYxzrbac/WwOLuqgTSyzs3zwtylrABQrxYSjgxJdaSnp2B9aKvfCvS0lXQ5mDrbjhv+Em1UvJAmiBVDPI81kQ16J1zvreFOlMjYrvO7LMJhP6W9yEeNSlM+UKtBk1QFUGvvBYlspKAK8kFJWOq4ci69x2w7bpnT2cpnE6kPJFZZdZH3utZCacooZgGITG3OSVeqA5m6fciCRehOUCpTLDhaCpbT3hjaT8OibmMpU4R4b/PFXg5U3csfKA54LLdj0uW/PTm8Jg9M8BOKjpf6doDAWzbD4s1IZY5BSYhBr9+JkvVawUorr+Qh/PJ0EthnglcguBa6xyBVrvxjibyyvQqZx54rrr7CKKCGA7kVjMetzr4XUlFPMABSb2Fyg1YPwYP6tFR7FF6xePggmN5+LmTqveFMpcDOpIubG4iKc/OPqrDsKT5nNgBkWN8fJHmb6mLXKKuYRqUXGUJ6PJctOiBURMyqk0BpD/ioBJYBrB8WuNJMiAXCU1ta9ShdAf1XflBTM8l2KzymSxbnXQirKCY0cA8qlii9RSAx4LKe8wXmh/QGLKla4O/mGQYjlxKTXJbjheeOt9y0mg/sUFUoh04OnwfGNV5e6lVAk1UKsKS6+LqVQICoVzmmNFZInS9Docy9HKsqpUCOXSk9iTdF4rFczF2R+gTvQKfGZuXEE9ucnLS1bVwjXcZHg5jaCJ4PbgYIqlRnOAy/NlCYHZYGFUrx+FCvn1mDl4B7hVaQRLyM58EgwEMopFOA45zSvxb6NPvdypKKc0NpPJT5qI4svCyGjgAVXDbz+2kekC+61v/GzCexXA+/hcSaDSYkYXNZwvak7AqzxwsxwllQjY7HbBuOhOGZDxphaLcCCIQBdCc3JGm4eCoN7UGrxNXVJsXUM1mZzi32zOPdaSEU5vRZmML4QX7rRrhstOpgtMDObq/0oBQspx9xqcSZmCWJOcW1gpXwSLK24iJJZpF7LoSVn6xgYC6YcUywFlvpzSTC8udR+WlQrYyiJGLPh/wrjrNQSnX1nU0C7uNaoOYgFvTLLfo/WfoTPLAflAJTPUIsHzV2zrM69FlJRTlHTYl6zoLeRMAPEVOY7s+1nJWAlHT3JFlWyHIEbwUV/OPku3NCz72q6UeXADYyfu1z78kHG1grp5zibs94wa0UBMd7ErJ11MByqlTEG+CtJzVuhZRFriTqE91u3q8kc5SyA90EZAAqgHLPD+0YlVOyWdUpcWywoXhfB2qJzxoszpH597LlYDsFn8Zl8diSrc6+FuodSoaZlYH6rwYMTawXfF2IGoRQMIDoIEIuhRmP/8bYubsD6ZrqSWoXbn7bZ8Z4wy+BbF89QxbwbzGUsR2jEQMkbM8P3j2n2tHtzlQPrASsmywLAQiqVsQgV82T4YMqLVn/ENaK4l9jQkM2D0gjHsACj5X3E9eY2NtcPa0ZQjCgZFENxXImeVSRzUNwspcLK4sHaQ7bmYhKO5RYoE8oj6LBAlr2wpCCrc6+FulQJJ0TB158ft7/fCBeGavBK/fI04MJGVxJ/uNw2RNEVGHhJUCInBDeuizR0SysyQ6nSC4iZ4rpwI5cdLg26PFz07ZvKBMqBMDBQcAtLpW/bEuUCsWkTiy+zDshGKpWxCFYNihNO/mtQCgeFSe5wUwgn7myWGK4istP35PD6IyzjGOWxHHw2/8P3Lu7uSZacvk9w/E3BxR5qj6uD1URhJXIcE1V7hzHQ8VBbsD3qR9+s6cvq3GuhrrejVQhfNJqaxGy+d6J007/t70aAT7x9b7uoTwWLiHRpKbCGmHGZ3X8/QPrd7t+8KaRfh29rwr5Zd+mSn1fWH4jvzPffokfjBmee+DQMVGZbBHpeVmYa8Fkx+UJmOO2i3lJUKmMR5GpEP9uJhgmPosgr95PO/qnJFwP8kK3tmvG4OMjayCIlUQyWP7IG24VzKQ6fsPaTz+TBZyDnv9lVumKQWVq427T4YRLm2PHh82hkV1zdncW510qr2BqKDNvBf5IunxJM2CFS/3WSAxlDBmTfYGHhCo4PQrDL2smBNsT9L0ibjrEe2hcFQUV4s4SVCHtdLN0d3O4bDrRK6EYwv2QsgjvHYl7cqOsG24Lz1k7KhljtcNFxuWKdzg5nmbUDxbU/DIhCiBn1D4MDTX9DcDGrLQeoFXo4oZjoiJl1F8a8Elv04iYXp52zINbz4Eb3rLJuriXKGBAmQc5YxcAkgMXSFsiNcmIR4nE7mtDhVo3bq8l0ZXZksS7m6DW/kjZKFusWgtn9i42kSUFwbg5uZdZxL4KK9BDC1I1N9Vs7DNjCrYRwNSiGxN3h+hemnbOiHje6pclYhJouWpfgYuGatZV9AXOjnIB1bqwL4uIXVpkTZCfO8NvgQ5fbgoc1bnQS2LqndNad3+zPlDZkQWiqTy9pzmnjEoLcWmGNGUkQsjjUzbDQlLa1jZjNcaNvfcoUCEuNahmkLUXGIsS3xt5hVt+p/S1+1FbIlXIiaEctBql+9kEDaieor4hp/+ZmZ+qsTtvd4h7Egpjp057dmLVH3yydfpsJ8rzOqTURXbiRN1oWZ5uxlsofupUN3CxhQqBjKe4N153NMWqhJchYBIV06DXW6O6MPdpe6GDBUTtpVPJ7LmA244YzsxH0OzPMUPw+fLvKZkrMdGJAX9dmhBmRNX0dgzDVo0QYHJRMDJ5gwckLBpogt6WiS9LJxHz4/lgvKKWxA7ItoaDIlTqaPS+yzNy5e1o/7XruZV5lLEI866L7pAODrC0evvP5wf2k+WFbmQQjucvWEcc4IVgmD00zH5/+M5iz1aYqmc3w1S8MN5lYAzVL9dxcKpKxGMjI8cgideo0hrzKWATFeUawzPffzJRSJQqzNZLLUgJuTr+zzLdnF+E8rjp3WjYuY/knd04Ja3jYi4zYDq5DuY05HadWXMZaBrlSTpjJLFKknoMKVnZqYUdXx0kLl7GWQ66UEy1MaO3wm12sfB5YfOg4aeEy1nLIjXKihcmom8JjJ1tdTVsHUqessKa+xXHqxWWsZZEL5US1NSlZ+irFWg7qZuhRPGWqFf45Tj24jLU85rtyogCOveKooWHbpsJULMsTaM3AWiaCmI5TCy5jLZP5qpyogD3oT7ZGjWpd4gGRr5YS/NV+Z6kI+7HP8W2XnCpxGWu5tIqWKY7jtD5yla1zHMeJuHJyHCeXuHJyHCeXuHJyHCeXuHJyUoOlITRgG3CB1GGYtNZoy4LRbgbYrYd+TNuO1VetcHuNtKZt8bjjFOLKyUmNyVOlIROsle3MoIAePMZ2ZDnpFltkS6qezQnW6Srdc7h0+h5Wnc1xrzFyivFSAicVaNt75PVSn87Sfpt+s9CRxbVYTOyhdsJO1mI3tsGlT9YBQaGx9RB78ztOxC0nJxXYtBRF0zsomOKGa9/vZstDtugu/XidJsUEbMjIJpGV7KTrtC1cOTlfU7w90rwebKCKQpoXdJzEcmLHlEZsH+W0Dtytc1KBXt9HTzLXbN9NkicDLLgdfIXUqYPFn+g7TkvbCJtkHnClbVrgbp1TiFtOTiqwq8leG0jjp0j3PmeZOTYAOO5GO84++xxnBxWC40AQfHyw1ugMUO0GmU7rxy0nJ1WeeFUae7vtbcfuuAP7SsO2btqTnw0BWGyLRQV0CaCRf9ZbSzktD1dOjuPkEnfrHMfJJa6cHMfJJa6cHMfJIdL/ALCQxyQhS6z3AAAAAElFTkSuQmCC;fontColor=#CC99FF;" vertex="1" parent="1">
          <mxGeometry x="680" y="-76.24" width="155" height="46.24" as="geometry" />
        </mxCell>
        <mxCell id="vPh5yiBVEbnupIEMpU4R-121" style="rounded=0;orthogonalLoop=1;jettySize=auto;html=1;exitX=0.5;exitY=0;exitDx=0;exitDy=0;entryX=0.298;entryY=1.033;entryDx=0;entryDy=0;entryPerimeter=0;fontColor=#FF9933;" edge="1" parent="1" source="vPh5yiBVEbnupIEMpU4R-13" target="vPh5yiBVEbnupIEMpU4R-114">
          <mxGeometry relative="1" as="geometry" />
        </mxCell>
        <mxCell id="vPh5yiBVEbnupIEMpU4R-123" value="" style="shape=image;verticalLabelPosition=bottom;labelBackgroundColor=default;verticalAlign=top;aspect=fixed;imageAspect=0;image=data:image/png,iVBORw0KGgoAAAANSUhEUgAAAtcAAACCCAYAAACNUuQwAAAAAXNSR0IArs4c6QAAAARnQU1BAACxjwv8YQUAAAAJcEhZcwAADsMAAA7DAcdvqGQAAFDpSURBVHhe7Z0HvBTl1YePn7H33kUFRAGVpoCKIljAhr333ks0iRpF1MRYEnvDjr33hhRRpCiCqCBYQMWC3diNJX7n2bMThmFm75bZvVvO8/vdxLvAvbsz8573f+o71+8D5XdxHMdxHMdxHKdk/i/7/47jOI7jOI7jlIiLa8dxHMdxHMdJCRfXjuM4juM4jpMSLq4dx3Ecx3EcJyVcXDuO4ziO4zhOSri4dhzHcRzHcZyUcHHtOI7jOI7jOCnh4tpxHMdxHMdxUsLFteM4juM4juOkhItrx3Ecx3Ecx0kJF9eO4ziO4ziOkxIurh3HcRzHcRwnJVxcO47jOI7jOE5KuLh2HMdxHMdxnJRwce04juM4juM4KTHX7wPl9+x/Ow3Cj7+ITP5IZMQb6l3NJXLQxiKLL5D9wxrl/a9EHn1V5LufRLZsK7LWCiLz/yH7h47jNAS/62725Q8iL74jMmGG2oHlRbZbV2RetwWOU/O88oHIFcNFeq8tsrl+LbWQiljVMNWIi+sG4b96lz9QAXrveJF7XhJ561ORn38VWXdlkWv20f9fKfsXa5Df9LONflvk7MdFxkwTWXh+kfX0c+3eRaRPe5HlFzUnwnGc+uSnX0Re+1DkjhdFnpwk8vE36lzPI7Ln+iJ/2UptwGLZv+g4Tk2C43zlCJGT7zNneeH5RLZZR2T/7iLrryYyX5U50C6u6xxENUL6upEid6uo/vw7E9W8DqstJXL6NvqAdhP5w9z2Wq3xzY8it70gct5TFsGGuf/PFuDq+vn20A12rw30sy6tr7vIdpy64cef1aGeLnLNcyIj3hT5Wm3BL7/ZRkxEa+NWIn/rJ7JJ6+w/cBynJvnye5EDbrYMdcA8qlkWUpHdaRWRwzcV2X5dc6qrgZLENULt3CdF7hpnRq2aWHsFkTNUNPZt17gpwa9+ELlWN51Lhtm9+u2/uulk/wwW0Iew2xoiR+pD2a+DXqcaFdd8zkdeEbn6WZGJ74v8R52HADbYP6jQXkOF9aE9TGQTxXKN7dQaT78u0v8Ri9CmCRGf9iuKLL2wrQ2yPuusJLLmciJLLFSdDumvasve+FjkUrVt901QB/sns29hltHPs61utodvYpGtfLNXn31rWbD7xtvPLYYF5xU5ZjORU/o0HVH7Vn8HGUWCAx/+O/tigeBAHLhR7Zf3OU4SH+jaOF/15u0v2p4fhrXNmuuueubkLUU2a2PCuzkpSVy/PlMFy60io6dlX6giuLhnbSeyUUu98A3Wtvlf3WSGThU5/WGR8e/NilIHLDq/yE6dRI5QUd1RPb559PpUa91SvhCp+u5nq7W8dqTI4MlzOnwswM3bipymGx6L0OswnVqBbNONo0UuGCzyzufZF1Mks/z1fwIzgD1YQDerDiq0yfz0W09kpcWb305gyv6tG+stY0UuU2H9zhe29sOsuqTIISo09+6q/72UOQeFvO9JH6lQvVnkJbWdxbKYitwr97T30BSUsFw0ROTCp7MvFMjqS+tzsbPINu3tnjlOvYKWQVjfrw41QcMpqkHDsM6XXEjkgO4iJ20hskIzloOVXBaC0Z/xpchdL1k9zMdfZ/+gmdm3m4rLrS360kh89x+Rf6mh/qd+0dwXBs9u63XUs9OHrpBITq1B5JpUMRvW0CnWwBmmhW64J/TWjW8DkWUWyb7oOFUOIpJI6gvqQJKl4dlmvVcCyseIAGNXEdnNAZHptz8VOetxkTtfzL4Ygo30gA1FDt3Y3m+xjsAP6qSPe1dkoDrpj79mZWf5wK8j8n+qOu+7dhFZVm1LvjaW3zl+hsjlw0UeeVVtWMRmxYGQJg2OLeu4avXVnDpOOcEWYgdwSqd9ln0xC2uhe0vTgD3XtDLRSjP3gO1kQPa/i4I3jaewUSszJnj7uVJpmVrYuS1VX8wX/x6jmcsjoOZmq7Z2UanHaQTYeGd8JXL0HSJX6caL0xPAdWutTsZ5O4r039bEZXNHoMoJn5fNtW97kZWXEJn+ucgX3896ZohoP/emyL/1/5kmsPiC9X09nPqAZxTb1nIZy8hRQsCz/fNv2b8QgUea1ChfYRsa/cKmIgIzayDBsLJWnn/borrYjxVVYFfSOcee8fsPv01kiDoVAbyFReYX6dNOneldRfZXcc1+VMp65noF9oPSuVc/FPk+DyeGuu7bD1LB28GarQp5D/zOVdRWrbKkyDsqFLivSfBzKXMjM0uzJrad++g4jQQCupM6lduvp86o2kBKQoMsFo74u1/oPv+W2Qf2+UqXiaTa0EgN3GFq/Iga0lQSx6l9Rc7Z3gx6oXDBPv1WZPDrItePFBn7zpx1dkCa7DT9PaQzMXL1DqkSRusdpcKaDSgM0Wrqzs/pZ3XojQa1mZQtnT9Y5Jk3RH76eXb9sOcG9qyw+HyDcmqFX9W+Uv5Ez0tSnS6R3EEHWolc3LPNRkRWh0YhRPNQtatPTLKyEwR7tJwM2KAQkdjxTdeszJphEshjr4n8+T4rAwlAZDIJ6KCNRI7vVZ4sFGP9zn5M5ObRufuKeC/X7WPvpRRhT0M29/SaZ7MvRMChIRt7il7/HVXEU+LnOI3Ot+r8EsWmb+E9tRFh20WADftwMCOHCaRlXy83JUeuw5DawlMgRI+oiYLROUQ/IHW+xYBhwQuh+ablsrYJzAgZ24DW+mc0srRRI1SMiK8lcC5e/UDk6DtVRKpTEwbDSyr3vJ0s2tSI8MxQg4mHS+PQu1/O3vA46UORL75Tx0PFNTMzG60+36lNeE6nfizyrNrbJNHHM38gkdyF4zcU7DFiedEFRFqpzdyirQUk1lhG10k22xMV2HzPSE9KJdqqs76cCtpSxGRTIKyZDnDCPbMmAQHrmiBK/23U9vUUWUw3zXJA5Bq7MOptkc/UTkTruwN4P3/pY5HnUgiyapSIROE6s6fRJLlTRxfWjhNAFLud6kJs0pufWh9DsFappJiithL4c8qpymiy/kdFpQSdzAjfUmFkHGJow5YWmY2CwSdqU+k0QKVho0NYH3+3RfHDhh8nhG51JqYwBaCRYVMiak+Ees8ucw6ev2e81akzsjAuE+I4tUgbHMYEYR0HawJbQV31JbuLbNw6PjhBVhJ7wzxpykXKBdFzap4R1h+FovOBsB6wrch+3cvfxMemvd165c+CYr/JzH4Y07fEZ6bWncj41u3NvjvND0FE+h7isjxOZaFkrvdaVv7abfXZs2oEBBhHzMheGqIrcbtSFdc8YLnESYdVRFZdIvtNiTAiigg4s4vDYISoB6Turp7BEJP+IIUYLY9ZSDcbxs7RuEjXumNQq3ri5lajFb0uTB+4UAU2zbluKJ1qh0eU5zQpkgo870ReC4UoUFfdnI7pmRwMQexSZvXmJ7nfQ7Fgz16cbiPxosKaTBRlKbt2rsz4UAI4bNoZR0V/fxKlOuaU6JCNmKZOfhh+J8EiRqbu29WbsJsbHneyn4xspAyTksNPiJTaHzvNCBPACLrSW9apxezBAWqwL3/GDpqKDnsoB6mKa1KF76s4CTfThcHYU/OSBnglGBmikGGIvNDsUe8pM0oZLhpqkZ1wfTtR/d262Lg5HBBndngG2aQ4XCIqPJjXfv/LlfNsHadYflEby+z6pN4WNhlOXS22LA5B2UU3p14qKpPqqin/4zji6DSeUmHt8bPPfNQycwGITGz+sb1s0k8lD4ugFLFXm2RnhfccLlspFByl6fqZH3vVBHYYAgE4Epw26SdNNh/cIxpbCWo9qPvEAYNE+lxqJUNxZbBO80BwAIF97GamBcMOMWts0BiRkW8l69S0SFVc0/xBfUtS5C8TSUkphcemQZlJVKwTsaaAPa5cpF6gDvHeCZbiiG5sHABxVE+LsjhzwkKjFpU6zfYqPsLCgdPeSB1x0huNj45TrVAygYOdtEGsq3YAO5gr0toUBCqYSpJURzzza+tZ+Or77AspQd3xxUNFhr+RfSHLgipsmeCxa6fKn8LGPkM0P9f0KTbuYrJe/BOaSjmbIHpmBGKeMhBGDDLBxKk8CGdmK3Oux80qzPa4TmT/m0WeeG32/h2neqCEiwlCh/SYMwDL8IdBY+1+FrNe8yU1cU1qkDRJ0lgojCF1ryXY+jngAi4REdfLLWqbSr0eEMLDwLhDJgXQoBeGCMefthTprOLRSYbUMpFrmrdWiggQ0twc1sEoLK+/dqoVmsdpsEuKXK+5rNnCUsQ1NpvID/XNcfAeiNYSVEkLPg9RwVtfyL6QhWAKNeREo0ptGiyGwGZQJhMbyVe7TLQ9n5F9UXDkEdV3jps9+k0ErmcbkcNUILRj70xz83SaBMeVxjgOJsPZ2+Eq629izny5o55O6RBoZQ48DjlrKQC7RTkPjdJk/8pFauIao8j0DqKqcTDqLFO/l6KBmH/eOSMJzNrm2FuMYT1CwwtpjbdUBIbFH82bHO2Nt+ZGuGlwzHboINJDN0xq1MMMn2LHERNBK6Nj6zhFw6aAmEsqySDKyTNeiinIZAcXzN0QTSlgrnMNCoG1xjjXgc/NLlL5DGyUB29kx7I3F9R6E8mPC9zw3pmHjRgrBPZNJhnc/ZLN6Q3AnnduYdO1iJhT7ueUH4KEiC9KP57WfeCMh0V2v856m1hvHnCpHdCA2EGCaGSpw9DH8dBEE9nlyj6kJq6/1weSgvGkk6UwTIjeNHUfEQQaWgIhjdGj8aNea43JCnCsNx4X1zsMjgupQ29gzB8WHgKbZzPsjCFY7h5n47CYJ+w41caHX5mQi4tcE6UhyptUK10I2NSFc5TY/aJig/eQRlMjTUaka6PHjiMsma3dT9dqc06AotSQ6HXSrFzqwyfPzN8hJwvJFAMarOidCaKhmSj9ciL7d7dGykqXwDQi3Asm3+DoPPCyyMn3iex3o8j1z9s9clFdm7B2Oq5shwpGS4XpbXjkFQsKl6MpOzVxzUzUjLhO8AIwFmmfljifGlpG8m2+th2UwBQIIgv1OqaILvJ7XrKGuzBsgDS80MDk5A+CmueF00WjY7amfmICm7rWMqw7xykaNnqm2vyQUILABCXKQoptZgxD8CKX3SbKR+T6txIXCeKGqUdkjP4bEjKIWGomd+8ismIVNPMx8Yp69rhIMp9h5JvJAaYwbObU8RIdfVg3+GBWOVnHlRfXz7u+pbQ9WFJeqKemnBWH7sZRdsLxkbeL3DfB7k8ucF4JzHCoT72WodYDSy1iGpFeqzDYLsqxOJslGqxMg9TENc0t1KnGiWuMPLNC034AiVAftonI4ONFhv9RDfNhNikjKpTqAcpthqohJpoavcY0ijKHNVxX5OTHsovaCZbUXkdLiZ6abBu+R6+daiKodf4hR0kIJxdGn+diQDDmmoSAwCCaXOqvImBA4IDTJsM6ncNyerQW2VS/qqHcjTr27qvHR9C5VqN0s046MTMMm/mIN6yB+u3Q6D0cCSL0e+g+5pNBygd7KJPNuAdXjFAdcavIKQ9YMztzq3PBJDL6x7bSfYNzJP66tcgyet+q4PF0YiBAQFnyJmvOGSjgxNenX7c1mHb0OhVxjVEhtM60hTgYn0RjTBrGvlGh3oujiaNRa9hCvbLWKrC91rpweCapaeQrmjZikyRFSAQj5XXnOEVDnTOBjCR7SySNEwvTsAeUKkQbp8Mw/WkR3bBKiZKzf7zwrpW8/RZxZOmH2LKtyNK6h1QDBDAoDaEOPXp92ZwZTUh5SK6Nmmv68vsiA1VYjw+VwBAUwpZTDsIpmU66cEtwTDksjDKcfzwlcuQdVk/NfYsrsQrg+eZwOsZT7qv358KdRW49yPoAViEwk4qScsoFTisOerRng8AZ954m1WKakXORyiNBVDWXuKYkhFpo137FgTF+Vj1qHoJo1Bojj0FOu+SmkSB6zYbJMdBRiGxMmKECwGvunCrh42/N2UYoRCGSTP9FGnW6iJGf1N7k2nSICpVaB42zQO3jJ/q5wpoU8cpxxUScqikwQ3NUtzXsWkehZIc0c9y9Af6caNldL5pND8BJIUJPAyPlfR6ISg+cN+qpJ6odp3F0wKMix9wpcvWzFrHMlZnEmWJaDmUFx/QSuXIvE9bbrGOTyjygVRtQNYFd5ODBqL2ipp7Gxve+zO0UF0oq4pp6sYyxT0hTErWm29sfxOIggsrM17ijhjHI1AE2hzHGqeKBHDvdmixJ69KBy6aRq/6+ENiMqIlD4HLcMge98Hv4fYxIypyMVeKCYJOkHovTQ6MbJul3MgZpe7WOUww860wyoBcA0RCFCC+R6zjhVyisPTJljPxLgua+6FkDhTLpI7MZUZGDTduirUiLZhi9lwv2su4qruOi9VyzkbpRY/+icL9oQn1ggtpJdSaCBkYEXCe14QdtqD+3pd67Ep0Vx+BeMF2LUh0aE095UOSke62BlDLWXFD6gZOzcyc7DfTKPfXfbyWywWrJBwnVIzyz6DtmQg+fKnK/Prvsv0T+ybqwN6cReGKIAHPiEbloCJwg9npKNrAPSSOeC4GzP9jnCfSGQceQSZr4gQUT0mLuAdvJgOx/Fw0pSh5YjH6cwWcUCt3eaRj8RoPribG+ZYwZijAYYQxyzzVLjx4VApsCqbWn9MFnofHebhgtcps+AwjRMSq239Vngs2H0Yjz6+ZRqGOFiKBRCsPIIsv8jlEiN+vveUAX32D93WRLmGlOCrVU54LIPz+PhRx1CsjIbLZWdm5w9jXHaQ7YZIbpJvfsW/Ej8Drq5rFnl9JnXAPrgPFwj6gjS8N6FETGpmp7mGhRbBM5toT1zcmE0Q2UrNyJm5uzUE1ga/hi448GPNj+KKNhjB4R7vA9QKQQFLjiGdsrgT2RyS6HbmwN+fXajF9JeI4ISNGsxsx0Rjve8YKdYZA0KhiC/QpHZ9t1dW/dyDIJZDUpK2ik0g/2X2rPafSk4RZ9x/kPN+kXTcf0f1H+xOFHPLM4nMXoO/QN+pHA2e16j9jf2efvUJtAUyliG+FNn0OpBxDy/nDg2eMJBofhuUB0cwhfWk3EqTwuhNURfnGNL1z4TOe6q5KiyDzg787qJg9D93wX9aQrKazZOJ5Xo3Xh0yJ/ud9Sa6NVTGciaXr/SfGy6DjkhuOLn9JF01SDSBQWHCliFvFpD1lN3BBdzMymzPy5/h5+HxMTmFKQRtSeulG82riTPd9URwIj46UhTnOTaWZkUkhC2UGLpSxCk4a5JVuDE012KA4EPKnWUhrIWecED+IiU6RwKQupRhD8OBZxtofaXQIMjBYMYPMel51IwTUF/i2N1Lt1FumnwrrUDEAjg1ODCGO8GtHV854S+ZPuT/w/mdVcWVQyB630Oca5OaG37m27iJyzvX2P2E5jf6klMvuvrvlg/z39YftvZtDzHJMR4M9x8v85ROSSYVayWugR8DjWZKQ5oIesAsKdgQ0EDYJsNBmgb1VTlNLTEcDPWHFxc2YpZwuDruG0WTRFXIC4GEp+yxgSIn5JafPV1dhj8Av1+viApNDwPK9SAUdah07eRkvPc7PHqbhOilJxfSu1+BH4iNwLBlvaJhpJj/KyLpQr9d4x+zXfiRuZ+/61RappOOGzx8FnZloMDkYa5Ub8DDqK8V6jC5nRWs/ps1eok+A4afO5rjmiLkl2sNUyJnZLXRNsbpSDsGnGOfbARBImFZUSUXpNN7TMxhxjH2ge42yEaoT+jI1bx9e2IzJeUEGH7c58r59titpAhHV4hjf2CwHH4V8+GaQ4eE4RRgSgiHqe87hN/SDowzXP1aRI4I8Mwz7dRP7a12qpT9rCmtsbtYeJ/fcj3X855p2g1si3TAQnQdkYx8DfmUepTRh+Jk2E/3xa5NaxtucnidqMjUmpFAcHlvHNcQ3SCHkciKTewUKZ6/eBs/WQFAyTFP6mDzReR9xcSA7puHwP9dDVYyjE4DOqiCaXv6rnhHineYAuasbe5DoxrJ7gYaP+CGMRRDvCnL6NyJ+3rEwqEXE/5HUVyyMsKpMrvRaGRoIz9H0e07PpyAwP4lff2wmUeLPho4CjEGGmHu7vO1i3dhrgLPz5fvPSo5FBFvj9R1jaqNZhw0HUEDGsF4g+YTTXXy0++1AvPPOGyB/vnf00vwDswMC9RXbsWHpDI88/qVqiVkQDo/DzibiepvaYhvViYIM9Tx11NtjoRBIiS3cdap+lWiG9vNf1FvGKbqKkltn3KInEjl02zPbIIEjCvaIp7s9biXRQm5JGgKCRYG9kr3hN7wHlH5QPEIhp6jhrgnxEo9uvaJlKylWxGWiKRotQR8FRIaCJE4hzks9IyQCuZf9t7ZluqjyEyDf12hfpHk8ZaXTth8GWDzpQ7YDqyDSi1+x92ND+j5i4D4NDxfQXHCzml5dKyeKaepkT7rb6s7jUy8kq/s5QAxw3iSEJFg5dvGeraKcOB6itpf7uqE3T6YSvBYhOXapG+bJn5kzNcj2v0Y10J918EBblhHQbDUekf/h/HlDSwXj9jCfiezYaFkxchL3XWvo5drPZoLkWCBs6Kb2/PWH1cbkganaEPgsn9i7s2coFqemLh4icrxt+nKN44/4iB26Y/aaGIQJ/jRpP0qb1Ao7bvl1N7PFs1CNsStQ+YhfDs5EDGDM1cB8TC6X0t7DJ0qhMyvfa5+KjfzSpn6ib0P7dinfuiVYdp3sHQZTo3kGa/pGjzGZUK9jnUx+0gEM06sYedUB3XWMqnqmzPu9JEy5ApJ+xYAjrHq30XlWwrK/W4TrPVNFHiQ1nEIxSUU02oKlgD/eD+e8ER4hMU0fNs4Wgcr/GIAqNA/gvXfcIa64ZDZzYFf6bPRFBOln3+ig4J9Sno9FwXpLAtryhezvC+r7x8ftsGBz32w428Z6G88MyxRnGhvL7ozC7fIA6CRvoM1Lq7yvZF0D0kf6KE9bUAlObNl+BYhhPhukYeBgBGHBKIBrpJKQv9cHDM4/z7PCsWuoGV8ommg9srNRQk7oZM82+ZzrJcb1E/rGjyAU7qxjVLzIKjKeKS98QZSNSmqs0hJ8bCPimhDVgFIlYl9rkEIZoGZt6krOC85BvxN5x0oZnjyhoYgme2gMci1L7W8gaUtbwzNR4YY0NZsPtqhtvKelzRtKxUcf9Dn4+Nd3VDJ+9ZxuRhWOcCz4TI/koVSASGAhrrh2RaoQIE0dcWOcH1/Mt3RcItp2lwuiMhy27ScQ6l01GNyCmud5kUM/pJ3J0T3NAM+VT2b/X6KDfiCITdAmENVHos7bX/X0n2+fP3UHksB7mpERBJDNtIyiFSuID/dm36T2kgbkpYQ1kjAngpXWf+Dk0XzIZLG6fp69rhtrYXKUw+VKSNMOL5GImHR1J8Tg1gIWE84keIuao4Qka2PAgllxQL0gF64urgQ/1JjOeJs54IK45nKec1wMvj2ZVoslkJohKE7EmdcJx64hb7i2Cmo1i6/bWTBWFjuJXVVwTAY+D5wgBfrEKaxocAhDOzBcl+3HyFjbvNmjexDBSapR2MyeGI+m6Tvk4P4PgOOWA9ccUniRxzbOLmCilxAARg3N7r675uFI0wPZwsAuBk2LtDxEsfg8NjdGoL7BvFBsRryQ0XbaLia6TZeDz0SvEfgbYSsQC5Y3YNQSMkxtEH+Ue9F3RIM8Xp1pmxrMlCCBKP3DM+rQT+ePmJhAJ/nCkPPtXIwXo8oG1yP7LFBua9wky0az7J913KZvBiWSdsy/21T2eP4vC8/6RagVKeJOCaJTsMIaSsstwJp6gwH66Jk7ra04QVQqBXcGmUWKVZtkU2oGfi8iOQr35O4yVTtC0hVCSuKbRi7KQpEYvDAkNZ/kaYAz7K3qTqfch7ROAyMpEZXKkG+oNNhxSs4i5uM0HYVvqRtok+nvZ0HngeNj4nTTfbLfunCKa2iiiAYHgjkJTI41RLOQoLDTG7xC5Bj4SNfbUdJ61ncgA/SLqQAqayBzRelJPOG9pw89l4cWJdmZ9ksp2nOaAdUK0N87wsyEidktp/MHOMImE0hOax+MiyqxLRu8hDpkFXCyIJhozf0kQSOwdlZyCVCzYoM3aZL+JQGNjuMmLzZwabPqQ0hr3Va8w4pBnkKa6Mx4R+fsTIneOM/GWBM8L4nkvvcbsF2erqKZ+dit1BNPI6NQr7MnYFp5V9m4GJRzfS6RzpBSD/2Z/JBMQ1/fGuM7McIsY+8R6p4TnHhXW/J1A06y7smXBKcVgn8cJolQqiCpnMskpO6GMBmbdxn0GSmPQXd8maNpCKElcf63Ciwv1Q8IbIcJBR3RTApALT6cmEyhYTMxVDXds4mmwcXCkb6OAV54rK7CyPhzljnxw3xDLe3dVz1KFLZ4/DUY8mHG3FAeIiRtxDWV4gyzgqKNAFI5U38MT7TPzc7nPu3Uxz5mIOEcg4z2zqZPWY1TSMZvZ85U2OCxExOMcBIT1tBzG3XHKBRsgKdWkkadMmyhFkBJ5wpbj5DJ3mlGXUbDDZI/2VDuAA1qKY4/Tzu+LE/BsrNiSWoD3yjkDnPKaC+wXDgnXrtrLXZoLtgZsLJnSsx4T6f+wjXzlWHwOK0kiUxusgg+RRoM7wpq54QR7aiH70dywjhHUf+ljkWn6inim40qW2NupVUf0RiFD/bbu84zjDYNtITKO0055aLDmqX8/VvfxvTeYFdBi76WX6rydbJ8nQzZPSSp1TvhcOLpxAxYyEXh9BmmWjUiVgimpoZHC8BPvNQ8zLhXAxaMON6mGFfjlXGyMOT+PmxM1uBwSgmdD1DRO9NQjpFAYK0Stc1wpwg37m6FOa0RNLrgfCH0ePARtkqjHSSK1RENEdCwPUa4b9hPZvoNF2QChzUlPJ9xj5S/Az+Y+E3Fg+kNZI/MxIPBpaGSCQVxzJnXmNCLlm42pRrifGDnqFesFbAyOHRtqPU4L4bnkEAfGYCJKo9A0fMluNhe6UBtJuRaNShy08Ziux7iRWqTSu6mAoWGJDa/Ua8wEkn1utE0XuxKGjfbhoyyqVQsgCA8cJPKUisA4sGmk14nKbcgJjA2yh+ULziLlTkwvIntJaSAlSblqqdkXyKJspNdzo1YWZV1Hn5dlF678nlEvcL0pt6EsI6kpPFPOxbAJdX4Qy1EoxcHBoQExgAOTGMqAlgmcJAQ60XEGMhBBruQ9Q3NSIcEx+ByQE4VmVzLmlL+UojdLEtcYEyYOIIrLCSL98j0tXdAoUG5z3F1W6xx1NkjN3HSARUICoVoNsPDo/OeZiKvXZI7o0eqpBg4BZRZH3TGrHASPksVJOq+5xlPxGajvo2Emzqk5sqc6D+pRV8KpcZwAokJE8ajhjRs3RrTpb/1EVkjIKsWBqKahEBvD2D02nLh0KOJw/Rb27NNXkUZJAwGZfVVc09MRBQF696G2ydcCBJaYrMLkkDgooTutj9o6vX5JgYlGBIcRJ5/BBYx3Zd45GeyosxWGoEbLZUV6t9FnUp09TlNsvZxlN53KQPaMIBoH9ES1CcFUhCnahHtFKSj9c4hrZkgTUGuxpOmAfbqaiG+OfZ5+iPA0ujDtVhQ5c1srfy1lvRaty7moeCThU6jKAREpDqGhdruRIC3BIQ7RhxdIQbLBVVsAhEVCOpdNMS49Tb1oEI1ggWZOd5xm3+MhEt05aXObFNBc0Qd+79ILJXusNNn+lFCq4zjlgslBjLCKy6ZARmDMFy+scRip0yZdy8/gICg2RzJGzHW/bLhlMeKENXYGh5em4rSENTBOLc62Ac3rtSSWCAqQMUgqQchcf7V7+n+OwnPI6X40J3IyH2PZiCBSg58krLHLlAgyavOiXfTfqbPC6E0mV7mwrixcb2rb4w4+omaZ8k8cTjLZ7O80R5OZRlhT9kGZKRFrgoTNtc/Tx5fUM8J0NoIZSfYpX4rWZ9TKUvidVBOcFmwY3Mi4zs56huaApLQYD3dmjFAzPZi5oB47qbEqU0Ouzw2NsA+8bF3DPMB8DtJ6GMzuVZA2xXlJEtcYjiSB4zjlglINBCnRvjjoWTjidpH9bor/OmiQyMG3WDbsNBU0lJcwJo6oIc90FJ5/yvGO2MS6+LdYOz1hjYAicJB0XDK2ft4aivDicDPGLGkzpuEf54VazkaG+851QFRzOBzBFUQ2z3aSqCbqz2FhF+1qmU9KCRgRR8CtFhpe6xECnpRuEYGOgjBl7CTOPNlr+uiY9oLQZl3TS0XEmn9bSslFqdDUyOmvcQ4xtolnkvdcCkV/PML9HGSQdLpOv/Xs0A1O2Wrqi1pcamzjmlio7eNGIiYbCURoUic9hfhcl2oU1zys3Me4+dPU1SNMX9TFRno7OD6dOZaH6ybeo3Xu+vxKwdzapJpqHASiiI5TKRAeCLhcTh010zQiUtcY/WKuLJvcfdmRmhy6wbzsOKHOhkdfBfNsKX+icRjHN8158nweouT/TRLXuulVU7lbLtgHrx1pB1IkBUOw46TEX54xZ0N3I8Fnp6aX0kH2gKTpUUAmhgPjrtzTygQP1eeR2upK1+c6czK3rk3uQ9y0LhxJ6qop9+JYdMq/0Ig4QuzvjPClGbK557vz+zl8Li7rwTANtEmp4/iKFtfMJ2XYeJK6p8GGUWq7q6fS1Ne+3axrlDRPdOwKH54ISnPfjEpCRIdRRMz8jgNHg82nGm0M74tMQ1zDE5EbImWXjzAji2Elwo3h3F6dMbzJaoD3sThlNzEX+HN97om8O06lwMYihsuVMUGs0BxGnST1klfvbZMDtl4nO3M25QgTEV4c7aTINfatFpr+uC80dREoINOYBPoRe04EL2lsbSPAdWBP4/7HiWrqWzfM1uxevZc9g5QPUHLjpR/VA9si9oLsQRSCgvRS4ciTnQ7OKunSwua7U/JZDRkHgghoj6SZ56ztXIfe5UNRJozIA/XW1KXELRI8Go7HzVcQc7H5N3im4dpqDCxjizhNp5GcVTx8bm5SqowHY64q3XzYqMk0sPii4pRUC6dqDZ6kRjYrUKm/QlzHzZxsLojSURoSJyp+0XsS11DmOOUiyBLy/2lAqR2TOMgukjG8SoXMnYeI/GtXG4PFXGDStuWKHv+q9o1ywqSoJfOIqz06+Zu+dyYdUS9MkKkp6E2iJII54s6ckC2hLPCi3azxk9nhvOalH9XJgmpDOCE6OlYSh3n0dHU4R9nhSThSOEcHbWTj/aqlAoHnigx1krgm2p506F2+FCXR8D4R10klIQhr5iMXEn1AiHGjKHIPQOSQHmq0uaCkSzPiOmHzwYvPbHxVugFxD5m5G81CkIamaYUIHB+N2jlO0GJmdzXB5p4rM1DuPgPHCUOalSkKRIXiYKbvA0eKPHGsyP1HiNx7ePwXf/bU8SKPHm2leOfvbOKajCHj9dZdSWSpHM28afGr2gFsQZK4JmtUzfC+adS64OlZI0SBzZpymg1Wy74QAtFBSdn495KDJo0MgTqmjzHTmixNI5fP1AJkd9F4K8Q0NTKMgdOlEac46Zy+SBasmtY1ezt2LulgoWaLXCOqWQBJNSlELmlESKpbjYNIBd5EONpN2B6R1miD4DG+RKmSmpdwOrhWBVzeikLjEw5WrjKPTOd3X2t+rLUauiRR4DjlgIwP2ZI4wcGRxMxjJdrMVI/t17WIdNwXpVf8PaKCpGnb6Npjc8xMGangGmTTZWJEUvCAWshqZspMkQsHi0wM1VBz+RiHyFQVDtqJg32TWmMmKjizQ7kMZTNXjNDreLM13iK0G7mMpppBp5HdTZqHDdgmaqx37th8I/eKhT2+1G2+KHGNl0knaFINIA1taRhsfkYrIqA5RFo9wk3Fa0oScTgt1fycUm9NSi/p2FIO+yAF2Fk3+HJHyRynlsHBplchKUuIOA5GX2Jv2fT477ivaqljRlRn6q0T7Fs12wQatS4ZZrP5iW4F0Kx1eA8LLDGnm7K4KAhFxPX0L7IvNBjsWYvonk5pQNw9JqhEloZ51zThHqMCe+8bRG4abRMoPKhRPaBBeMbjmhqBe8zoTso+V1M9WEigtV4oyoxRpM4iiEtv0ZRA1LJQQcy1R5SFy0L4HqFea5HNRgfDyYJKilwTOSPa1mhOk+MUCtlBBF1SIIPULBEid1LLD02J1zwn8tAr6uyEIqocOsGR22ThcGDa6/dxp0uyX+IoURqSNLavnuHakFm5Zh8rB2RvT3pucSbpM6BU5PSHRfpcaifq0QiflPFwKgtzorE/cXXLNDv2XmvWmmhECv7YGAXmWyc11xBpZroHkZJCYaEF/w5hjZFaocHqresFFh1D5uMWFhEcr6lznKbhlFBOwGVKTRzY2rjmYSddmBB021iRW/SLSSdBFBUbR3kbpwezdxEIIgW+wer251G+1vs5droFpxoNrg3lokwE+fNWIg8cIXLejlailNRYlsnc/Nui2Zc/I7LrQJHDbhUZPrX0UWlOaVCeSqYmru6asZR8NXK2oWBxzQxAOp6T0pR4LMwtLjSSEhglhsW/PkBkwukiF++mPyvmxjnVD41RmYkDMUaTo90zk2ay3zuOEw8HvDD2NGls3epqb+PGXjrpQaT00ddM3NGoFQQGuO5EYDkmOVwCF4yUizv4DEE4UYUiJ2U2KpQuMR2K6P5hm4jccYjIDfuK9G2fO5uJo8m8cOa5HzhIr/uVs85L8JKRykPTP3XX7PVRcEAzTdgN7AAVLK6JWCOOktKU1P8tVmQkBc+f4zHXXmFWs02jphRqHea+8hUnCpg0k4ncuEF0nESCMoKkBjjS6nwlRf2c0kG0Pf+WyL+GiLyj+14440azFmc0RBvuCSy1X0mk4yrZF0Lw77F9E99PPnSmUUAjUFpAtntnvZZMsHnoKJG9NrCD0uIkBJcfB4XJK8/pfTnlAZFeF4mc9pDIqx96yUgloeeAjFpcoBV9yIhKRlA2KnP9PrAwiUNH75/utwc7zls8fyc7bS+to3IbEbrprxphjTPUW0bZY307ChZHpBrr0Ynu/O0JOxUOYRB9TNh8bjnQPkc1prPZRA+/zU6XitZGcr3vONjee63C5sTJfX/Xe1QvMGGCrvRjetmxtvUA94nT/y4ZaqV4UTZuJfLPXawxuJaCEEQaT7rXDpmIS+2fs73I6dtkv2lmqPHluPihUy1rG8DM3kt3NxEdZ8MQHKyv8wdnXwhBZJtmL07ApDfFmQX2lmvHyFYOIiEyTZYzF1x/ShRY95yVsZfaZia2VMtM5XqEch00IPv8qLfjg2hMLzpL13LcaMrmBsf2frU/5zwWn0UiG8XJoB1iHOR8Kcgk43V/oN5I0uEx1N8wCcIb1UoD8YmxSCqt4T4kZImbHWoTeWg5YIEGoJjHJBORm/qxfoYq/RC853CEKkqhJU/VBp+NDYxxmvXyRZSEtHFck3Wtwrg6sjxfJ0R/VloiO5e6Ch3UXBBpx74lBQaSSmAqDYGNy4aJjFQRERbWnDJHAyMZ1qTgAGUiTA2hxjgKNpINfdLM+H20kSF7TTlNp1VF+us1HneaBezQFUlgz5gBjwN673iR/W8W2fYKketUmDPG0q9xunA9Kflgogvz3pPWK5lrsjTVsp7D8EigP5L2edZ1qYG/gmQC3kquznWaOxjNUkwzozM7NbZfZiAl9/gk66hH7OQyapQWVesMU0qf2PziOvq5L0njhxwnTQhivP1ZcvP4aktaSUI1Zq9yUQtvl4zbQLVjj7w6+/WnVPHUviLdVTjn2ufIJCC+40pDMIvUpNKk90ODl4YkQQCDUbz0FBzfW+SZk0RuP1hkk9bZvxAD+w0ahZnwnIZ5wt1WMtL/UZHXPmzMCS3lgLGIt6qwfnBi7mvKMz5TdQDOZLXBc/KlrvGkmnCaxEvtZSlIXGeiXeodJokiZhsv6Z3rJUOjAA0fpA/joA6TWqYc2rXiYNhGq0HjeHNGKOERsrHs0CH+ECAi1zRrVSN8lqQIKKnGeWo8cu3UBmxi4ckUYTD+rZetzWZGorqUtCWJU6KNpR49XAqZySAqHpgM8inzlbOvwwkq9LZpL5kDznLBHshY2c6rZl+IQFSPWm5K6JxkcBzJhDPsYLcuIo8eI/L08SI76r6C+E4C+03JEUGS858S6XOZyCG3igybmnzSqdM0OJ2I6htHWWaNUxcpkeq2RvYvhECnTNXrH1eT3dywpjN2Nca2Ak23pWaoC/rnePCcToXBj4PpELUYSalGMN5JdZS/qbeI8YjbdJuLKSqWLx4mMmGGebMcWX/MZiK7q0GME9f8vQ918VUjRN2TUlnMcKfZxnHKCWsIcZ0UtaZxPHNQUw2W4FHGglOQFIRh7TWXbQsmg1zxjAWSwm+DPoskexYHNpzSEAIlUbi/9Ha8/H5yatqZHfZDGiA3X9smjDx3ssixusfkOtGT54hrzTg/Riluf6VI38tFBo3JThnJ/j2naXBWhr8hcqWuDa4nArRTC5Hj1OGk/yMKdc2UEX+VYMOaE94bJXc48nGwx1c0ck1N02cJwpo3Ql1ULUZSqhEaQpM2TtLFfFWLUUaMsuCe0YUXNCixEW2zjj0TcREqjN6E97LfVBk//Cd5c19GnQayM45TTsgOZkZW/pB9IQKRX8ZgscHVGtgD7FtSrTg19M0RuWbN05x10RArxwmbAA6+OrWPOTX5Bo+4NxwwQwlJHNhwSkOIADr5w/Unq0td9iW7i7zaX+Ss7URaLpP9CwmwX7I/UUN/wM0iG/xDpP/DFt2uxrrgagIHhYAYU3Nen2mvtVxar2N3K9Wh3w6bFAURjoCttv4qTsBm2kncNr/iYha4SKocyJe8p4VwcZn+cO6TFr2OQtf0xbvahfbRUKXDgj/0FjUEauyjEAm5cT+Rrdo1/7Wmiezy4VZnzSLC8NFpe+4OVnNI9OfoO0WGTrGHOcwhG4tctkfTKdZKc+UIkTPU6PLZouzWWeS6fXNHSxynVBg11v8RkTteNNsb5cANRc7c1s4VqEWeeE3t2222+UYhxXzXIZX9bGyCkz/Uda/XfPDk2cU985iZ7FHM3kbmgWkvAx7LvhCBiN+Ve+nv0P3TKR6EM81zNNLTyPjSu/ZaPgEoSqy2Xsf2I8p4KDfx0tZZkCUnM/3Xh0QeecVeo/fgiE1Fju9lIpTXz3x0Tm3ICY00/+7cqbr2+TdVX53zuJV/RWG86elbWxlSKRNn8o5cE0YnosAJU3FkIil+DG9qkHpcc3lLg0WhYePzKohcEwW4Rx0uahOD9Eo7FdQHb2Qnx2Gg6Pwm2hP3XFB3/WVCJqS5+EkdgI/1syRFMlZJwaN1nKYgZc2aihPWOLBEinLVnFY7TDpJyswhkpg0VCkwowQBrnrWxm+GhTVO9H7dRNZfrbhABrZivVVsb4yD0h8yeETSnOJhr6EU8SDdewYfJ3Lf4TbukPR+U2MqCaLcriKLuuytsyUjZGN/1nvSXOVJ1QKfn2vBAUqBsKY6AaeQQBMZKK7vMvp8x41ApYSY8otqq3NnKAd9D3FQR04As9TAZd5SmAcQtR8XzQMuLobo/1xcpwKimiaOpA2Izbc5U1lEoZ+aLHK1bkjMJAUW2u7rWxo08FLZXKhTjntQOUjh7c+z31QJNDPRiJF0bZNOnXSctODZI5CROWgpBtKWRFdq2clD9OCIx9k37EnSPlMOEAA3jRJ5aKI1bAUQEEBY77lB8ZkqhAf2jwheHPxu6q6TNnqncLhX/TqI3KMC+7FjRPbvbpPMeNZyRaSx/UwZOWiQTRlhBvKrH1hDXiOWjSCssUE3jbZzEYDrRyM16yJ4plknSy9kGjAKzzVlJEl9es0BkXgySklT75bQz0JQsCmnrCny/udE8/BAkmrhltcLi6DK8ew6BYAhIOK7YEJ0aobeC8bJNAcI6yFTRC4aKjI5mwaijpI0CqdrhRt4eJ1aOCagRKGu9MXpuaMD/BmfkzmzlYgisLkSMYybFsJia+fpW6fMkCVkfScJLgw/G1ncmqoV6FtYWR3VpA2MevNKwNSle8bbaLEg+wZkBzj8gt4RInLF7mtB9g5nKA6ciNFqAzmsphL2rZFAj2zUUuTqvW3CyImbW6kiqf6mMuwEEjkgZfNLRI65y6aMENDK1Ok2wH3iM2J/BqmoJoDG/suaoFSLQwK3aDu7o4IgpXohznkhUEDAKm5PDSALz1i8uExd2uAo8dnoeYhjObWtaJhcjlg+5CWuSVm9o8Y+qZkRMCAe0UsPROkqKq4XSmgQnUGJjnpfaS90fh4pHDYaFgTNNuHyE4wLg+MvHSbywjv2bGCoSBPto8I60/CT/bsBrdTTRQzEPazj30+eiADf6nuhju7S4Ta4nlRdOWHRsbHHLXL6CrgnjlNOvtJnkJIpyr/i4AAW7EItZwkRPjjd8yTsGVPVaS93qQQlYE+9LnLtc7OybwFkDgkWEF2Pa8jOFwQJ94ssZBLUnWNLsXVO+nD/OPjnbzvoXnKMyN/1/7uubtkTHNRcGoo1eMsYkR2vEtn7eqvRna77EIGhXGKx2mFPZ6/j3BKev3CgDg1AWdb9E6yBMRiZS236tuuI9FtvzowTDgsR7bgzIPgd03V9JQVmkRdMzmFk4nB1YnA4y1nySvCCzxSnO9AyfIY0JoLlZZ5Z9G+osU9KUwI1wqWG0Z3ZYfPhhK84UUoWAU867YeQFBg11F3OVYM0QOQc9d6pC+T38Gd48Hj0z75pmx+bB++TZhDG8sRF0/AE6ZqP26TGv2cLKw4WPKUjFzwtcvbjIsffbd315YwcIODpK4j7HWsvn3uTdJxS4bFjfNVbn86avBOFqO/Cam9Ljaw0J0zSaKvCdcGE0pa3Pimv2CRIwGQQonJB9i0MkygIGOQ7di8X7IvUcSbBLG3eC3awjKat4WE6DZHXY3uJPHikyOV7iGzZzur/M1n3HOsJYcgR+IfcIrLDlTZRZoLuTYjvSkRb0wYBy8SUVU8RWetMkef0+WPPw2FAeFJ3ToNiIKwJnHbW/f3QHvECmjpsJmzE1V1Ts/3qh8mRYgJ4OC2sxf1usoZU3l+51gLBw2lqX+OaqellwS4tkkI/S15ymAgmFycpTemUBx7UTqtYLXMURkUxUSBt75nUDD+bB48xYIwtwptEBFN7deYj9lpgUDh+mVIQRlUlddaSMlpruXhxzYEzLOxoTRufi9GPN+rvHDtdf59uhhlDFvKw0wZngQgWG28cHXTDLaV72HGagrpPhCUbUr3DKK9VdTOLC8q8peuwXIdM4bQTKWaWdZB9i8IGy0SEpsoH8iWXUMD24Uy9+K7df6e8oKFpMN2nq8gdB4vcsJ/Irp2tNh5nqql7TgkPwrP3RSKnPKCO0bTkPaNaocw3cOaIwt81zgJZY3U9MBGOSUXB+uN6MFL3mJ4WJIuDvR3RzZqJwnqbpPqRwFV0nyeKPPh1G4yA+Oa9UKrFPSpX7ADhjqaNg34WBHYa/SxNmg7S8FwYapBypem4SeXyNBoVGjPWytaIRaEGivuSdpkEDhT1ngFsPvveaDNBiRy/pCI7ENa8L4zS3iquc0V0SSFR60Z6NI67dWFjsILnC0OFwL92pC46/TMWNyknvGa851wRhlKgwYFRQnGGEs98/TL+bscBskSssbioSgBZJKJMtW5v2YjXW1k35pjSkMlqDxCcaYO9JPtFlIy+kaQpBmlmYrGXiIZc4EwRxKAkrZyZOWd2uM9bttW9Zl+R21RoH6Z7DM8kNbdN3X8yuTeMEjn7Mcsi19JtQ8/xBTxvNzwv0unvIhtfYJNBglMVyY7hdHAgHKN/c2XLcFhW078bF0QjODtM1xt2DfvFF/1NjOi9bLjt90THKTvZc/34gGIaoDFwLOKCF3w2poHhJKThVOf8EVwAamUoBSCKmAu6Qd3rThceUkoRlk6oV56kQpAHNC1jnCn01/v4SY7ynwCEMofEMHaPZp2mRGeHVax8JO6hRcCf+4RuLm9Y9IYaa2ZqcjANQndlfdj339BmZcZNF0gLFj4GJ85hYfYuAt9xygVlIKwFJhYkdbIDtYJEXziptZahtIXyi2CyUBRsQa6ATqGQ2mfsHZs5c7ZzjQdLq7mKqN2b6iSMmZZ9IQHuPRm6JyZZBC8lk+7kCftKt9VFzt/JTn/881YiG7aySCZ/1sT2VlOg6+jpaEo3oDn4/Exb2b1z03svfXcddZ+nPCQKWec7xtnUETLf9G0RPPvLA2rzskMNaD49vrf1aKUhbuOgzwItGxe8IMNOxipu6kkxzD1gOxmQ/e//wcXHEBHG5xCDe8fnrrcGhBkeDm9wHr0w3BiP8pUODzSjbCifCDcdAA9krzbmaeXyKPMFITt+hshjr+YuAeI99VDDc1wvkS6rxXuqUdhAicpkZrpGUkOscT4jdVfXqwdNiogIMs8hp9DRsX/kphZNKBf8Lhb9nfq74xod8KY5aMD7Cpy0YT3wzI1WUc2GQ2qW5zEJoko03ATThGhsxNbWmrnlPfPecarZX6IfmegVUcVS53njLPPzn9P1TVQOAdtUJJl1TtAgaNQvdLNHmCOSidhh00h9R+1eFJrIZuqmzz1lg8fO8j58H60c7KPsMxuuYc8ea4y1+Kt+UcIQ5+zxnOzY0TLNtXCrMmUgus8xAjJJYPPM0dtBUy9HzBPgawr6KNCNr2VLQKI/m/XAWr95jJWYErVmSAZri4ZTHBr6HJoS8aXA73tU9Q0B42hJbdvl7fO2XzEdcT+HuMYoEK2meJ+i9vsm5Ff/xxB+on5BVOUHvchsAAgvtw3FQ+0PXh8RrWg0i9c3UG+bE8TSEH1s2jQqckIZhiQO3g8HKhzdU6SnCvt8j7tng2LREJXLJzKDkaPUZJdO1oAS5w2nyXc/2wmkY9WjxrsNQzPSH7cQabOcb3ROerAGaJ5lk3vwZWvkIaLTVKkXTjB12Yy4YqMkJc36qsUmR0rLiOwiQqPik2ACvRykaouFn0mUjmt7ydBs/0YT1xe4tpSqsZ9hhxDZ+W643D96VAgWXDzM7GlTwjqAe8m/ZVoTafblFnOHvjnAzjMxhswK5RBkkDMOr77O+uPZDPawWhPX1FLfOMqGIsTtw3x29jyCSSfrvpc0RjIK/44gGr1aBMuC0pJcoAk4ZIkxiX30OpfzYCzuHydfs88HJTEB6NSNW4vs0EHXu665NJhDXFPzh3c/4FGr/cvnAgVQJM4JV0S6uXF4IRglFyTFg0Fnw6RpAoMbjWgxHmfTNS3aUeplxqsjah135DpgbDZsaRFrDE6hzX0r6CaFCMCzzZX2ZsGtqUKWRkmENQ0G5YbMAAZn2udzerTbrCty0IbpTA5wnACeM8oFKIEikoOgy7dBmTIC6pJZr9hbRkQS/Sln1KccMF2IaNczb8xZpsG0EOxAV3Xmix07yP71gDouV42wBvBCINrNHsg4vrYrmu1qCswzp87S8EZddzFNmThM2GKcCup/a/mwoHoAwdhGxTUnPnI8Ot8TlcVJo/eJ/amWxDVZ4YEjbUpHFLQGmXBE5il97HMXAsE2qhcI/LGXxvUvBaANKQU5obdIX7225d5fsZkE97AHBIDDkKHYtYvIJiqw01pvc/0+cHbnBQN/54uWQiuF3muJHNDdLrRTGmwQjKO7WjeIaLkGdczX7yvSQx+KUlMZeHMX6u8hW8HvZKOfTx+0JdRokKbk5MV9u1rkuthNnEhQpvRDBcEHutmxiWCk2LhIQ3GELRsqjZJ9EfAVELR8TqJMiJxolgZP+qJdTVyT9nKctCDCSSSV0jtmwRYLTu9RPe3Qk3wEYLXBnnPUHXbiazjtTlBm87XNvhWbuaIn5cGJdnRzPhHrKESxjtgk23iZx/pnM0VQX8wBW+r8FAsHcpCiZrPP5/c6lSPIhuDY0oRKhv6i3eye1YK4pqfp2LvsOQ3GfVKCxRfrbLt1dZ/vFj/5Ix+4PsF0MXQkDYToCQKDBOQYL0xWhmebAFrGcS3zM866ZFDDv3RdDlSnN5wdxKHopXq1/7Ym9tPK/s0hrp3qAy+ZMp2T7zODHY1unba1fqmXWUpKhYeASA1Ra0pQKPOhQRXnCLFLeoyxgEvqwij12WMDJRXOwqNzn0gNAoGJIl1aiHTU34Wgr1TGg2zNaQ9aBDBai4nTcu0+XhLiOOWCzZgoL2M+oxElhMtAXX+Uh9VayYtT37Avk60fow7y5irO0jh4pBKgIZiUg4NAGRLQL0egjv2OsXulliKhJ5jfTv8IeoIabHQLDsg6Kqbp1Wqlvy9pgljaUMaD3uj/6JzNxYwT5tRJsuRpnmPRkOKa6CnpPqLASQX9YbDpROLxuKLw7ylxeHlGflM2uJHMiiQiUsheQZqFkT8c8ML7D0PE6qYDrC7MBWBh4E0PeV3kj/easQmX3RA1H6DeLFHBpIkGjuOUDmvviNutqTi8Btnk9+km8q9dLbPlOI5TKDgRZMz/OUQd+FD2H4ed8uW/bm3DIdLMTjekuKZR5SQVUzTv5aoJCqB7+OkTbMxMFLwxhq8zA5q66KYg7XD29taoU4gQRsQ/rSLw1AetZjncIEON0IU7ixzSQ/+7BtPCzQnNF/940uZ8RqNm1LJfsaeN5/GomeOUD0o2Bj5nh1eE1yE2kojaVXtZdNCDB47jFEJQpnLWYyJPTsq+mIWA6aEbWx9ZsWUwSZQY/K9N6IRlZjI1P7mmXVBmgVfDGDjSGUnw90hz5JqDjABGpG2mGwRHsBa6SfD3u65uhf/ROmQme9AB++7n2RecvCBCxmhAmqmiDZY0W+zYwdJlLqwdp7xQV0ytJ/Pkw+uNoAKNiA9MmNP5dRzHaQoi1WTEENhhsDkdVhbpvXZ6s63DxM65rnfo6uVQE4QTp4AxhSNaxwx0AP+1r8juXZJPDGIjQIjx89gTiGLT/R6GLlhEOuUFzGyms7+YCAwCnTPv+R3RySGUpOAAEF33Bpj84JoxoosMBl3fYRhDhFNF44VHyxyn/GCXKQOhhjU8pQqBzQxo+h4IYLiz6zhOPtC4iF5in482GK+kOiw4v6LQyWf50JCRa2CyBpHgvbua1xIVUNRGc/ogpzQ1NZoFY0/pyEb6d1eNjI3jplFewJzkXTpbwXwpYo2Z1rxnUhjhTYbmw1vG2Klm+dSRNzqUAz2noppu7+hIIpwuFt2quvh8I3ecysBa27KdBTXC0wMIInCq2qCxdhCV4zhOU6CDmIjCnHkGKISh2oAS3S3alq+Xo2HFNTC2CuHLfNjoKBjEK1/5ais2AKIt34UiLtxATjI8chP9Pa3TaYpD6HP+PqdHRUU/teSc8FbKWK9GgEXHtaKUhk07nAHASeK41030uZg3hfvlOE7+sNExwrVTi+wLWX5RZ5jULhN9og3djuM4UZj8RVb6/pdtJGcAmX1GazLut5xDIBpaXAMlGsw4jI6x44RJUgoh3ZUIf4ebx8iZYE4ywnd93SAOU2HNSYZNRb8LgfIP5i53X2POEhAK9pkvmev48kaHubrMFmY0T/jgCq4lniyLjk3eg9aOU3nIzh3fS6RVqIcFG0vN9d3jbE5vtPTOcRwngMz0hBkit44VeePj7ItZgkNy0jwwJo6GF9cchkJ6gOHp4UNYmNH4eR6j9YAZihM/EHlMjT5D2Rnngkd0gApgRvjle0R4vuBp0UB5fG/zwMLvG5F/wyiRe1+a88Qzx0YaEv16eKIdwx6Go+SJWnPca6kH8jiOUxw4uduuK3J0T9sIA+iLmaIb5TXPmmMcPnDGcRwHsAsciDdozJwT3JgOsk17ke3VvlD6W04asqExykIqfjlznoL34BQvotadW9gM6Vx1t4x54UZy6g/1u9BChfpBG1kEtFwnVCL+iLoj3F/X981IuQBqiN/5XGTZRW2MlTc4GghrTobMHHP+2exNrJQGnbi5nQjH8+A4TvNByR69Dz/9aqNHg5GplHAxs5YDr1bTP1+R3hN3hB3HUTJ67FPTYxxzHi4hYygF09aO2NTOGim33XBxrWDISTkijsPpRupvqW1OOuqb2l3KL0g93P6i1fgsvYgd6Xmgiutw1KUcIJpXW8r+n6kn4boi3hcCmw58NqlijyuvFziFEWF93UiRKTNnPwqZhUYWgFFgi81fvhosx3HyZ8H5RFZX+/b9zxbACAQ2Gyjld4hsGsRXXsIzTY7T6BCxDjJb9FMRTAvgBGi0HBPbCJpWIuDo4lohMo1xfn6aibBg2gbzo/uop8M4tji+U6P/6CsiV4ywJkKEbD/SmZtZxLgSIo0mSX4XEWw2oGAWLB+BTtm3VXQDIjw6H7sRINL19mc2SeXm0ZahCAtrjnU/Tu8XM60ZqejC2nGqA5YiR0pzTDK2OCywWcPMv/5ARTajThHYjR5AcJxGhQzX6OmqxZ4ReUg12RchYc25Jozbo8yMOfqVshMurrNQCjBdRRgzEQPxxfQPygU6qgCLii5G33H4yIVPi0z60MQtjZFBHXQlU5U0Y9L8gxMwQ0U+DgIgsPHeOFqYmc5E4on0NMp4Oerfx75jJ7/dpZ4skfygFATPtUdra5yivtOFteNUH6xJmotbL2cZRqb7BKle7DQRbAIIbK7LqW2jDM+XseM0BkH1wEMTTVgPeX32UhBqrHfrInKkCusuLcyGVAoX11kQW4ixoVNnNQIS9SQqwrG74a5S0pLMTbxgsHlLNDAyGeSEza05shIphyiI+zV1AyKKTfSaSDrvE4HNw4bAJoLLa2xCRLHrdRNCQLPhUqrDaMJhUyyFzLUAPNnt1xM5VoU1DaeLMRnEd2THqUpYm4jmtZa3AAIHaPEF2DMydJNnqvD+wuw09s2j2I5T3+BQj5kmcuUIK82doJosyGwR3CRbz1klh/YQab9i5XWZi+ssGHC8Gk4HY1RbMPsYoU2TW1A/jac0U405XtIjr5hx5+QwItZ92oks0IzNcLx/Jl20W0GdAhWQbDbBsd48dER9iLLzxeciWovzUC/CkntBdPoB9WKvf17kvgnWpBquo2eDPlgX2yG66PBkifq7rnac6gYbha3ihEYCCJhnSkIoF8FW08SNQ816JwPJa0StENu+vh2nfkDLjHtX5KZRIgNHigx9XeTD0InVBBp7rmlZaaLWiOzmaHp2cR2Cm/KuClLmVSPUgCbF9iuZEMPAI1ZvHmMTJ4gIc9AMx2Tv1jn5iPRKQu047wmBTa3ib/rAva+imhQqDx/j56hdfFUF9vgZ9me877hTKmsFNlhGIXJfGEP4oIrr8e/ZZw3q55fRjbbfelYPv1NHc0IqmSJyHKc0sE+I5Ra6WdKEjJ37Vu0zWSmyVdg4Ah80LDPjlhI/Svsoh6OhyXGc2gUt9uhrIlc/az1Ug1VUo2WY7AZ/UO1D9p5o9eHZ80Was9zTxXUIyjsQo8M4Ejsb8UWQEt0keo33QzSUOmtq/WhgZCoIaYekpsfm4H9RHn3QOqws0mZ523xIpbIB8RkRnkR62JhwHsp5UlG5wZMdPc1KQPh/PlvgHLGxbtXOaq726WpH3tMk5ceaO05twibKum67gtk3mhmx19ReYuewB/Sd0LzM95TsLa9C3HGc2oUMNNO+mF9NhpoyXiCgSDaL/Z1Sz+3WM5Hd3MEzF9cRiF6/9J7INBWeQZqBmaqc3Efd8jmPm7dE+ccunURO7C2y6lIqTO2vVhXUGDHrGuFM5J3GTBwFmhzxAmGVJS11wszsWgWngM101NtW0oOTRIPnLp1t9M6e61stPDNxm6Me3nGcdGHNY4MR1tRTYt8IIlAv8rmKbAQ2f44zvaU61/RZOI5Tu7Cvk5EaMiX7vYrqDXVfP7yHza5mlC6nu5KlqoZA4Vy/D/xfn5ejMCvxn0NEBjxqBhq4Twg1RCkng82tLxDJPqffnCckVivc5B/V0/voa/P6OJhhgjoRpE1O61vbkR0+G0ecUqqDuEZIM+WF0g8yCuU84tRxnOaHCDXRaxq5adx+WTdhMnMbt7JTVwkqOI5T2zCcoP8jIhusIdJdHWci1JyuXY3ZaBfXMVBacMDNZqSDmt2F1ThTakBZBVGSv6uw3mTN2oyEUhbynW5EwfHfRH9qPaJL3TUlLjhHHOTD/fLSD8dpPLDRHKj1tdo47AAOttsCx6l96KGgL46yMBqW561i3eLiOgZE53F3i9w1ziIiAaQaiIb+Ywcb5eYRUcdxHMdxHCdMDRQ0VB5SDJQWRKMd1O0x3oXz6V1YO47jOI7jOFFcXMeAqKYhbqmFsi9kId1I5JpJHI7jOI7jOI4TxcV1DBy+wsiXL3/IvpAFcR0+Ht1xHMdxHMdxwri4jkC99UVDRJ6aLPJzdlpIAA2NI9+yiRuO4ziO4ziOE8XFdQgmTnCc5u0v2jQNxjeFS0NobuRUQ07/cxzHcRzHcZwoLq6zIJzvfknk8uFWDsIIlWM3Ezl3R/vzAE4FGjPdZkY7juM4juM4ThgX1wqzrIdOETl/sMgn39j3+3SzySCbtRHpvGr2LyrUW4+ZZoeVOI7jOI7jOE4YF9cKTYrnPmknenHk+RZri5yxtR0dzrHgXdfI/kWFCPfkmSKjVGAHB8w4juM4juM4DjS8uOa0HyLWL71nUem1lxc5c1uRlsvoxZnL5ln3XDP7l7NQmz32HZFv/5N9wXEcx3Ecx3GUhhbXTAa5eIjIk5OtlpoGxqM3E+m0qsjcoSvD9+uvlv1G+c+vIsOnWqTbcRzHcRzHcQIaVlwjpq8dKXLHOJFvfrSjzWlg3LuryALzZv9SlpUWF+m6evYbhXKQz78Vee6t2Y9HdxzHcRzHcRqbhhTXlH/cO17kqhEqkr+z8o99u4kc3VNksZjTF+ebR6RHa/t7AT/9KjLuXZEvvs++4DiO4ziO4zQ8DSeuiTQzGeTiYXYYDBFrGhj/tIXICovZ91F4qeMqs5eGUHf97Jsib3ySfcFxHMdxHMdpeBpKXDMJhENgENZTZ9r3qy8tcvDGIi2Xnb3OOgqlId1DU0Pg+/+IPDPVarAdx3Ecx3Ecp2HENUL6rU9ErnhGZOx0E8RLLihyXC+RLduKLDBP9i8mwNSQjVqJzDN39gXlx19sysjMf2dfcBzHcRzHcRqahhDXNCDO/FrkuudFnpwk8u1PIvOqSN65k8iOHUQWjamzjkJpSJvlRNqtYN8DAh1x/cK7PvPacRzHcRzHaRBx/dUPIre/YMeb08AIHVcV2adrcp11FP4Oh8qstnT2hSzf/2yNjT7z2nEcx3Ecx6l7cf2dit6HXxG5cZTIB9kjy4la92lnB8aEyzyagn+32ALZb7JQd01j49SPPXrtOI7jOI7T6NS1uGaW9bCpNs962mfZF5WVlhBZb2WRhfIoBwmDeKZ2OwzTR975XOSpSRbFdhzHcRzHcRqXuhTX6F/qqhm5RwPjK++L/Bo67OXX30R+1q9CIs2I6k++sdrtKN/o73pqssiEGfazHcdxHMdxnMZk7gHbyYDsf9cFHBDz/lcij70mctlwkTHZySBh+J5a6+UXFVlkfiv3SKq7Rn9/9q3IlI9Fbh4j8uDEOQU0wvvrH+2kx+X05y48n00fyaeW23Ecx3Ecx6kf5vp9YEY/1g3vfSly5QiRQSqEP/0m+2IMC84r0nstkVP7inRuYQI7jp9ViF/9rMj1z4tM+ij7YgLUb9Mo+ZctRfp1yD0323Ecx3Ecx6k/6k5cc2LiLSqsX34/+0IOWi4jcuSmNmIvSQhTR33JUJFR07IvNMFyi4rs21Wklwp3x3Ecx3Ecp7GoO3HtOI7jOI7jOM2FFy44juM4juM4Tkq4uHYcx3Ecx3GclHBx7TiO4ziO4zgp4eLacRzHcRzHcVLCxbXjOI7jOI7jpISLa8dxHMdxHMdJBZH/B5aJstcsgWhqAAAAAElFTkSuQmCC;" vertex="1" parent="1">
          <mxGeometry x="500" y="-79.86" width="167" height="29.86" as="geometry" />
        </mxCell>
        <mxCell id="vPh5yiBVEbnupIEMpU4R-125" value="" style="shape=image;verticalLabelPosition=bottom;labelBackgroundColor=default;verticalAlign=top;aspect=fixed;imageAspect=0;image=data:image/png,iVBORw0KGgoAAAANSUhEUgAAAs0AAACECAYAAABrhxYMAAAAAXNSR0IArs4c6QAAAARnQU1BAACxjwv8YQUAAAAJcEhZcwAADsMAAA7DAcdvqGQAAFY8SURBVHhe7Z0HmBXl9f+PMcZeY8OCigoioCCiiIrYwN5rEkuMiSWJsfcoxl6i0cRCisZurNiwoBQbRWmigCgiKhYkGqNGjX/j/3zuufNjdvadrbfM3Hs+z7MPsMDu3rkz53xPfRf6boh8J47jOI7jOI7jpPK94q+O4ziO4ziO46TgotlxHMdxHMdxmsFFs+M4juM4juM0g4tmx3Ecx3Ecx2kGF82O4ziO4ziO0wwumh3HcRzHcRynGVw0O47jOI7jOE4zuGh2HMdxHMdxnGZw0ew4juM4juM4zeCi2XEcx3Ecx3GawUWz4ziO4ziO4zSDi2bHcRzHcRzHaQYXzY7jOI7jOI7TDC6aHcdxHMdxHKcZFvpuiHxX/H2u+U5fxedfi8z6SGT6ByIzPxR5+2ORd/Tjv98W/5HSYRmRVZcVWWlpkc4ri3RZVWR9/XWxRYr/wPk/vv2fXccXZol8+Y3IkVvl/zr9P31N908UmfeZyGbriPRYTWTxHxT/0nGcBmBX3/lE5Hm1AbPmiRw7QGSFJYt/6Tht5Mv/mm95cY75lD03Fll6seJf5pRvVGc887rI+Nki/dcX6dlRZMka8y28xpvH2Ps3oItIV9VP31+4+JcZYIZqvz8/KzLx7eInAvRVv//zrUXWWVHkewsVP9kKci+av/5/Iq+8JzJsqt2wH/xbxfNXJqB5YxF7/4u9Qh7QRb8v8gP9WGpRkS06iVy4l8haK+jFaMMFrEUQlI+9IvLQFJE3NAj55D8ia+v1uekwkXU1wMgzvLbT7hcZ9ZrIEmrQ1l1JZJceIjt3F1lzOX2IvPbiOPJvtaEjZ4gMVRvw8rsiH38h8h+1p0OPNZvpOK2FJMy7/xJ5XH3LE9NEXlfR/K8vVVyuKXLFfiJdVin+w5zyL/WT5w8TuW2syIpLmSjbsav6FvUv66mfaYtAyxrv6ft35K0iU94R+aG+xs76nhHwDNxQZOWlq6+hXnxL5IwHRJ5W25XGwX1EfreHaZm2/Li5Fc1kDF+ZK3LHeLtAZJW5afl8azhgU5GrDxRZZZm2XcBaoZBR0mt4x4sWgMz+p8hHKjAJSmDZxUX+dLDITza3P+cVxPLRt6vBnmfBFMHTikvqhz7wO3cTOXQLkQ3UELh4duoRnvkHVSjfO9EygfP+LfKFimXAIZ6vzubUQSKLZCi75GQbspNvqL3lniIZM0f9zD8/X+BbunYQGbybyL6biCycU7uLLyF59/NbRMarcAOekR+qb1ljeZH+nUUOUq3Rq6PI93PsWx55WTXAjSKfarADJCARy+gnxPOPVB+s88PqiWds1sn3ijysP2caJ2yv/2agyGrLFT/RSnIpmufrA8cDePs4u1H/rW9gPJvcGs7aRSOTnWuvjNIaPtVg4x8vidysETLR/8f6Z7ICEUTIZANO2EEfis3yGzETGJDh+P1wkWdfX2C0I5ZbQmRVffj37aXCehszdo5TD3z1jQmaG54ReVVtKhUZxE6ctdUZHqPPxXHbZaNNC7t/l9qt+9QXIMKyBC1fu3TXa6UOul59C/aW++iuF0VuU189e75lluO+heu0+doiv9pWZA8VXXkNxnhNE94WOe9hkZEzrcodgb+k9WQtfX7IyP60n7U15K2yjcaitfGSJ/S1zil+sgivhbatjuozD9Tg4PAtVUirmK40b+o9dtI9IkMnFz8R4OK9RX6xddvbzHInmt/6p/Ws3K3Gkuxy3LB3X11kP41WKR9SHuFm/UiNKVEHJRPaDJLceoRlm39Qh5mTb/WdH60P+PWjrG8ZA5fM1O+qhp/sKxHySnpNl1VhmVPNXOCzr+yemPa+BgpqzBEKBAkY+Ijl9TVSdjptJ339Perz3nDqA+77qXNFrhst8qQGlHM/aTgDAtjTw9XRb7meZZXInmUhcMYXnDVUfcEEtVuJn7naYENO3FHk1IFWzao3EI34Fu6rcbM1qPmioVhebnGRHVVA4ntJyOBbllFhmTchGYH74DXTHkq28wEVbUMnmU+NiMRzt9VMtJGcWSpnfdxkmHlNL6vNuHWMyPDp1rYVwfuH9uql7ynZ3AGdKxsIvav26/xHrQOBFt0kqy2ron8fkb259osWP9lKFh68uwwu/j7zzFEj+aeRFrVycaKHcNFFVCz3FvntLhatMty3ukY8HfQCdVxBH8o17I2d9kHD7CI9R0R9/Ju8Zk/bCjf/kGcsMn5Jo0YCini2frsNRC7Vm+vo/iKbqGCm/EJ2Ke+XiXISDo2s2VYqAnid/9V7gnaN6H4i64bxIxtNubqH3j9tfcAcJ6twn5OlPfcRkafV+eEM48IGMXPubub8EM6rL2dZ06wIG2YSNl1bZJduVhWa+y9r0csCVK0O7SvSXQVSXoVgWyAIIylBxeLix0UmvmMVgSgpgR0dpO/XubuL/Gwr880EYgXfkuPrxI+OOMS3dFTfwrDZdl3sc4hoAlEuAfrjffUtk/W6vPep+SGC0Ly8dt4nft5OK5kg3lZfI88c/jMCrcXw8JhZ1tpF+w3PaiVgho2+5qnv2e+ToPXQiPSYt3WAMTeimZaMW8aaYCYbEhd4u21khn0zNaBEcvRFRfcgv+dzZEjJpvJARw/wxvrA/nhzvdFzdNOWAoKPwSqWb3y+cbaeEtKZGnycubNIbxXLNPtnaTq2VET3Bc526/VVGK9u5UOEA7cH9whZafrm+SA7QODgOLUAg31XjxC58imrusQdDBk/2jAu2NN6MbnvCTazZiJ5hhGnOMLea1m2EueNr6gmJGAIMH62Zdv7JvMIPpntVedpEIZvYWgsqgDwXrGlin54MvBkIimP16pvIThYQ997NjRRpX1fBTK+FrhOJK3Y8vWafnTQf4ffzZMGoS97mcUtQNhGbQSJSoID7AoQfJOIo32WitAG+vdkoMsNQQmtI5M0KIlmMeIg4NGLa7YjUZqL9owvvrbetaufNgMfz4b0W1fkt7ta1NNUnx3R7jlFoYgYArLMl+1rwrBeNDOl2N+pUXtquj64eh2iAALIup6j15KHHEFZL9cEEA089Bc/Zv3y8XuM+wqnfMneIlvq/VZPAZZTe5CRvfRxkXv0PmfQL56A2EiDR4Lm7dUWIGryVIF7TZ/fs4daO15yXiFiz54ix29vgqYtfKVfl20irN2inSUE9mLQhjY4XS9zEdhLsntnPSAyambDkj1Zxh30fkIsY0ezVK0oNzxaVHRYhXb9aGsTjQeoBKNck9N3EtmpWz57unmNaLQp+lxcOMxaHiN4n9ESZKTpBKBqXc73npaMa0eJ/HGE2bkk+2xiw8zt6SnPfKYZgz7mTZHr9ELQRhAXM2RA6A1iXRhRT1PQV0Zf1YgZCyIQ+p/Zp1gvPasI5jPVqSCYCRxivrIQQFy0l2XfMXJ1YtP+D4wVmSr6NnmY6MOLAgr6vD/41AakaOmp5nSw47QH2tou0sCQwd941Q1w2pfua5kjtuXk7R6nYsYw1vT300XzXiqaKc+SaSIoaO0HNoJ5B4Jnsod8ryQMt23f1a4noqjWKQhm9S2n3GeCGZEYwX3ETMw5u1k1b/Gct2G0Fl5qwbcsba0oXA+yr1FQwbWjFZAKCf+GFahkqvMErxF9RTts30727MX3JNP+iN1562PznwSs5boHvtHriU5kgwlrM5PQZkZCgO6CtpJ50cxeR6L6x19tnG7fRgUvD2SnFiyp5k2iPMRAC5mGE3cw51AvUW8kmEe+pg+sRmNxwcymCLaIcEPXYrmspXAPLb2oSJ+1zQjw4PPAA8EbWTlKamTjKLvWk/F38k8kmO+ZYAmEuGBGSJKB4UCGpip2WQb/8NwbZuviwi0CwXZgH8t2tVXM8sxjIxE/rKUkq5bcMoINYX1aPVSlsIuIQNZ8cU5CfIiUa0SLyikDrf0gz6vW2gu+hcQeu6hpFaXl77PioBrX8MPPrG2SYA4/nKcKTwRin55uKtVRIBU9G/xKuw7ZX1ody7nT+c2P7IAZbFwSEqzMMrVnRinTtzEZPpq6eRiTmy+4AbdS0by23mAtjczIABANUTLjo9CCUONGDdi/fNVTNthGGSUumDFqp6lRoy8wbxFuOeB+4ME/aUdbsRcHh4CQPuEey2g5Tl5g1ddfnrWp/qRgJiNKixvbh2q56kYWb131F6XI/mIr+6xlcx9J+PokaGrdt3ALIYIuGmY+Oh484FvZ6Y8Npb87jyKw1HANqI7/eDO7LpwNEEHvN1rnQg1qqYbHW6byBK+R95tA6QjVFhG8HLQHr+3ch63NthxwmxHMhp49kgH0Vbf3+c+0TOKB5CKzOzhu5AEDSMaPoRUnHSZbWfvDUnL6uuOw7oeBv/Y0xdcq3FfHbSvy09iDD2SeEc4EIfF1Qo6TVb7+RuSOcTZI/eG/G9rSrdezDRnY0jz2U8ahgkbLBM45xJrLm2gpRXIAp8wQIlsE4nAN+Vw99DLjT6540nbixgUz7X379LKVnQioekhMtRSuBVlWfO/hfa36EUGSkCE2VuoyX5NX0BIkJ3+t/pOKS0QknEne/e35BUODpYRqBusM49c1gp+Jj0VqVTST3mfggugrGtyLQ5mDtox66BlrK+xhvn+SyJ0viswnu1T8PNBfdtTWatw9w5zKChqVMhhJJi4Opd9Hp9papfgSe8fJGgjk0eqkWC/J9H5cMK+qDoRsUCHDXAN2lB5GHHGyXSKCLQUI3VLZO8Th6noN4+C011KbijCqZfDPnJXAfRVvyeDasinhyK3K27uaZ7gmrMQlIcNgWhx8y/NviNxaDHDzCvcBbSZsS2FuLALzw7kIkS4JtVG1B64tz2AoCUgFmb7x9lbTSmQ+Sg/GD8HMCS9xsQf0SjGwxgVw0qGvh6iVFX1xZ0kf92+2F9l8ndoux7YXnjsc4EkDG2eOCORuGSMy4rWG19ZxsgT2Exvw+keNS75H9LPDe5ZsR39flqAFpakglp24pTydD8ectAsEHxt0sPaEWoZq22VPNh64pEKHb2EgzAVzOgvrtaFaflhfW0sXh/7mh162gf1opiaPUHUpHOTS3wL0CPwlXQSc6BwfuC8VJFJDs1m0ZkSzCO0hs6KZ5dg8mKHjUSmzsRew1g1Te6BvkVNxWMOUPOWPg2DInlZq4XiewfBvva5taYmDAGGw6q/PibytvzpO1mC11QOTRMa+2VhMsl6SEjEbIWpB22DjGDQKTcwDgpkMKHMtpQLbsFJidztCgb7pWsjcp8GqUrZZsZM5Dj2jlON336i+h/5aCuJuk7VEDu7TsL8ZEUl7BhtuGLLMM2gMtlUcoJojDj3cbJ5Bo3DYSylBF4baMziUhaCOgKU9ZPLWprz2xjwTzqEghM0FHdRY5b0Hr1wg6J58VWTY1MYnZNHWwsYRsvSeCWgZP9AHkENwmLqNQ5aFFUt3vdiwROk4WYBKE04pua+UvfSH9LVMV620ZkVrrdJE88rqL/AbpRSzmM9k4oHK3XorF/9Qozwyxfrj4xlCsu6U42n3oQzutIwV9Frt0FWkf8K3cD9TaWfneDl6fysFzwhi9UAN0NlHHYfKELvOaXVMa6lqC2SSQ+0ZzDOUoqqWSZOJ4SNDym7cEGx6wAiGLoyjAcdH6ixVyHFMZxKW+7Mv0tsyWg63GffcQX3sz3Fo06C3j/57x8kKDKlyRDancSXhoAn6DEvZqlBtGEpDNHO4QQjaKBAo7c0yJfm+fr1ofRWCfOM1a7ufmfuJQzqSrT6LkmXuFd4m4qRD4ooWQE6po885DvubWWmIeM7rNg0guUmVZ5fuxU/EYHCXalgpBx8J2kLiGNFcikpTJkUzmRFaM0LbCehJYZ0PE5JOY4jYnp5up/Mkm+yZkKd05m0trQdny0M/oEvxE0UYiKEqwimC8VOwHKdakAEc96b12ydXddLXx07mVdWB1FKlieEiEi3JylrEeiupM6UVpYSvmSz9jhtq4HyNXvMhIl9fKzLs17aTuBbhvnpwssjzs4qfKELyivaXfXuXNpNfLxB0bba2HbyRBDH5xLR8DwUCbRH4z2T/NtVaEk6cw1HqocA4JL3Y5FKKZGHmRDO9aSz5TpYUIzD2XIBQz4pjfWYPTWn8kOEr+q1nAYe3tbQenC0P3T49Gztesls4EwIVx6k2JBseV0cbsqEMaPVaM78HmKRBljkZIETQQoGoW8J9RruYPd82HiTBnwzU4KFzjbellAv8CXNaHL2eHCzlnmZFG+cC5DnbzGAebUs7dm3sP9EqtGgQ9JYCssysfYy3CbE1h4RBTYrmjz9fsDUjBFOYpe5NqxXoq6XHlgb75NQtPcw05Dd33LiTDg8+A1TJEiTGLCqlMXzlONWCbCBHyOJok1lXMoLsZcaG1lJrG3aPAOHTxB76CA7AItHiPqPtYOPor+XeSkIAhuDzwfK2s9RiIj01mGUVbBKCFU665Nj7PEO2edsutlEjDolSkn0ckJN2/H1rwLRRGY6LcwQ02qe9mzMgU6KZizfxHZGnZ4S3ZgCZZiKGWhlgKSWslhutonl+4Nr1W9d6maux1xpHTtsIgpKsLD3r9ALTzoDDiw+UtAdaJXjoWKDO149/H6Z12/ttEBr0nXHMdpLP9ftQRsvzUnon/5CZwsHSK5hkU71vOdq5PUfIZhEONaE6mSaaV9MggX5Gr7C1He6nR6bqbxJGlC0ZDLIlh7wqBWKeBBE2PrL5+Bh8DXqiRK6l8LXi/iv+ffA77QXfwn2KoEwGtGzCYnfztPdK5yurAc8fFZ/uCdEMZJtZsReawWgtBHEkCaNtGXyQwUc4l2KmoarSkxuAmx5BxQ3/wizbKfrSnOI/CMCKJGCitLkPHqQ8lzRaA9eSPvDJGnR8keitJcDou44GG3ojVTLDxM+EUWEw8eYxIofdpA/MYJFlfyPS8QyRPa8TuW6kRZntmZ7lPWYS91k1LGcOFRnwew2uTrHvs97Z9n0enGLOtb0s9QPrY0yuVMKokhF4RoMWfu841YASJxmbZODMY09bBk6r1sQjzz6VyeSJpxEd1WF6oqV9sLZwFDvpi3+OoPq29foqUvT6VhJsPpoBn3flUyJ7qY1f50yz+V3PFTn0RpH7JojMUzHWHlHL/yXDy4m6v7hNZJML7Hvw0U192aHq015sQq+0BrRNv07683cofiIGYpLTAhHreYXML2J2y/UaP4sku2Z8oNrvrfYHIcy9nb6TyMzzNZC+2j5uO0JkQ72uydaQtlBxM8JDR8M3kQViiRuB7QMn3StyiN7oTFI2tdCbyV1u1h+e2PTHiieJXPBoesa61vhMBeHkdy1YSEIfM/sgK9kHzo1PyfT6USI7XyPy81tF7lEjNudj+3tKx0SWp96vxuh2aytpy9o2xParGoGffI/IPterAR1uQVc0lEd/50g19vxaigCK8k43ffjI3Cfhe/K96+Wec7IFdnPqXHXygQFqyr9USJaN9fnVCjzbrCclQE9CkoDBvFrLrlcSriuBWNJ+oj8IRqhelEKMtBRsPvf5GQ+I7PpH+3W4+hIyskB/O4PZh98scvZDFki2RYjxPI3RYGH/G0T2G6LCa6zI6/OKf6lwwiYteaVoKQCqwPTi4q+ToJcmvdN4VilvoEE2Xt0C+CRoF+aCCIKzTMVFM0v2uaG3ukxvjt+KbHaxyE9ULP/lWbsJS8XSaiTXX6U0K0byAOVJMvWR4YjDuhfW2lQqw4RRI2r8nQYtZz/YeAl+HP7tc2qQrxlhU7StKT9h1Mgun6bCmxV7aYNAHLdOhq0UPY04YVZKhXrPaAt5Tt+DuGF1nEqBeCRTExLNZFk6qz2sRntWOcFecKhJ2tYM5l94/tsy+IhIxKawupPvwXWtxyoSFTR65JOmmQQCWx/wLZUC/cBWmFPvs6o093waJOcQun8fY+0lrXAthe9z3ySRn91iPiYkugkUaDVgQLwUFDKxGoQgmpOZWPwkfoX2v/ZmYqsJFVqeSWxREqpjBCml1IHloOKimT6g1/WNJzNQTnhTWDNUa04iBMadk4OIsJMPFA8iAo8DDSrRmlE46UcF88WPWSAUyv4kwSBQcWDtTEujTP4P2Q+qCazYa+r4XAaf6IUv1SlVBGIbrRH+evQ2U67jOtQCiBIyABiyWvrAQNeaAKJF4eW54RIuJ6iuoc4qdLxsnsG+kDBIC5jpE11DRV1b/ABC+bC/i3Q8XYXRaSIDrzYBWU8gNCeqPXv1fbMFcfAn9DLTO1oJqOQ9NUPk/EfsUAx8QHMgnGmtoALY0pVmX+u/I7FHMgahmlahxJ0SMJSyNWXpxS3ApaUoCTNLVFVpS8kr6BHWBXPIWqhdiiCIKkKWbfNC3w1pVQDWbhDLtFj8I7C65lv9SehLY6AjeaMiUFgbQpmtJeKP4YRTBlmWoRJisZrwENHXdYNeV7Y4xKG/59qDRfbuVf7pZgQ7RuYiFcy3aoTPdUdg8pCQ5eU9JRvL+xsyeIO6iVy4p8gmHe3hSoPvQ+/2xY9beSxqxUiD0/zO38OyzU193ZbC96fH76c3N84qs+5m754il+9nQj3vIEqOv1vkz88UP1Ej7N9b5LJ9zemV4p6oNjxPPHOX6DORvCexnefuJnLMNhY81xKUqy97QuSmMSqcA1U2jnU+b/fW9zPyjN+iX/PYOxeILQ6Guvlws6n1Aq/9rKFWCUwKGWzdnUfa7v9yQwsEbXYkY0iWILg4b4CKMoEgPxvagaRcMnEEJ+6oHzs0nxXmORqhwvzkey35E/paEfwM9M7ybJWqisvrYJD3nIcsu59kP7VbF6iPRHTmFfz1MPXbXGMC3jgEYIf3EzlDr2tWbVVA65cX9hFetJfIrAsbf4zVaP7o/jbtmITpR/7fy+eE/2/yY8hPLNNc64IZiM6mvZ+SYdKHi+NNy92agSCmBHbTCxqlT7DrThvDISpYhx0nMvN3KnTPFrnqACtphRzYW/Otp6mpHjG+Dxm1vz1vRrQ5wQwIIwxsqcQRr43sFf1nSch4R1l/x6kUCIbX1MmHMq5RObQWW9WoTM3UICEkmHne8RuI3NY8++RrZqmNuX18w+CeNrd6W6tGSwq9tMkkFteTNoJQ/22poWpHkoTK5djZFgSyExrB+uwpGiSeL/LCqSInFEVx6K2mkolAayqDiUCeot/nsidb1gfN98G/ltK38trwm1RIQrz/L6uUJd+PPEHVhxWQaMEkJNTQMh800XZTbSoumptivho+siShEj0DBxj/WlvKXwp4iDiVLiQgcRrlnhzn+eVmf+hlE81fqejlex68mUbMGoVzEiHZACoFO3UTOWDTcGCE+Ce6T2vRoDxIJp0+NbZhREOPvDYi1HVVxGLE4uulyHCzp7WU9w0OgwwH3y8JxozSP7uyW9Of7TjtYZ7ec9N4dgKiOdptX6mZhkrB40WgHhLMED2jDEG2BrKV2BhOvouEE4HyxmvU3jVsjtkqNCmXNxLN+kHlrtxHhvN92Rxx2zgbHEdAM6t03HYiR20thSFP7D9+7kfqb7ZaL2zrmavhI61FA1tNMuaK4SJj9H2PgiXe7w76/BB04lviB2YQhPKzlBoqs7yeUPsfPhLxTwtJXuFZ4jqGRDNBDW1Rs/W9yqr/zIxo5uEgqk1r7Ofh5CN0I9UzGHVEc1qfE84SgVrOjPv/ij/DQ5NtcwTOavuuZtQwOHHI+nCUZmhXI1myGSo20yaEeY1D9XtwKhUPFmDU6Nc8Y2eRESeKTDzbylcYHSATUo4hSKaAaf0JgUHjepRqqtpxmgLfQmWD5yaUSSP7xjqrcgbO1QABVRgCTAmyyWYh7BZrRT8ziYfHXzGRFn9+KRWvHwiSaxlEC8F/yLeQOOCEt3JvJcGWslaOlgWCGfzZQZtaqwxJmDiIMERzB/03SXg+eC20B4Yg0XHdaGsbiOZwyIjSs33NQSITztSPs6zFCXCnHEbSoQwteLS9rKP3LevZkuAj31HfklwrmycKSSfVJJGPTsL7zOatUAtnFsiMGcVAcWOHRDPGHsNPNrE1ZbZ6gAech4gbLQlCmeu2aJmz87wnvDesYWM5O4co/GpAeEIW8cqQA0I3JOR5/3lgkpkN7g9Kc7R+kP0AjsQk+0P/05FbmZOkfIrh5Bx/1trwK8a01MEW92TaKWNk2vkZQ++J45QaxGNTJ+KtrIKPQLacgXM1QODS0hVaswlk2FdR4dFcwIw4JAOJAL9/km38IZsXz3RxMFSak69V2E7U1CAcdrXcpyzy3tFeyJYOfAb90wf1aZyMATLM9K4zSxLSCWSSeUaSGUzuIw5uYd1tJKr5Wv07i1y5v82oUK1AzO6xsfqVjvaxpfqWcvTdck1X1tcQz2pHIO459yDtWc8LXN+06hdBGrNvLWm9rAYLD95dBhd/X1XoyeMkwJEzG18sbp5de9hSbD+qsyE8RA9Mtr6z5H5rjo2kFaKHCtlyGjcMFN8Lw7apRuYbqFge0MVaMtLgoRinIjiZjSVzgRBmwXv0QJFNp8/pulF2j/B/EME99N/9Zns1pGrIKGlF0BrCANBR/c3IEbGXWjBgdymFcwJjyGnz83BkKD9LnsFhkqGhX54ArFY+yCAR5CEm8x6IYy/ZU8upYaFAbTcVGv3Udi5ZY7aTAJujnelXDe14pzWDbCiJBQRx2sdbH9vXGPKsyDVPWwCSFFY7dTdb0pwAryXI4HMoFWvOksKZk9WwrwjZcsJaO55XDueiOtlHf8WfNXUcMr6QnzlZdSGxg4ZAcEf/n3/DwN1Fj6sYpY9ZXyfJmP7ri6g2KlRF4wkXAideNx8sGyiHX8UeUXXHP1KxTEK/8+b6c+U5iON+orWKgfpkAMCtxnu+hdrnZDUhC1R8e0Ya9Bux15eJ5SQMYJy9i8g+vWpzmKU9sILml3eaeEtCDxaDd9ttkK3Ve2R1WC/HhDD9cnHoRz52G5Ffbbvg9EceLnZyMgiCQ0MA4wxPUMFMUBD9u0oSiclf3Crygj74Sbhn/3Zo+BAUxyklCD9s5x3jG5fSee6vVBvwk83DcwR5hrI9B1uwfqzc/OlgtUsD1GEW/1wPsGv/4L/a/vykaCZJ8tQJKmI1+MwSBPd/GiFy7Wh7LuLgMy7fV2TQhqYjeEmsvx38sMhDU6zlATHdu6PIJXvbSYfVCJII2Li3z9Wf61GOLk/Qt5P6zl1FBurryGvLFQk+Wm7YoEGQk4SEE3aLCk/WyMQl5yYha/ChiqMQZOsotZW7FJRHOOIz7XhoTv8iUivFeeulhPeRaJ9oMgkVB9p0IudP5gynSFtGJJgp6yACyDBXQzADl5SqB3s1Q9CLh9h3nHKDUKCdINR7uvry1qJQa7MgiDjsQegwp1JDhp7KVz0JZqCKSTIrKZiB7RXLp9i+aoJNZvA7tBaQI7UR0lFVggohaxqfUP+CYEaA0rfOejqynNWqKpBppn0hraqOj+Rnb2oTSNYhOFliUWt5CYHfnx9o1c0CmTClNHx/oAKjqSFAFojX2iBLeyHY+BjRrAItBKVnBtayVn5G+PKeMqSTbJuglBo5Q+6LF98SuXO8yIwP7e/JRCOY2b2ctpanIujPjVFDkITAMON0GJJ0nHLCcFDaYNASRedba7aTahV2Iu0kwFLCnEZo0r/W4STENPvFIFcWq74Eh/RAk2hL+j2CSzZxsBaU+2fYVJG7XlpwD/H/Th4osmt385vVhEBthZTWBATlx/ozf5NobcwT+H1aMWmZCcF7xPsSCtiqTSZMKUKJ3p2QaCYryVqZvPeGlgN6fTEEyV7mCKJtDFsWezb52dhzjPFNwmsiksbAsVqO05wYduIho7f9kL42XVzN18W35t5MyzQjmqkChHotHaeUkGFOW6VFJochpqxVm9oLA1v4jLTNGVSyaI2i77S5D0rBfdY2H5MM4oGyfrlXq2UR+mpDmplLRAUzLRNabUimEOSEtqawYeZzFWS0nLCFiaomwoy5KYbJmYUJ+aRKw/D+kik/B6KZ9yba8pFHomx6WqaZ1xYlzrJGJkQzIomJ0JBoJpPHaq9yr7bJIwwtYADSbiyuGYYj5AiqDZE8mebQMAMigPuBIR+yATw8PGBsxThwUxvwyUIgQPYuLSPBe4Lwz+JD79QOVJvIMqcFzoWMoN6jWQyc2wPDQxxp/WlKppmhvdt/JjL8+OY/HjvOTvo7uE/YzzDsllWBWC4QkrQBJAciI2iLY2Aui5CQYdVoqEWDsyCYRbllrA2hEWzyjDAvta9+hP5PNYh8S6itCv+IaE4O0ecJzNEi+trSZq14XwiIs9iCUnXRzDPJbl9KbSGBwcNJDyuiyWkI2VdKGGkPDz1ZWS3LkqXlfQ0dNc0BJvdMELnxeVt5xOtgJ+ZP+9kQRFaGGglGaIEJgdPhwXfR7JQTnApONM0GIGzYYlNLohkhh43gI+RUERtUJ1uaMcSe0LN86Ba2RjK+mYG/66Z/V2+tgZT+aftJE81cl6Y2WFQTAh9aLRhWTMLg35+fEfnHS/b6eB3bdRE5ehu7Z7KSYEIsI+BDIh6fwsacbzIoKFsDrzEt00wVHf+JxskaVb/tv9WLwsBUctI1gnVhhUNNMhrVVhOEGTdVWt8PYjOrzhInRD8TPcpJKKGNmGGbQTBiZJbpY95+g2xVHPjZ0jYS8NCTDcvqrkmnNkDUNGUDsJu11pqBUKaszsxACKpXVCfTqkBp0NLBEFk8u7emiuhCZav453oBPZYa8OvFIBjLYgUTuOdp0QglNEjCsJOZewcfxIpUtqKwzq5ag38h+NkQlGl941SX0hYA5AXepzR/TlsjlY4snnxYddHMQRBkmUOtGTyUZCLLsWe3FqAkiyhDoIUg0qYEklWIouk9aypzzOlOtGRQbi3HIvlygZjhfUnRMo5TEmjRKmSdUgQOA0VU6Wop00wGCp+R1ppBBYvNPK3dtkQLBkFw/FKxOhIxXWvtLc3B/UTbZFqmGdudJZGZhHsA3RBqb4jg8K1jVDD365S/SjbvS9p7UwsU/Kd+pEibqlJ1SUVTO6c6hbIGlNcos4ROxnEsGiPiTCthkA1YKMOiGYdOX3PouFCgNWdPFcucALWGGkHHcRpChrmpnuZCplltQC1pPsQcK/aaGgKkilWKlgp23WdhMKzSEPDT9pOmywhIspzI4v1vahaKasQvthbZqZv6oTp8f522U3VJRU8uRw7zgCaJ1pLV2klWjkF0T0YgbTPKJh1VMG9qQx31lulxHCdMtFkn5DMQygTYVNlaazLISrI7Nm5rWDfXVCXMySa8//Snp/XMchz3Xj1trZu7Fqc1VFU0kyWhLSPtEAiiRbIGrF9xag+yYARGob5mQEzzd6XIGDmOk3/wGfiLtH5mqpL0Jbdl9mERFcf4nCiDiv1h3ZwH7PmDQGcNFc2sWwyBoKbFxN9bp7VUVY4w8Y0BTDvUhB7W5vqSnPyCc1penRQH14TAMbLruJZ7txzHaTm0ocz9xLLNIRBD7HBvS48qA5McC33YFiI/21Lk+O1VNGdkvaXTOki0MAyYFjzN+dh2fTtOa6mqHOWmZR9vaHMGRo/JZT/UpHZBC+OP0jLJOEb2Ueb5uFDHcUoH/dtvq2hmXVgIKlckWtoypMb/4XCL634k8tdDRc7apTgEWPx7Jz+QaGElXlrfNYEXvfFpW2ccJ42FvhtSvQF/zrW/6DHbx5uEKPGEHeyUHk4fchqDoLz4cZGbx4QzLyfq9TtlUHgXchZgJRvrf64cLjLx7eInY7Dq6dSBdmR2Wm9aNWFrATs/T7in+IkYTOLTN3f5fvk+gpeA5bk3bP1fLUEGcYt1bcgrz6KocA8+K3LVU3ZCXpL9e4ucv4dtCqiFjCk+44JH7TS30G5qdrmfubO1VThtB9v867tE7tLrnNzMwn10xk4i5+l9ldUqMEeA//U5kb/os8F6wiScAHnl/iKbr9O2AKvccP1vH6/+XfVR6OfnMJbzdhfpvnrxEzmE1bJ/eFrkEtUwSWizYm/66XqfZU2/VE00E+G9+Ja+8Y+IPPZK8ZMxGMAg0ufm8EGMMDxYv1fBiXD7MNDiQolxsD5YoVP3qg0Ob8wskUufEHlqRngDCMMcx25jwVMWj7FFsAzRa39iQDQj8vdQ0XzZvtm8/i2F40yPv9vusVoCMcl7s9YK+RaTPEe3jtXXos8RO2iT7NJd5MK9RTZS55r3tZ04Kk5xO+chtRnT7XNxKMWfOkjk6P7pG3mcloFtO/0Bs2/JzSzcRqxqu2K/1u/CrgRUsO+eYMmYae+Hs8n4k2sOssRGFk97LIjmcZZUZL1iEioiiGZ0Ul7hcKI/aLCPBkjC5izapE7T5zlt5qlaVC1OJHol0uAjBG0ZRBhZ3gVZbWhrYJgub06f7OUb6uA59Q8nmLYyj+Xm9J6xYSWLYIwp8YVAoCCcPeBzygn3GTYg74K4JUQHYXGCbAhaKahOZbEqlTe4nworS4t/zgsIfHzK3S9ZVSKt/YI5Klbdpp2kWW1Y+YdvYSVvCPxK3hck4Pc/1+AsRGGTjQYzrd21XgmqJppZUP/OJ02LZrIF9eAM2gqiGQeRFliQLWCXc4rdqAoYMfrJyAQMnWK7VinFUE4NHRk6j8BKDVya8asm/ExkBELw3pD58s0vTjnBPi6h91iaDaAHmFO1amGYFp/B/EtaPzP+gqwUYs9pH9FpbWkJGRIaWZs1QWi+PFfkpjEiY1Q4UyWjNY61taHB0DdVNCNKs/hocG1JFoX8S+RbFst5QobX+HlK0im6/1w0x2DH5my9af8Z6MVFCDIFTYreSYdobHkVmmnCDIOAo8mKw+THYCPGgyqW7xhnDhChvENXkQN723uepLCSUP9dWja6mlAtSZvA5r2hX9Y3vzjlBAdKG1OaDcDOEjxnMehsLdizNJ8BVCZJtnBNnPaB3cL/puWseA/SDtSpBvg4Msu3jBV5cpqJTSoPnCY7qJvIcoGEDKL5E30d/8uY+Aeu7X/Ud4fg3ArmvPJchef9Isv/ZUqmmcAXHchGm6xRFfPCBUM8YQARdUlYQUaZLXR2vLMAnAMljLSjsrMmmslO0IvI4CJbU4gie61pvUsDuoQ3pTDsyOlfOP4swTUlk5GW9eKhp28ui5GyU1tgA9LagLhHeXbSjtrPE/NV4KQdhIXIKyRaVEzUwsBjFkBohq4l7oRkQZZsMoN//3hJZOhk8xk8E5z296PNRXqvFW7Z4YAc2n2yljEHntvPUqqYBMlUVPJ29Hccgnjun7T2Rt4/9EAWA4OqDAKSNRzxmsi5D1v/URJu8t/uKrJrdzWGOY6mKgFRNQMbkwLbJ3p1FLnqADtbv9o3Hw/IM6+LXDFcZPRMuwc46e/4HdSwbSbyzsc2FHrfxOJ/KILo/CkDATvZkepZgYceo3vsHSJPvFr8ZAwc+IV7ifxEjXaewaHw+iYE7q88s2EHq3AUDjgofi6vTJ1rw6ih4Ti2EF26r8jePcPCIS/wvI2YYTaCbS5JCFDP3kXkkL6+balUDNf7aZ/rLfmSZINVRe49KhuDaGyOQjBfO0pk+geWOd6ms2346K+/jtT75rT7RV5JbABCmDEMzD2zTMaO0mZbEfc6cz9J8JtslThY/WYWBzFbAn6FRRCn3hd+nkmmnb+nasAexU9kiKqIZh5CGvUvGGbZ5iQDN9QbZg9bB+NJg6aZ/I7IcXeJPBu48VirxVqdHfV6VjMqpdQ0SX9O1mI9/LIJaKJIBCWbMRCYZJPZAMD6rGTkz4Nz7m4im66dnfuBzB1i5chbVVDOKX4yBtf+jwdbtsNxygmzIWcPNQdLhioOTvWSfayaE5oZyAuUcnl9rOBiI0KSjdewTUE8b3nOwGWJqSrc9lXRTFUwWa0kMHn0VyL91i1+okqgJdi+dfUIE2H4GqrUpwwUOaC3HZ7FOlN8JH3OyTYlDrBBgGZpQwM/43h9Lec+ZEmxJD1VUBIg7rFxfls0eJ5JnJ5yb3idKfcVAc2WVb6/QlSlPSPqTQsNAdJyUOhNa6KfylkAQ3Qdlgs7Cgbo6D2rZvkJcUmvGWuxMAAIZiJ8HoYDNhVZXX92oP8X8czrSUIJjbU7WeprxrDRYhQ6mId7GGOd1f3YTm3BwAwHQfEMJUFEF/pPMzgT0BpoB6Cyk3Z8NqfHZrWcm1c4UryTCtDQMD4DXJzWWk0QXlSqbxkjMlmFMYKZPuy9eharSEVfQrtnx5RhQNY0fvyfxmK6muAzGQJMa/0jK87rzPO8DPNAtNGEToPmGeZZRgNmkapc9k/1ZsAAhnqiyIaspTd4nrMilYT+JqaDcZxJ6P1DOCeX01cKHn7e51vHidw/yYwAD0T31awlg+xQNLSzuAppHP/KAaGJMGVFXdrQXTXAyCLmQ06c/lLek1CPtuOUGrLJDD2ltV+wgeargK3NE9gOgu80IYGIwGf4EGDpQJxhk0OiGY1JS1215mUQyC/NEbnxBauysiUGUbxdF9thzNaM6Ofmvlh3xbCPfO1Dex3V8pEh+FloOWGzVAiCGQKBPPfu8/7hP0PPM3aM/flZbbOquIlBSBGhcsFCsDaI3tXQDe40hqwth2ekOUwMQtqEajnBmPIes6D9trEL3m+yr3v3UuO2gf3sEQzO4fhDQhMDgnFjEKgpZnxgZS3+fbmNOfcxJ7CFjC2iuZPewx74OZWAvn96l0OZZuDZy/ORwVGA2pS4oULlPqO0EIwhNtPEGdsnED+VBtvLarm/PWfzFtFaNk7HO7CPHeQTH8DGz5CIi/ubCNaf0u7DWsY08CVktBHplRDXZNC530P7yLnHyZrnfbNYtD4yVD3GjvF+pdmzalNx0cxDxsWKRFSSH6rxo2Tv+21bBplbspppgwwIu0/L4DAp9zLQ96s7RU65T2TYKwvaQPhe9FmyJePv+sHvAce2U3cTzUTLccgQMcwTamnge5FlwsBhMEPQ6nPHeJHBD9tAyAwV2eU0cJS9OXglBM4G0Rwy0o5TasiokREMrdUCNguQqKhmm1Z7wGdEmw7SwP55L3NpwSYzMBta+4WQfFNtctqe+vZAOxHHpONbLhxmYjWy+9h05mOYfXlkqiVIAB/Iermt1lO7mwieWCZQqMYGfCR2/OV37XWkJVqw89eMEDlzqPqzF+znKydUVDk6O3RtSSoVNotlVFC2BK7zZ/oa055nnmVaNbN6MFjFRTO7B4lQIyGVhN40xFOoJOQ0huuEQSBLG+rnoxeY3qE0sdlWiMyfnmEC9Xr9wMjxoBNBTlEj9Cf9HIYtGvREQG6xrg3/8dCHshcIaf6OlpMkGC6yzaGWHgwfmwMYMhw+zQaGZn5QPtFMUEDPGcOLSXhdlJW6rOqlYqdy8PwzVR/KthI4E3B+U4WsYCmgTD39/aZFM8LIn7fSwz0VstcIHzZVlKOv+QN9nx+cbL7lhmcsm4xQ5T5gg8ofnhZ5YJL5NSDrylDcbj1MO4SkA0ElJf+QECNr/bY+H6GgkhbHO8frz6B+Bd9C5TTtRMpSgG7ndeK3Qz6bSjz+Ps8JGV4X1zB0PDjPMEOZJJ2y+jxX/MciekI0h3ZtsrSbmzuZhXSahuxs51XCLRpkaMnSlLKMVogU9f17XUUsfKVfG2N2wt0iR91ma2QYzsBZA2K+x+oih29h6wTTBhiWVrHMyYCrqGFIwgEnL8yyrxnPCCCMWVlzmxqzmfrzEESQHSFSLdfJYIhmHngceRKMMu9FltbjObUPgdqGq4XLtjgoNiAkN2vkAZ51Eixsqknb6eqUD4IxVpcmk1iYYGwgg3SlBEGFGI4GrPk9FUSyzsfcbmtqH3l5wSwJ4nFHDsfa1IRWWrINMd0lxUfiN0a91liT0CbB3mcqpiRJqGRsto71E5cLXj8zCCFBCavq+4Fvy3OASOWYVit0YBKC/s6qAVYrLgjIIhW99IgNyimhjQOA4V+HVgPvBW0V9M4iFEPlWYIUerZCGdq2wvtIhoGDBoAHnfcUA8OJTGR9o80oGDEEJCuvmGgmMEqDY0F5/1dfvviJGDj8kWrY+B440YJx1Z+BAUNW2T2vgprXSDab70Wmt1w7vvne9E+/H9j+ghEnQMjq5K9Tm9ASRFaQrS1JyKAhDHD88YAzD1DGnTjHspo8d2nwd1k82S3v0AYQEs1AIoaqYikreghV2okYYI/+jP+ienjXiyLjZi9oW8C+b9HJ9iyzhq2pg6Q4KI2gMtTGiFjma7OXOur9x8dQKf39cAs4+dyePUWO3Er9bBltO5VaqqohjUR7Y1f1a3nfysSM1UwNtuYX3+M4heAfLaO/ZpWKimYeLkovPBQhyDCTaWaTgtNyFlFjwUYKotCQcUPgMaXKg18K+DpEwrRLNAelFjZlcLhCaJ1cHKJnhhw2WCXcn8j3/NvzlnE45EaRn98icv6jIqNmmuFjG8fPt7Ydj+UsX/HQvzI3PMRApLyJOpnF/B52KgjPPaKZDwR0EipOtDfkqa8ZUcbuXY7dp/WrKdiug31oSlg7rQeb3GctGzZPuhb8ABWAtI0mbQHbSjImLdMah+TEYf2KfczN2FsENv+e1xGqdOIj2QF+xM3mW45WH4Ng5vVxT23bReTE7a0SGnCxJYNTc1/Tn+WDQEKG7Ct+Ps8D5gTttJ+gHUK2iJ5tDswhgZZVKiqaiaKI4Ci1h1hBLxhT4GnHQjtheIhxlojG0IAAbRS0NZRqzzE3O0MgZK6agqwXQ3/0Ma+i72tLQGRv3sn6tpJgvOiRZuiQHmqcKYvRMbRdNTo9qr+V6tKGIksBjoKgj2GUJLRm8HN004+0MqHjlAsGqHtrwBZq0UAUkN0hc5d1sC9k2h562fpan3/DfEdTUGka8qxVo6hyIbhLlCOoezj9r3DQWMKmkdknqIna8EoBlQVK982tF0W8HtpXZNCGLa9M4yOpREb7m+Nwz5E150Ra2kGGTbWZFew9/+e0QZbNLqdd53shlnlWQ/c7gp8KalYH5FoCiVPul1BrIwkngoK0maesUFF5ygNBxiNt+pSSNnt6s3zBsgoDlBg2fk1C5D5FRV6pehoZAqRk1RQ47oP7iPxygAnglr6lSyxiB59wKmRLe9sJFo7bzpbaE6mW8/5BuDNtzUcS+uX42UPtJY5Tbrj/mBkInW5GSZvTQ0MT+VmCitH9Klx+eadtwqHVqyW9zPS+Ing4Lvmwv9uvvN48ZdazChVCVoQmBSNBCYdTIJwRfO2FLCTtm00NfAIzIyRI9tukaO+Ln28OMrR7byyy2drhakwIXvdvdxHZev2m2z9KAUIZfURwm4TXSUBc8KU51kcsgiA4oV0sCUOOaJgsnc4YomKimWeKQ03INId6oAr9zCuG+3Kd5mHYblN1mPQ8JVsbyMSOmW0Grr3GDcNG8EOmOQTlPB7sX20r8hsVsgxftGZoAYPAlPNBKrgRzk2t1sGY79NLjdputtCeh63cGV4yIGS1ko6c10imr78aV28vcqoB9z7PP3YgVMLlOGGyZ6XsQS01iKZnXhd5dKpVkZLDWU3B/+U1sm2BsjrBfY71RWbAtm21rsjGaxY/EYPqJatH005qbA0EOHwdWjhDIFr7dhI5aUdr+aNdoTX2nn9Ltpi+ZF5LUyKYvuFjthH53R4iA7qUt90vgjaXCXr/MrifBJ+KoGyuxTHLoB0YSmaFIKdCx0G/kGHuowFN1tcNL/TdkMpUsXi4nnlD5OyhdgZ8EgQzDwMbFtIO6nCahhvx6qdt3VvS8CDorj5IZJfuLY+yQyC66S+85HFbw4N4xhjRikEvMpmu7TU65+Zvj4glK05vF9+DzRw4QwwqQdW6K5swYAiE78e9g1Ert4PktXNc6yE32XBKHEpLP9pc5KI9w9l+x6kECGKGmi4Y1jibwz06eHeRn22Z3UEbTnajP5nkSntgAw8ZSUr35bYL9QBZ0PP1nqLvNz5MSpID3/LnQ0R27lb8ZBuhpQZtQEvOsxo40aqAmGJWh+Ew7D0ClsNL8ANtzbiS8GC4lMCMzUuT37XXh78iycP3QZz3UmFN1bASx1VTweRgrnMfsoHEODy3JJFO38mEZV7hGrOm9vh/NK5Uc+2ZRzpph+zapoiKiWYydGw+OOfhcJYSEXTOrirqerQuM+ksAGOGEThDA5PxsxtmlLimx2rkfObOeoOqEWqPI+Hmpy8JEYsB4msRHWLIKCNRZilF3xWGhL5ptlTwvfi+fF16lvkefC8CgEqVq/j+fxypgd+DZuAj+P5kAq46wHaF+v3rVBN6Is9R54soSG7NYQPAxXtZb2RbA1qnPqHCdthN1kIQB5v8y20tK9vUdqTmICnBIBxDgLRwcu9yj5IQIcPK2jh+LcVWJHwjLT0IcyoUZLnxJQg2BBztheVaWRqCLDNrUy941CrCcQgYTlPBfEDv8IB8XmDW4Mrh6iefbqxN0H8XqV0iKMq6XaqYaOZGuE4jyEufMPGRhAzoBXvaepuswDLzy54s/qEZeMDIrh47wB7uJAzgcBQnJ+Q1NwkOlGJYncbwQmtAZF6hNybrcqLl7xFEztccZF87dBCKkw4BCWUz9lAnMwEYdfaEXrR3/tcBOfkH+8qe9EvU1kaHC0WQtbtyfxXPG1em5Ow0horgk+pb2AQUD76bgurdEVuGfQtf47FXRO6daCKwOfhah/drva3i5/7tg3a4SBxEDkdY33y4tT84rYNggcE4qkN3v2R/juAUQ3q3Tx8k0lkD3bzGuXQa0JZx0r123kIc9l5zb5880BJhWWfhwbvL4OLvy0phGnqK9ewkof+OHb7N9bBWGnZCMlxCawCLuJv6wFhxXvrAbuH2h/+owRk5U+QvKmbptwt9jfgHJa8BnVtf6qdPC2fIoBpbSr6NPYCseuEG3USjOneYrYOsNzuhb3yhcZaZ9+qEHco/Xe04LWFhDYixqdiRt/SDwwQiaHti2Ja2JrJqlarSOAsgg/qiCgi2/0zQX5O2P/nxidpttgrQNhBqXaTvmwM/7p5gdj/0NeIfrPRiTVtrfS2rTcnAkvyJZ0NxMbwmBA+Hf3hCpnUQjNC2cOu4xhup1ltJ5Cd9bcA8z9eVAeS7VUsR2CWzzNHmK37Ngz2qiGhGcLz+kRmJZOYDOOGGsmHWMqBE4tys878IT3sCGWZEKFFSYThh2bBwwpGRJSDTQ5kibUIYAcaKNoYVWPXT2uvBTYdh4+GbouI83nBPCYqeQUohnPTkbQQtA6fABpJLHmu8mxonRtnskC2s98xxqg3mh8McyO4gyuLbiqiYIHjIDOKQXeBUHtoLWB9G2Z2yfLLdIYLEBlsbTtSAnEHnDuqPvhew2fTc0ntLexzVMNoNQuBnf7G1yKFqqxi2bq39575ioxEtFKz2i4OP/0S/Lzvy8S1OyyCrTH/vTS+IjNNgJJ5lphVlt42sikk7Yg70ZBBEMhsz/jSisf5DEx1cPMchLwP0FRHNlAtZS0NPc+iBJoreX4VH1vbzIYgQsRibSW8vOOUuAqNDb+D5e4rsrjd3U0IUIc1Qyhr69dhmwXn3yRVwDK78ejuRn6tgZiChrf1LOEKi/lnzzIjGI7uP1UizOJxWEl5fXh/ESoL4+LsaNXrO4tcSZ8XC/FMona2crXvXqW+wQ9gAKmAcdRy3NWQF8c0cwkOA7dWRysL1JsvLQV4IXd6fUFsFSST2A9O6yCrWVN+in0dgranCmZa80JHprOU8Vb/Wj1WgdGpHsITg76A+7JX3Gm55IBgjIcOhTqx0y3PvbSUhA0uVgLbN5KYYdBFagKpQawOcLIHmwH+SNI2vgOQeISnJrFWeVulV5K0g2znjfTseMglDXZSL2ICQxYuGcWE/Iod0JCHLjGjCSPA6mnM+kXBGXCfbI1jWzoobssyI9PbshOTHIAA5QCNUWkbiPxdrmGgzoC+X3zvNQ7buZjVqyaEqgg6OcN3E2zKcDMJAE8kIBFPcnpDNoqf2gcnZ39tcyzA0h+/YvmvjwWnaa5hB2ah4YFVLfAutfIjr5NdCfLGZimweSaD2boPAV+Orkj3RDPvfO8HurXjG1AlDAoYtTENVTCaPlKYSgebgYJU8V4NImL7whmmO5CwbVfkD+1jFJU8Jp7KLZp4dssszPgwPPbBrkT6o0IBDVqBsQL81O1Dj8EbTv9wagYthmTVfZF4ss0DkT9msUIZRw1eKG4gHjYGP0PHVtIYQ+fHAUlZz0qGUzeBLsj2HKJn3C1Hie5mdLIKQIptM8JwUOGS1bh9vQzmhwWyn/GDnKbuTbVt/leIniyBssSutEUy0epD9jWcs6RP9zfYiO3c3P1AK38LPxgwSZfU4CGU2X9z4fOOVnE5D0EXv6rXiGeTEy3iQwazBTt3sDIKk784TaAtaj/7yXOO2DO571uixpjDre5mTlF00F06Pmxd+iCj10N5Api7LFw7nQ39x/87FTxThRqck9VUiA5kGkSWlOAYMo+EcggZKZj/SG4jMUCkjLh44plJpHYkPffBzsz7oqqfsyFLPCoShjea60SKPTG3clkFfOH3nvGeOk1WoaOF8GSbCUcUhECQgpN+QFiSn8pAVRtiSVY7DtiV6h1u6XQOBQgshJ79GFTEqlkdtbfafNpxS+hbaSjjtlV7rON/oz8uuZc4LaMmWqHqFQz44+ZJFA/EKJr6FygAbM6gW57WCGc1OsMWL/vd4W0ahV389E8152JaRpOyimT2+L+nDzO7QJKTnOWlobVozip/LKgx5UUaLt1VwI2AY2ErREjhwhA0iNPwDhozVT7Rk0CdW6gcEI0mvEH3SnFQX7zMju0R5loNQqAS4bm4ITui28SLXqPGnOhDBe0Rl4NSBVvbOq1Fz6geqV0dq8LyX2pr4SYEIZfa6EzyTCfLgufJgozmIhf7l+AAdQoqKYEtPRGRQ+b5JItPVz/I+kjChdWyvnhYslcu3nLGT+ZYIbiF8Pn7uhtGNt0E49p4+/qplYONbSIA2TZIxW+k1zXNbBvcALY30aseDAl4TASIBF4nIUgZylaKsg4CISgYGbn7Bss1xyDIzaUsmlEnerF88fj4G6CZqJB8NQBBNYSQ2X9tugKagdIZIZeUcB3Ugvnfc0AQtPT3lavTHWBLNYZB5L3hII+dI9pSjarmRN15dX5/+TDm8h0sOgplp5rOGNtw8wLXhYJizdzFn5MMuTh7Adi27mNrZFe0YbQ4miion3OsIZpwcNqBwgp4bgYqCLyRDOzU2XIeJXlaFL+cWNDcgjz+5ZaxlLclgkr2mV5QhMgL8cvsWBhAnqV+MnwvAICLr7fg3nOCXtxJ8uWC+i8G/Cx+zqnM8UCUIOUbFJBlYZqTyCkHBDapzLn284cwE9yGdBadqoEV7T7L3Pi+UVTSTwWRjBgu7KTfF4Sjkn/YT2W6D9g29VQqMFuKSiJ7sTAQ3Av1oZArSjBMlNo7I/NNIE678u807iZy4vR3XidEsJ3w/BkDY3DHtAxs6iB5W3hcCga/0VwYe670/l+tBSYkl/jijOFQGzt/D2mmWWLT4ScfJAdgvBE4nFc70UnJMddSSgYCmEvih2oXCEcUq1lw4Vw6EJeaYdhkOgIjAL5KMYT1gWtaR946s5V+fWyDC2LZBHzND6pXwLbQYIpxffX+BcOb1IBBf0/uKVkReQ3L4vd6g3YaBuEgwE7BGsEmF7CuaqFS955WG95zKAqfmIpjjFXjucbLo5+wmsudG+dYZZRPNpORHzRS5Vi9gcmsG4mOfntZnt+LSeoMUP591eOMxUkwHx0sOtG6wTzNe+ozgwaCfmxLo09Mt+05mmd2bg2iCr1DAgPFkkwZ9bhg3BGFcOHP+/tvqSHuuUXSa9ld1BdeEY0yv1PcqmWGmhYgT/+g9Dx0w4DhZB/vFQCCnjDLLQGtZ1GuIXUO0TdOgniQAlSn+vVMZEJ+fquCgvzwSG7TQ0VrDetCQb8F+M8hJXzpzMryXDBWeuKMdhFIp34Kgx68UfIveP0nhjP/78FMbpF9efX+9QUWagPSGZ+yUTio9ccG8jvrlkwaKHL5F6XvPKwWvkUD83IdEhujrpHIVUahkrykyWAUz/fV5T8yVRTSTWWUv8+V6g5BhjZcgEG9kZTlumkg4T4aZn5Xo/5W5C7YpcPNTiuKAE/Ysx+FlUw4l8rrrRYu4WddDRLn/ppUXX1x7HlB6inCa3OTRw1vINulrYpKXTSY4znpxmtyfOJ1T77eqSHINF/fpHw7UB76HZ+KdfMNOXw5Y6qP2ivuctrloKBnRhUN/SoN7yukE93moAtYCCAtsMC0a0WEn2GZa5rA/VAiSYoqqJQN3T02zSiGrWzmZlLa/SvsW7hPaCzgVlWosfg/wgSSYOCaaUxDpr8YHplVlaw3eUwKh8x62Y9PZWRzpIa4B7+3Zu9omJtpx8iiYsRsM+518nw3NxxOK3BecPnnxXiLbdbH7Oe+UVDRzg5CtRCBepoJ5nArmKJMBkWBmYTuZ2bSSU1bhhuZn5khwjr2M4PNE2X31tcXLYayVY7UbfcxE3GR5DtNo8mdbWcRdjeeDB5WhQwYNEPtkBqL3CCPNkv1H9cbnNXbTB5peyDw+yC3lvU/1gR4mcsYDdgRtcv3WriqUrzvY1iLmtQfLceIQDJPRIhvJykwSAAy74stx6GQ6R8+0oTIqLGyI8axzecHG8oHYpEUjSmZgrylr094QD2D4d2QuKfcT/OB/SMawYnS5KvkWfCOtGluorcS3cF+hCYDAbK5qg2ffkMIJuyRv8tqG0BIK2WX1pVTaScagheIHzvDcbbuByAV7iuxUDHLyeCnowWf255yH7FCd+LYX2nFYd3np3pZprpUAvF2imQfh2ddF9v+ziY4rhotcP1rkCY186ZtrIJj14Ud4nLWL7Q/OqwDhIceg8fDHJ4N5CFijQmsDFNpTNPqidIax4PMsK2fwj/7iahoLHCArgxDOGGScI0eg4jR52GnXQED+4yVrrVlnpfyWjULwGhHL140SOUWj48f1fqU0+i0XoAjvlz4bhdMeO6qB5/51nFqBZxlHTem/Z0d1fvNtW0OUBcO2I3ruGG9zEAT85djw4ywAG4NPITMZtYd9qbaYXnRWXEY7e0nAMCt0yxjzs3yeXthD+1pbTTXtNCKfQ1YY8qcdkEPNyK4C91Zhm5YKSLZrzPvcft4V9N/Xyn2Fb+F1kVVGExWGM/W9jIIgoJL7621FztvDqgN5E5O8RipSlz6p/vNekWdUC6F3ItvBe4nPxHeesqMFUrVUWWiXaKYkhHhkcIqLRiSF4CK65MJGINBoRyCqIgrNc8TBDUHpkgwtH0BwQISFYaNFg9c/8W2Rix+zX9mywMAja8qysmaFn4Gfi4eWRer8meGEKNPKQ84ULD8/2fKxs83AUYLLM7QLXTBM5MR7bICGbECUDYngwJKbDrd2DPZbZ+H9cpxSw21NdpCsH/MVzJcwEPiZijLACWLPCarvVPE87BUT2uwVdvFcehDN+BJaNOLtf5wcyMmAtGjw98M1yL9mhP67uepL9f3bT+3VMf1tU0YW3hfsJYPS7BvetgufsNcTZSF5DZ98aT7l7gm2W5q2DYbh8mpreVZ4jec+InKS+pYHNajhoJe4b+F9ZEjzqgNEDu6jwYIGO3kTk6Nft2Dg+LttIQIBUTwgQFPQm33djy05Wsig15itaNdbxkPwut4oUYSRhJtkx64ifz1U5I8HVWaat9xwAxDZJw86IYJGkJEFQHxe9bRGYHqDYcQoTRy3nU2mZ+0Gwml2Xlnk8n1FRp4o8tMtFwyd8Lby0PPaRky3rRt5hwecQU7EMoIgfu+yx3bkSRokqGDukcMMgOO0BRz36surs99BZJTe/2fubH3Pka1iywaHOGHfKMe6YC4PXG+OT6bfnNV/EcyevKoCOfIx146ymSFsF8KEA0xY5ZWl94UfBQGF7/v9fhpw/VrkkM0XHLJFUg39wIAgQ+gffW7/J8/wmggAqCzHfQtzMJzIeNcvRG49wnp8uTZ5FJPYggcmmc7h/YuSo+gI9oKPPlkDuoNNU/C5WqTNmWauFb1UbMggE8FNQqTMQ88gwlEa+V6wl8ivtrV+rLzeJCGi14EBQ3wBDwgii2ifpd63jrXPsVoPJ8RDk9WoktfDz0bZaJcetuPzh0vank3eY4wxJVx2SPL5PLOwvhbKn7w2Mh60yhyt9+oNGhlzz7ITlfexVu5Vx2kJ3O4MCTJrMaCzHbjEwBZtTEz+A4IHW0b/rFMeSCohjhFfkW9hVRl9ylx/fAsVMpIZ9KSfPNA2ZmRVoGBHsaespNtZfQuHeREQkIWldx7NwCFRtJYkT6zME7xOnh8CAKqz+Ex2+h/ezzLLrACkypx3HYT/ZGie9gzARrAJbMhP7D3kfeZerGX/udB3Qwr6t80QaSS/QHS9avXC8XoZ8qNMwSEYEayeo0eYTDODNQQQGDUyATwseYL39RsVlRPniDz8srXfXLhn/vcT42zYl02v9iAN7nA4S6kz8uyZ4zQEO0dlhrIzBzIg5K7Y39q0nPJB28V5j1g/bASnBhLQMKhN3zObTU7fSWSfTayimydIJpGpxLcMn24l/GO2WdCznVdIHNKWwSA980sEn1Rta0kHkV0+/1GRTzWw21/vPWYimE+rZZGcpN2iuV6hf5v1ZIf/vfiJBAxvcBwmm0Ki4UDHcRzHaQoOBbvxeZHLn7QTXJOQzSNzyfAfA9qO41SOjDYMZB8GMNhJyZRwEo7AZIk30bMLZsdxHKel4D8Ku5lXKn4iBtlY2udY5eWC2XEqj4vmNkIP8GrLmnCOQ6mCXdRkArz3z3Ecx2kN9DWzro35ijj0BrPp6LBi76jjOJXHRXMboacF4UyvWRz6tRgwy/uWEMdxHKfyME/C3n98C3MyEfST4luyOlDuOPWAP35t5D9f25GR1z9T/EQRBs1mz7ehmWjljOM4juM0By5j/ud20t+9E21gLg4r/zh5DfHsOE7lcdHcBjgAhMXeHBX+wac2ORqfHmW6ecybDU8MdBzHcZym+PwrkSdeFfnbc7bWK+lbOD578jsin7hvcZyq4KK5lbDc+5X3RC56zE4EZCfhGstZf3MEJ2qxw5mMgOM4juM0B8kYTtilevnq+7ZKjt7l+G58tmm8OEfkneKeXMdxKouL5lZAu8VsjfQvedxO+2MxO1POl+9nhwFEu37ZbUoGmowAIttxHMdx0qCtb5L6i+tHi7wwy5Ix/dYT+d0eInts3LCPmWwzCRn2AjuOU1lcNLcQhjM4GeuPI23pPAJ5jRVEThoosttGIputI7LKMsV/rNCawVGn878ofsJxHMdxEkQHyNCSMXyaJWN6ryVyTH9bXcoBEvFNTGSZmZlhn7PjOJXFRXML4Tjpm18ww0aPGQL519uK7NNTZLHvi3RZRWSjNYr/WOEo1LFvikx734Y7HMdxHCcO1ct3PxG5Y7wN/1GZxJcc0U9k4IZ2ohx/jotm+plfmmNDgSRzHMepHC6aWwBHSD80ReTqEfZ7ls+zXJ4TmTgeu7B6TkX0Jh0bltEwbpPeFvn6m+InHMdxHEdB8LIpY+hkkdvGWXVylWVF9ustsndPO14af8LO5vVXbrjGlDbBGR/YybSO41QOF83NwG5M+pcve9L6lDm8pG8nywTEz8rHwFFSWzXWooFoHj9bZO6/ip9wHMdx6h4SxFQjh08X+WtxU8aSi4ls01lkn14iK8b2/6+0lPqWjg0PNKGvmfa/jwLHbDuOUz5cNDcBvWYvzxW5aJhtyiDq77aayKmDbAAwDsdqU0brEWvRICs9Vf8f/9fLaI7jOA58pb6BgT8G/9jGRDJmi04iR/UX6Z7wLUssqr5l1YYtGiRzaP2bNd/8lOM4lcFFcwpoXA4pYbUca4DoY8ZonaKCmWxAfHcmFFo0lhbptaYNckR88oXI5HdFvkgsqXccx3HqDwTvFPUJNzwj8rz6FjZl9OoocrQK5n4qnKMtTBEL65+jFg2SMxH4p+kqnN23OE7lcNGcwrx/i/xhhMgDk1Qg65/ZlXnsAJG9WP+TMGoRSy1mZbQOsZ3N//pSZMIckbc/KX7CcRzHqUs4ye/1eSJ/e94OMUEgd1pR5NC+IoM2NAEdghYNZmbWiLVo0NJBiwZbnbyQ6TiVwUVzADZl3KhG7Sb9AMpju/UQObC3Df6lQYmNMtpGsfIaC+sZ2CCz4GU0x3Gc+oRNGXM/EbnrRVtb+t9vRVZUMTyom8jO3W0uJg3+rmuiRQPwLYhwPw/AcSqDi+YE9CGTXY42ZZAJ2HwdkRN3FFkzYbCS8G9XXtr6muMltn9+YdlmP/rUcRyn/og2ZTw4ReSWseYLlviBtfodsaXI2j8s/sMU8Ce0aKy7UsMWDdbOTZ1riR7HccqPi+YY9JqNek3k8idFPvy3fY5Wi18OEOm+mv25OTj6tGuHhps1WCU0brbIG/O8jOY4jlNPYPPZlPHUdJG/PGttFayP66Z+gpNkW+pbll9SZAP9PyvFNmvgp/At7Hr2YXPHKT8umovQOjHxHTsim+EKIKL/0Wa2ZD45+JcGPWmrL6cfsd4zvjZr5zhW+7++V9NxHKduYFPGmDdFrh1lmzJgRRXAu/YQ6b++DZG3hCUWEVltWZHlYgkZoD2DEwW/8mO1HafsuGhWiNAxPJc9IfL8rAXZ4NVU+LJofqkmes2SfE+v6OI/sP7mOOzTfE6/tg8EOo7j1AdUL1lbymo5VswB25U6rSSyQ9fGArgp0nzLmx+ZKCfr7MlmxykvdS+aEcycrnTNCJGHX7ZhjYgNVrXJ5tbA1yOzHP868PnXIi+9pcZNDefXnhFwHMepab751gb1OLyETRkRDJOvp6I5OdTXHPiW/wV8C7M3JHsQ5376rOOUl7oWzYjb1z4U+aMK5tvHN55AxgC1RuBiyzBgs+bZ0EeS9z5V4znNDKlv0nAcx6lN8BsM6F032jZlxP0Iovc/6lvYntFS8C3MxpDg4dck09WnPKm+hcFA9y2OUz4WHry7DC7+vq5gowXROUbtzhdFPgtMH2PcVl7GppyXWbzhoSVxMGjRarmnZ4jcOtb6l5NQqqNNg96zZfXr0fZBuc1xHMfJP/iMjz4XGfmaDf3dPUF9y1fFvywSiVrWzS2zmB2fneZbgCFCfMtjr4j84yX9/YeNs82Rb+Hz+BX8yw++b2cMOI5TOupSNFPmYpL5rAftVwRvCNb4vDRHCut++qyjAjdlRzMlszfni1z51IJjUdOgTYO/x8Bt2KHhwKDjOI6TX8gok/E9a6jIqJnWopEEvfvxF3YM9qLqUzg2m61LIRDYJGCuftoORGHgLymYIzhIi/MA8Gds5OBAlJYOsDuO0zIW+m5I/c0OYHSI2tmZ2VwPGIJ56/Vti0bawSYYNtbJ3TpO5J2Pi59shs6riBy4qch6Kxc/4TiO4+SaL9WfPPmqyP2Tip9oAjLC+JbdN0o/2IQTBCfOMV/FWrmW0HstkX16NTw90HGc0lCXotlxHMdxHMdxWkPdb89wHMdxHMdxnOZw0ew4juM4juM4zeCi2XEcx3Ecx3GawUWz4ziO4ziO4zSDi2bHcRzHcRzHaQYXzY7jOI7jOI7TDC6aHcdxHMdxHKcZXDQ7juM4juM4TpOI/H/PfY7s8/Cb2gAAAABJRU5ErkJggg==;fontColor=#CC99FF;" vertex="1" parent="1">
          <mxGeometry x="880" y="-18.739999999999995" width="167" height="30.74" as="geometry" />
        </mxCell>
        <mxCell id="vPh5yiBVEbnupIEMpU4R-127" style="edgeStyle=orthogonalEdgeStyle;rounded=0;orthogonalLoop=1;jettySize=auto;html=1;exitX=1;exitY=0.5;exitDx=0;exitDy=0;entryX=0.607;entryY=0.035;entryDx=0;entryDy=0;entryPerimeter=0;curved=1;fontColor=#CC99FF;" edge="1" parent="1" source="vPh5yiBVEbnupIEMpU4R-119" target="vPh5yiBVEbnupIEMpU4R-125">
          <mxGeometry relative="1" as="geometry" />
        </mxCell>
        <mxCell id="vPh5yiBVEbnupIEMpU4R-128" value="Tham số đặc trưng" style="rounded=1;whiteSpace=wrap;html=1;" vertex="1" parent="1">
          <mxGeometry x="370" y="390" width="120" height="50" as="geometry" />
        </mxCell>
        <mxCell id="vPh5yiBVEbnupIEMpU4R-130" value="Kỳ vọng" style="text;html=1;align=center;verticalAlign=middle;whiteSpace=wrap;rounded=0;" vertex="1" parent="1">
          <mxGeometry x="336" y="490" width="60" height="30" as="geometry" />
        </mxCell>
        <mxCell id="vPh5yiBVEbnupIEMpU4R-131" value="Phương sai" style="text;html=1;align=center;verticalAlign=middle;whiteSpace=wrap;rounded=0;" vertex="1" parent="1">
          <mxGeometry x="310" y="540" width="94" height="30" as="geometry" />
        </mxCell>
        <mxCell id="vPh5yiBVEbnupIEMpU4R-132" value="Độ lệch chuẩn" style="text;html=1;align=center;verticalAlign=middle;whiteSpace=wrap;rounded=0;" vertex="1" parent="1">
          <mxGeometry x="302" y="590" width="94" height="30" as="geometry" />
        </mxCell>
        <mxCell id="vPh5yiBVEbnupIEMpU4R-133" value="Rời rạc" style="text;html=1;align=center;verticalAlign=middle;whiteSpace=wrap;rounded=0;" vertex="1" parent="1">
          <mxGeometry x="463" y="450" width="60" height="30" as="geometry" />
        </mxCell>
        <mxCell id="vPh5yiBVEbnupIEMpU4R-134" value="Liên tục" style="text;html=1;align=center;verticalAlign=middle;whiteSpace=wrap;rounded=0;" vertex="1" parent="1">
          <mxGeometry x="602" y="450" width="60" height="30" as="geometry" />
        </mxCell>
        <mxCell id="vPh5yiBVEbnupIEMpU4R-135" value="" style="shape=image;verticalLabelPosition=bottom;labelBackgroundColor=default;verticalAlign=top;aspect=fixed;imageAspect=0;image=data:image/png,iVBORw0KGgoAAAANSUhEUgAAAU0AAAEYCAYAAADYs6SAAAAAAXNSR0IArs4c6QAAAARnQU1BAACxjwv8YQUAAAAJcEhZcwAADsMAAA7DAcdvqGQAADyISURBVHhe7d0JkJ5FncfxRsQL5VREEQSJEJBbECICcokEEQTDfSjI7lZ5FIvLVoFagsrW7uqWRovCxSsSziRyuSiHEsIlJBgg3IeAHCKieKByqbPzaafjk5f3nZk3mff+f6uemsnkPfvp/vX/6u7lhoZJQRAEwbh4ycjPIAiCYByEaAZBEDRBiGYQBEEThGgGQRA0QYhmEARBE4RoBkEQNEGIZhAEQROEaAZBEDRBiGYQBEEThGgGQRA0QYhmEARBE4RoBkEQNEGIZhAEQROEaAZBEDRBiGYQBEEThGgGQRA0QYhmEARBE4RoBkEQNEEcd1Hh+eefT08++WT66U9/mm699db0s5/9LP97vfXWS9tuu22aMmVKWn/99dNyyy038owl0ZTPPfdcft4tt9ySFi1alB544IH0zDPPpNVXXz1NmjQpbb755ukd73hHWm211dLLXvaykWcGQdArhGgO89e//jX98pe/TLfddlu67rrr8s/7778/PfbYY+n3v/99WnPNNdMWW2yRdt1117T//vvnf7/iFa8Yefbf+eMf/5gefvjhtHDhwrRgwYJ0xx13ZMH0uoR0pZVWSm984xvThhtumHbffff07ne/O73lLW9JL3/5y0deIQiCXmCgRdNXJ5jE8frrr08XXHBBuuKKK9LTTz+d/15lxRVXzFbisccem3baaaf0ute9LlucXuMPf/hDuuuuu9LcuXPTRRddlG6//fb0pz/9aeSZS0IkN9tss3TMMcekPfbYI6299toNLdcgCLqP5U8aZuT3geNvf/tbtiTPPffc9O1vfzsL5rPPPpuFsJYXXnghXyussEJ629velt3tl7zkJfk1brzxxvz8M888M917773ZzW8EMX788cfT8ssvn17/+tenDTbYIL9OEAS9wcBamlzmX/ziF1kwv//976df//rXOea45557pnXXXTdbimKbM2fOTE899VQWTEK5/fbbpxNOOCFbnWKVHvPNb34z3X333WmVVVbJbjdLcuWVV87v8cgjj2QL9uabb87x0cJWW22VDj744HT00Ufnx4ZwBkFvMJCWJmvvoYceSpdddlk677zzsrhts8026YADDki77LJL2nTTTbPbzBqUEPrd736XrUdxTNbhDjvskF75ylfmuOVZZ52VHnzwwbTRRhulffbZJ7vcBJEFSXzFMb3+z3/+8xzfLLzqVa/KCSax0le/+tUhmkHQIwzkSC1uucTNn//855zNnjZtWpo6dWpaZ511siCKYRLINdZYY3GyhrD5v7/85S/ZDb/qqqvSTTfdlDbeeOP8fEkirvtrXvOaLLie5zXe/va359epwnIVCvBzQI39IOhJBlI0xSVZggcddFA68sgj01FHHZV23nnnLJTVpIzfqxagEiGWo0z5vHnzsmiyMD/84Q/n53PPa/F87jcrNRI+QdD7DKxPSCDf+ta3pkMOOSRbh7UlRNxxbnmJZ+KlL31prq/88Y9/nN32tdZaK33kIx/JAswCrQeh9Nqy7Z5bIKasUT9DTIOgdxhY0SRYhJPlWC+mKA5JMLnwEj7g0rMuXQSUdcn1ZmF6vXpwvbnzXoM7XiCk3HhiG6IZBL3DwIrmWIh1/upXv8pXKSFSj6n43U9uuUw565GANoJoqvv87W9/u0TtJpfdcyWEQjSDoHcI0WwAq1LRezVJQ9xYlDvuuOPiFT1jIemknIkIVyGYXPZYERQEvUWIZh2UJIlnPvHEE0uIJleahbnbbrvl5ZC1Ln0tnise+uijj2Zrs8ob3vCGHBpgpYalGQS9Q4hmHcQzWYeK31mKBevHFbcrMVLoPpbYea5YptcprjmhFUMlmq997WtDMIOgxwjRrANX2uodxejF0lRuZKMOoslCHI9bzcoUy7QqqFia3Hu1mzLvq666av5bEAS9Q4hmHSR6JIB+85vfLBZNVqYYZlnBMx5ky60zt2LIa4I7bqXQm970pvyaQRD0FiGadSCYSo2qMU2utHpMbvV498FksVo+KaZZ3PMimlYI1daGBkHQ/YRo1iAOyS0nnOorC2oxrUdXWzlaiVGB2HLJrXEnmCU26rmWasYmHUHQm8SorVCy3URTLLKK+COXmpU5nuQNwfUaNiIuK4os3ySWRJP4RhIoCHqPEM0KrMFS1K7kqMA65J4TzfEinul1xDNLcbxCdtYq99xqpCAIeo8QzQrqM1mHkjeK2wuy5gSzmWy3xI/i+KpoqvMspUZR1B4EvUmIZgUutfpMyRs/C1bvSNzIdo/XpWapEk2vU2KjXHJ7aBLfOFQtCHqTEM0KYo9qKtVolk06QDRZh412MqqFm+81FLVXj88gmsU1jyRQEPQmMXJHIGyE0vG79suswsq0Ami81iHLUrkSN7/AQlXfyc2XEIokUBD0JiGaIxA6JUJlN/cqVgDZXGO8pUZlGabi+ALBVbYkPjqe1wmCoDsJ0RyBay4OWVxqcKEVoBO6eruy14NoqsuUUKpu0iEeysVnbVatzCKytpy75pprsltfajqDIOg+QjRHIJSsw6qlyY22Ttw13qWTkC3n6hPDgmy5kqOqa04cCasjgGfPnp3mzJmTbrjhhvzcEM4g6E5CNEcglGKQljyWJBCXWuKGaBK88ULwXCUBBO4/YS6JIf9mjd5+++35RMtLL700zZ8/Px8FXE0eBUHQXYRojsDikznnWqvXBOvwzW9+c3arl3WdeDn9UqKJBUowr7766vTlL385HyPsvRz/+4EPfGDU4zOCIOgsIZrDsPqcB0Q0/V7gSitGH+96c3C9lRQRvuqqH0K5cOHC9PnPfz6fr37ooYemL3zhC2nBggV5f84jjjgi7bvvvnnLuChHCoLuJUbnMJJARLN202HuuWWPzdZVin+uv/76+bTLEsP0umKmzknnis+dOzeHAyZPnpwF9L3vfW/+PQ5aC4LuJkRzGDFMgmajjiKaLEsWJtEcb1E7CJ7Hb7rppmmHHXbIx2MojieeXG6xUXWfBHLXXXdNhx9+eD5/3b9jq7gg6H5CNIcph6i5imiyFrnK3POlWSfOypw2bVr693//97zbu+J4FuukSZPS3nvvnU488cR00kknpQMPPDCLasQwg6A3WG4o0rTZ0mRlimly1TUJy1BtJTeb2C2NqIljqv302jbwkGBihXpdQmmbuLAug6C3CNEMgiBognDPgyAImiBEMwiCoAlCNIMgCJogRDMIgqAJQjSDIAiaIEQzCIKgCUI0gyAImiBEMwiCoAlCNIMgCJogRDMIgqAJQjSDIAiaIEQzCIKgCUI0gyAImiBEMwiCoAlCNIMgCJogRDMIgqAJQjSDIAiaIEQzCIKgCUI0gyAImiBEMwiCoAlCNIMgCJogRDMIgqAJQjSDIAiaIEQzCIKgCUI0gyAImiBEMwiCoAlCNIMgCJogRDMIgqAJQjSDIAiaIEQzCIKgCUI0gyAImiBEMwiCoAlCNIMgCJogRDMIgqAJQjSDIAiaIEQzCIKgCUI0gyAImiBEMwiCoAlCNIMgCJogRDMIgqAJQjSDIAiaIEQzCIKgCUI0gyAImiBEMwiCoAlCNIMgCJpguaFhRn7vWX75y1+m+++/Pz3wwAMjf+lfVl555bTpppumN77xjekVr3jFyF+DIGgXfSGaV155ZZoxY0aaOXPmyF/6lw033DB9+tOfTu95z3vSGmusMfLXIAjaRbjnQRAETdAXorniiiumVVZZZeRfQRAEraMvRHPNNddMb3vb27LrGnG+IAhaSV/ENF944YV011135bjm7Nmz0+OPP57++te/jvxvfZZffvkssK973evSy1/+8vSSl7Rn/tDcf/vb3/JnfvbZZ9Mf//jH9Oc//zn/bTy3ImKaQdBZ+kI08bvf/S4tWrQofeELX0gLFizI/x6NVVddNW2++ebp+OOPT5MnT06vec1rRv6ntRDzP/3pT+mRRx5JCxcuTHPnzk0/+clP0u9///v0l7/8ZeRRjQnRDILOsvxJw4z83tO89KUvTa9+9auz1fbYY49la3M0WHYEbPXVV09vfetb09prr52FU3y01Zf3ee1rX5vWXXfdtPHGG6d11lknW52E87nnnhv5hPXxvB133DGtv/76+bWCIGgvfSOa3GtutuuJJ57Iwsn1bQTBLEK11lpr5bjoSiutNPK/rWO55ZZbHBpg7aq3dPkbC/RXv/rVqBZniGYQdJa+KjkiPBtttFEWla222iqtsMIKWaQaQTR/+tOfZhf59ttvz1Zeu6MVL3vZy7Klu88++6SpU6dm67Nd8dUgCJqnr0YngXzVq16Vtttuu7T77rvnmB+3fSyuv/76LJxcem57J3jzm9+cdtppp7THHntkIQ2CoDvpO5OGcL7+9a9PW2+9dXrve987rgQPsbzxxhvTj3/84/T00093RDhZyeKqO+ywQ05QtSNUEARB8/SlH/jKV74yx/z23HPPtMkmm+T12qPxzDPPpHvvvTddccUV6c4778zC2QkU6EsMvetd78oJqiAIuo++FE3WJtHhpu+6665pvfXWy/HN0ZCAYW1ax/7oo4+m559/fuR/2ge3nJVMNN/0pjflpFYQBN1F32YciKSY5l577ZW23HLLMa1NGWvCefHFF6dbb711zDrPVsFK5p7byYiABkHQXfStaEISaNKkSend7353evvb3z7y18bIpt99993ZTb/55pvHrJlsBT6zsiKfWxlUEATdRV+LJjddIohgSrCM5aZLAIlnctOvvfba9OCDD7Y9KeQzszaJ5hve8IaRvwZB0C30tWhCzaPax3e+851ZOLnpY9VB2sxYGZLljX/4wx/GXMc+kRBNmXQlSC6rnPwtCILuoO9FE1bOyEq///3vz2U9Y+2ExC2XRb/00kuztSm73m5YmdaZv+UtbwnRDIIuYiBEE5YsWiVkowuZ6bF46qmn8oYaF154YXr44YfHtZnGRELoCaclniGaQdA9DIxoimXKRhNN4mlLuNFQcqTonbV500035XOI2olyI4kgcdhYVhkE3UPfbA03HiR1bNBxzjnnpHPPPTfHLUeLV5ZNQA4++OB04IEH5vpJyzTbBQv3mmuuSbNmzVps6bI8fR5lVIO2W72uahMW5WA8AT9VPPi7kIt4tTIzXoVk2rJa6F7Xvqe//vWvF7+fGDfU1PIGvCfPxe9i0Z3A5zTJ+3y//e1vcx/XTj67aoyyqxZDQYy82Um4tIPXdnkfCVNjx3fW1trBe/g5EW3fzQyUaBbUYZ599tnp9NNPz4NgrAy5DTUOOeSQdNhhh+WVRuEutxdd1AAVW7bZtOqG6667LodPLERw/3gRPAh1udtvv32OBS/L4gCvKbb95JNP5gUPJi8ex2233ZY/j8UTKhy22Wab9OEPfzjvydrOCRU+h89JMH/xi1/kz8cQUC53zz33ZIEjkk41sBcDL8vv400uVtv9N7/5TU6M3nDDDXmTm7JyzmQhYam2eJdddsnLl3lH2qJfx8lAiqabbRB861vfyu63PThHgxUj+87CI57+HS5z+2A53XHHHXlXfoPWtn+20XOxgHRh4RcDlaVDHPbff/88iFlazQ5eryc0473OPPPMXLtLPL1fSQp6XTFnO2odd9xxOdE4VoJxovFZJCovu+yyXFus6oNQ6s8scIKnn7L87GVA0CRDtY1/j9WHtfstt9ySfvSjH+WJw+IPRobX994E22uwurU9i3azzTbLm854DxOLduo3+mY/zWYwwFxuuPPSiyvTCK6xTqiTmEUNzFji2B7sjVpCFMTB/WL1GLREocz5fnePDPTiPQhlCGGMVptbi9cjPiZTYRzWFQHVR6rJQK/PYrNyi2XLNW2Xe+4zsrCvuuqqPJH84Ac/yBawuLvPyfL0+cpj/ZuhIMTgO/is9nDVLvUmFKJoorA6TiLUDmAsS+1eXr+0u59e0/3gtgtleJwJRjiAJdpM+/cCAymaOgrR0+kNSp3NYCsdoR4GpI6hE9hp3UzdqRjWIGAgspquvvrqPHAJpiNCRpvcCgTCwGbpCKeM11X02qypyy+/PF1wwQVZLLxWEaBaiI84NxddHLXV7qj+qR/+/Oc/z5bl+eefnz+ricTfR+u/IIbatViE2qVqbfqehNXesgTT65s0WPbVCWo0jBHCaaKRyCScjIxWt007GUjRhNmPAHKpfvazn+WbbKA1Qofy/zqEGKcYmuf3U2foFgxO1qIYnRAK15D14l6Z6FwGvInPY8tVcK/8myBsscUW47I2PYelxHoT7xY3ZS2NBvfcTlolTthKfB/9j2ASM/H48hm53/piaZcSJqhtF5TEDaGvtovHsSK1+VlnnZXOOOOMPEn5e3ltP12l7cvzat/D5zThQV20q5+szYEVTehALAQDVMzKjDoaxfrRYYimzhDW5sTjfjgk77TTTkvz58/PXoAM9QEHHJDjhx//+MfToYcemvcU8Fj3pFbg3CuWFfeZuI0lal5DgmP69Ok5jjeW5wH3f9q0adnzaHU80/eR4CkJTIkfE7bPIE75iU98In30ox9NH/rQh3JMl3CxGrVPLfrvlClTcqUBAfU9Jb24+TNnzsw/fX/hjd122y195CMfSccee2w65phjctLLd2Zhsz6rFQVVvKb3Z21qH1Z5vzDQoqnT6UCEz40vq38aDRZ/L4ORey4uNFa9Z9Ac2p84cI+5niYzceT3ve99WShZjgahScvlfpjsWEVVWI4G9QYbbJCfP9p98p5E2nuyagmB546G+8/C9Lm8dqt22/c9CJq47ve+9710ySWXZGuTxfeOd7wj7bfffumDH/xgrhywXJhIEShhBf251hDQh1l9kmRl+0ETBnf/vPPOy9l37UFUldntvffeeYvFshcCoXV5Hz+FNNyjWuEsQswoIb7CJCz/fvDMBjoF7AbK7lmuKJiv440n2/fQQw8tLr/QOccaYMH4IViSGmKZQiYEyZ4B++67b954ZbXVVsv3yMAXs9x2221z5lrcrAqxEeeT1OHaE9d6uHdigvPmzcs79xMQjyWChEF2nDA5w4lIlThgmTSJQqszxOUzKrHy03sTsiKY2oCA+cw+i//Xp7VPLcSsGAV+Fgtb3bJNalioXtsE5bW1fbGki+h5H+/n/4iv9q+HdiTckkqjxYZ7jaibGUbHVyyuVEKcZyyXW8cSLDfIxEPNzMHEYHCxWlgwXGoDk7VDGAhC1VLxOytGjaRawVoMUllmlhCrpxZi5P3EMVlwMsQGuvdhxXJBTzjhhBwm+OpXv5r++Z//OQsp0fDZSpKj1SEar8969H4+F5E68sgjs2j67rXWG3EjmFzvWliWJh7/p43VvYqR/vCHP8ztbmLi4rMy1bqOZkFLKPksxo5JrPZzQJLVGJEL6BfjYqDd84KbbSbl8hhgLoNpNFgx3HQdmutidtdZg2XDQDRYHVNigKv3k7RolIElcDLeLBpHllTxePfUa9U78tj94zGwsiRAirASYG63WB7r0r31WQjqfffdl4WApeX/uLGNBGMi8Lr6WAkFccHFMAk6Aa3X51iQ2oS1ThSraEdWKAPBY0wWs2bNyoIpfsnCdLbWePuz9zJWeAfiyrUWvXHCKHEPTTj9kBAK0RxBxzSrmoHFxxpZJwVWjJmaeyM2pEPraMGy4T5wgbWnyciRzCwjf6+Hge0eEE1uZhUD2j0Ue/Q6Bm+BYHLdFa8LsxAQAixuR5RcwjVE3Hu4WJfEt5waSgiKcLVKNOG1ibbPb0JRvcGSbCRALDoTiDgoka+iXcWFfQ8WtrixsjvfxeINyTXfqVF710P7i0NrQ15YFePEBGPFkNiy79HrhGk0go5vFmY5uOq5e7WYWc3kkgdcOwMxWHaIAXeUaBlwo1kn7hsBMXGZ8Py7QDTFSE2AssEF1pCJUR1miZ16nveSebYUk5tatW6JiPchmFxXj+Ga+nsrBbNQPl8pdxvNbS7fu17YyPMIlwoBMUxJJSEOlrW4vnZsRjC9HmOBGDe6TyYuceV+cc9DNCu46SwNcTSzMYtnNMyihNKMzloRP9Nhg/YiDl2sfdZiLVxPIlLwu6SKbHSJSZe49uGHH57jp/WSKL2CPug71/OUWILCCyxMCRp9XOLHZKEN67XfaBBYr6G9Gj3Xe5q0al33XiVEswZWg8EjvsPaGGvW1UG5hlwd4qmj9kuWsFfgNpvseAf13D8DlgvpXrk3rCwrjBSHu1+ew30kmMXC7FV8x5LgqieaJnZ1mKxMwqqO9aCDDsoWbG3MdzywgLWfMEajsUI0tb/P0w/WZohmHbgbLE2z71iuEMyg3HPZdBZMuOntxaBl6YiZ1btXBKS4q+KYJrgFCxbkQUxkJHTEMLmnhKPq4vcaxfsRp6y3ooloaQffXYLMEdf6utDG0oQZPIeFKZHa6Pk+kzHSL8ZEiGYddAK1aQYR14X7NxZKKooFY7VGvVk+aA3uF+vQPatnaVoeKKZWNv8QShHLI7BKdmSLJUBYq83E87oR4mSS4ILXE034juKjMvDi9+LHSztREEqX548muiYnVz8QotkAg1DWVY2gMo96g7GKzsr1Ue9mv06DtF86SbdjwLIQLSmsZ2myMsUulRV9//vfz16BSU0MVEJHJlwZTi9bmAUVHZYvmrhNFvXQRmV3JpPGsnzvIoYs2Eb9fTyi2kuEaDbADWZhim3KmBLOsdBJ7fv4f//3fznIrgMH7YF72Ug0CYjJ7D//8z/zckEWp8SP7LxVL0qbRsvQ9xLih6oFrBwSR6yHttKnlWEta5kcl9sEpO83cr8JJqODhdsPwhmiOQoGEmvEUjFxr2qdXz3MtIp5BdntLC5BFLQH94rLaXKrDae4J4RS7aJ4H6uUYCodIphLkwDpVrjkpSKgnuWnbSS9hJ0aFcc3g/fgZWnjRqIpfKKNTWghmn2OG2yGtPegndvNzGPddB2Hm+64AT+D9kA0FcErm5HJrVKsIYLC2nE/Hf+gtIyI9Hocs+B7svicLVVbZF4Qv1QhIFs+1s5P48F7ei9tO5poKksKS3OAsPzLigkuDWtTJxiNUmLRyD0KJh73hKvpXjUSA4OWC68qwuX3se5lL8HiU15lZ6N6oSETi+WYjr1QbVAvlNEsYpmsTOVLjcqJiqXZD4KJEM1xwIWxxZiBxq2J5ZLdB0FkzYwmmv7fbkmSP+PxGnoN4iUB2cjSNOELR0gCjZXYHC+EWshjtOJ17zXaUtheI0RznBhwOpydZbiAYyUODMhljRcF40d7s2iUDdW65wX3jFiKffbLAK5CvKz/FhaqZ2lqG3242bXlo0GchQQaWZqs2bLMsl+s+hjV40Qn49LYX1F8k3DWg1CqF1Q4rNg6aB/a3uAcLVZXkiP9ZmWi1GfKntcTTVa4VVNlE5KJQMJJjbIKhXrvWUImYWkOKFY9yM7KPpq1a9ERxW648AqHBduD9kIQeAX1rBqWEEusH1dsmQzE0MvJmbVJGYJFvGzOMZFZbELtPbVrPdGUeGJgCA30i+cVotkEpbzC7Fqvg4jdlB1jrF+fiOxk0ByEUR1iPRe9Kpr1ynF6Gd+HxcfSrIVAmvAlvupN9suCQvp671lgYUo+sTjD0hxABLstw1MgrRauFp1DsbSaTjNs0D7KunIbCtuIgwVUC+tLvaYVQvUmvV5GEohoumohVgSziNdEoQ2JpomoEUJaLFwGRb+EREI0xwmXR3G07cSs+iGgVcQxxTtlZrkjE5WdDMbG4JX8sBLLZhyyx/UyucXS5MYSmX6Blcl6JphErBaiycIU7xW6mCjUZrIyTUS1EEihKuOCYPeLa44QzXFgUBqIrEwbcugk1UwhN9wKExs/jGcfzmDiIBjKbOzabkIzsZng6uGeSVhIlPRbXNMkLrbou9VCsFQMcJW56RMFgbbxSb1FHOU97TTPwu0nQjTHgXIKZ8k44pV4Vncw0jkcHWCXHFn10bbICiYeFqVD7qwtt3SV9SMJpLyo1rrxWAOcddRIWHuREs90SqpJoRaWJgGzCc1YpXLjxXsqorfyzZioxXsqb1JBMp5dwnqJEM1R0DFYJ/ZetFemw6P8raBjsDId78o11zGD9iFGycK88MIL8/0xWXFDjzjiiPTJT34yW/+SQgX3TuyTi17Pje1VioDVhowKxeqbqFU53s8ExKqv55rD2FB2xz2v3oN+IERzFAwwQilWRjhrkwvcHauEdt5554Yb4Aatwb2RjLv44otz2MTgZWFaTy5MYp9IsbTae0JoiaarGmLpVQiY8JHvXy/5hapoTgQEUzKNaNZLAonnS/7YWtH71lr8vU6IZgOsdBAjEsOcN29ejt1UUdJidcm0adNy5+jlIxJ6DfeGZeWcG5dt0LidwiQmMRtSiKPJ3LJ4ahH3IzLEpuo59CKEX3xWXxVGqkW7cI8lgSYqnimJZgcvhwrWi6HK0FuqaXz0m2uOEM06GEhmUlbmRRddlE8uNMAKZk4BblvGOS5A4W7EMduDeyN+x/L/zne+k2NqBjGRLGESFqawibKvekXupUzG8/pBNImlWG090WRdWgWkj06EJ6S9vI+wCNGsDXMYBwSaxW+M9GOtcohmHSR67L5+/vnn5/Ki2qSBAnZbixmkLMx61kzQGrigEj7nnXfe4mOTuYB2oXI/rKsmlKwqLmIj0ZQwkXVvtJ1Zr8DqNomwvOuJpr6pLQjmRLjJJhrv5R7Uez8hK0cbWxHHG+tHYyJEswaDiIWpgN2Z2ASzxL50Oh1Qh2DRcAcNyrAyWw8Lh0AYrE5TVMAurqn9hUdY/dxB5V7uh+QD65OlVTupqdNkmXFpez2uaYInYsIN2qMW311buOpNIM3CHXcWViPRZF1a3GEJcb/WKodoVhDg1ikkFgimOGbVEjEgzaLiZtaf11uqF0w8BFMpEXfQGT/uj7Ih4sj1VOrlqm4oXCxNVmht9pZ1yj2vDbv0GtqFUOqnMuf1vouJnpUptrmskzsrU/JH+Z3yJv8ueG1WpuXDzo0fz76zvUqI5gg6IKvSLHrllVfmM36q6ADKWWwNZzPiRrscBc3B0iOIRIzLXG/ws6bUAs6ZMyfXY8qaF6ufxc/KdDBaFUIhpqnkpd7kxkoy8L32aC66fkFkXd0msGUyIZrV2uEqHlOuZcHzTVRiyU7zrEIwjQ8lRrwwSaCJCAV0KyGaIxgU9913X5oxY0YWztryDSJpcO6///4TcrZK8HfEFcWODz300Ny+06dPzxZlgaCJXZ599tnp9NNPz64oZGiVFX3gAx/Ig7XWBTeIPcZEV6/Uhji73+KB3P56eG/WlHCAy9r2ZRWfiYSIE39t0ug7+Lwe5xptchiN0g5qYV3aoQorlkXv7Hix5Ylc396NxMgfhluubIUVYxY1kKodTCdQKM0tZ7mwcIKJoYjX/Pnzs+t38803Z0uSBeX/rCU/66yz8hJJoRODn7tdNoQWz+SW17qeRFTmlmjWy+CqjpB5F9esuplVeB5ipyzcU089NX31q1/NfcTnWFoBmkh8bn1VfLaRaPq7GC5xXRpLmei6Dw4LVH5nAqt9Lxa9Y5BZmYyL2gms3wjRHEYQ3eBgTZi1a10dloxlkmZRcc2wMicOmWxun0FtgLIyLSZg8ZfrkksuyeGSYuWJYwqROF65ZMtrcY8kIkxy9SwfngWxIQJEpVYEibaJVPG8iXThwoVp0aJF+bEm2W7AZ9R2tUt7qxBWE4N+7fHNoL3dH57XrFmzsmteW5cpbmz/WBa/5M9EFdB3MwM9+nUKnUqn4HYQzupsbMY04FiYXMeIY04s2t8g5KIXWH/f/va308c+9rF07LHHppkzZ+a/FUxapbzIuU21SZ4q7p+VWuoGa9dci6WyNq+//vpcqE1EfR5XWW00d+7cvESTNUecJf9khlm23TBxsoQJooRWI0uziKbSufGugtIGHsfCNDbsuTB79uz8PtUJgwVPMA844IBcr1zP4u9HBlo0dTQDUqdQQlGLTrD33nvnDmHwDUKHaBcGpgmKIBGv8cIF5Ao6hnes+0HYWELEVcF7LSwvpWWXXnppFhX9gcXGqhQS+MY3vpGtUUKtWNs56Xbu75bwDKuXII6F72QCEPrQ3mPB6iaYLP6vfe1r6bvf/W6O8dcKrvtw2GGH5ZplbTIoHtjyJw0z8vtAYYBwbcSrWJkykNVOoWRCHPOoo47KA1QRe4jmxEE0WUFiZTfddNOYg5/b5z4YpARsPMk494vrLvzChWVR1kJQ/L8VLmJ2LEvhAC45l9Z7WMvuFEulND5HN/QDFp/dnUz2Qgyjoa2Jnot1qk2InJ++n+9DKIVIWNgljqy8yyIPLrrXgOfwuLjjBx98cLa8LVcdFMHEcsON0dvryJYCX1l5iwErwK+YvWrtcPnUmxkohx9+eO4Ute5dOyDirAkukgHMhSwYwAqJWcO9iO/G6pFc4fpJBjXChKVwXeKH5c/qH2/htHtNAO3oXiym8SRxiECZOI888sjFyzO7BeKn6sBSUiJXhQiWJZPaubjU+rEEmjCDuDD3uvRrbcLyNi4k5MRv3Z9qrFRfY7Wz9t0HpUXaaJAEM0M0B43hgTN0+eWXDx1yyCFDw5aDSWOJa3hQDh1//PFDwy7b0HCnG3lW+3nmmWeGhq2woWnTpg2tscYaS3zG//qv/xoa7twjj+w9hgfj0N133z109NFHv+i7VS/3Z8qUKUOnnHLK0PCAzs9rlmGPYmjmzJlD2223XX69YVGp+17lGhacoWG3fmi33XYbOuecc4aGJ6yO9oN6+E5f/OIXhzbeeOMXff5hERtad911hzbZZJOhYZEbGha2oWFxHPN717uWX375oWFxHVprrbWG3vOe9wxNnz4997thkR35JIPHwMU0h79zztCKY7nqLT1jxcmWWybZyVlUCIHLJFFSG+gXZ+vlZWolbiZmOFqcjaWnhtMemWoBl8biVxLjnopJKkEa6zWK+3niiSdmi6ob63L1C+Gleluz+X62K/zMZz6ThiebfARLo81LxoJ1yQX/1Kc+lb70pS+lD33oQ9nD6YYQRacYqJgmV0UnE7OypZgYl78VxKsMLrEaWcFOZwOFDMSt1Chy06uf1YmXVsH06pZ0XEaxRDE0MTOTFyFVraBMSIacyMnMbr/99ovFbmnuB8ETcpEUksgp95Xr6bJiyHsSaO067IGkPffcM02ePDn/Xze6n0qwSnKn2i/ANZ86dWpeWsqFVsvKpbZlnrIgk4C+Dsm48nzLILVDKbFzSKCxIEzlfphMPK8b26OdDExMU8cwO8uWCnILoFdLXVhuLEsxTCsbymYcnaTUCZrXxJuIis8kFvU///M/OUHRq+evEE3xM/Fa8UylR6xpg1LszQAVx/RzooRLH2DV8jTE7SSf9An3nmBoS1aUmKlYXbcWaRuy4pmy+5JXVXxm3+Xzn/98Fn4i6PHaVhuLjWt3xoO2EOMtXowJy/dmlWoLz1Wupb8NulBWGRjRNDjMzl/5ylfypsI6TkGHEBhXOvGJT3wiDxoDqZO4LTK6BF6yqtSPsph05s997nPZGuCyBr0HAReeIF6lRhSsRFY1ASvJnCoeZ8L53//933TmmWfm2uIq+q3++x//8R/Z0iSA/YQ2I/5+FlQC8B5Y0CaNVnuHAzF9sNAU5qo7U15UW96ic7JquGYszNEKptsFkdQ5fO7qvEbgxTJ95m61hIKxYeH96Ec/Sv/yL/+SVzZZ4eRyEgDvwr2vh74slCG04TVq0Xdl+Sdyp/ZuwmKEE044YXF7ucS8v/71r2fDqDZU0QoGQjS5JBpbLFPD1hrXZmQrTAS8iVE3BLnNpGpHxV0NlCrd8PmCZUM/dH8trvC78AsLkqUo9tpI8Eymwkr6dNXaKnieTbLFuutZqr2KMSuMwIiQANNe5fI9hSR893aEEfpaNDW0jsWFMauLY5X4DSQWxLAskSScZuduid0IH4j1Kcquijzr0sBiUXQ65hosPUX4JMHKpCh2SPDEE0cTTVaoftFINMsmJf3UP1iQwhjaTFK0ihi4duOBtcOg6FvRLDMToSSYEj8KgksH1aHMTkozynkm3SCYPreBIavMChGsr4qmzyhZQjiXpvwm6Dzup1gmF1sfLfe3VA6IQzayEj1eeIm1pT/XQjSJrv7RLQbARFBiwLUWtnHM2PGd2xHPRN+KZmlkW3kRTI1dxUwsjmlZnuV5Olk3UD635Ws2ya1Fp9A5DIhw03sPAskNNxlWqzdANCUkVQs0ildbeipk42c99GOv0U+uObRZvbCEMATBlARqF30rmmZyFqageu2aYx2KYAq6+0lAuwXBfdl9RzrUE82gtyGa7rHYnD5aRT/kWuuf9axEwuG5tUdNFAgIN5WA9FvoRvKL18jCLsuJGQ2+qxiwCadd9GVxuziRTSDOOeec/LM2yyhDbrs3RbvqALvBzTWYyt6F1mLbu7DWEgErhNDLGvbj4BgE3GuiyBW3mEKIyGU3ra233jrf13qiqRBfLJP3ZPf06l4EUH5WNssmoP1UXVFCGNpGoX1pM5UHFqK0cxz3XZ2meKD6RsW/NrCtbhqrI+pMitetNtFJl3aVyUQgvurzmkW5azYOURJldxnxLoOkFpaIz2+/SStWQjQHByvEHGrGzlGgX2sMOPTPcSz/+q//mi2vfhLNbqKv3HP6TySVFxEfWcYimOD2iF9aKWG2AtESXG/3RRAF8rkbrEsb71onrJB9tJ24g8HF5Mql59rX6x+8EJlkyaCId7eOvrE0WW3clVmzZmW33IyshqsKS1PcSAykG9wXn5moGwCsCFftZ64lLM3BhXVpHwJLJE32tUNX6ZyNTSQ39fUQztbQN6Ipo2ZzC6cZ2idzPDta9yJiNzZR+Kd/+qeuKZMKWo9hqt545syZ6bTTTnuRYEIs0y5E+kfQOvpixMkkWl0hQF7v8Kd+gnXMWm6UYQ36Ex6J0BP3vJGdw7KMPtF6er6FdSAi6QhYrrkYYTWO2Y+E29UbCL+Y0CVsLJVsdAnJ1HO3qwjhqKaoLVOq4vnec7TX6XZ8/hLvr9dW5fL/Hufx7abn3XMNaE352Wefnbd90/k60ZDtwn6QxxxzTN7CrpuOXwiWxLCytZ8zhxwNXT1OpQqPQTG6WKR9Q23NVg/LavXxb33rW3m3rnoovbEXqP7Rq56IsBqPUdmdCpJG8qQeVaWAfUOVIbWTnq3T1JjEUR3mRRddlM9JEdfs8TlgTCyxUyqlvES2NOhe9EXiZbku74DwWenFGyoXl9u2ZuXMp0a78dvhXh+36KFe5hzGg/fRL1xeqxfLjnxmn1+7aDM1qQr6q+3mMZY/d+Ks9Z4WTa4PK9PKn+rZ2P2MdbYKegflYP5ehXiVJY12TzfZcdP106orbuMVO6pbrOCxjURO5pxoqkFuhPHA8yLELlabn+Wz9IKAEnrLIu0272SC8j2qeQqPcUCcI0l4W402N2kVPRvTtEZbLIgL1M+Jn3pEsL93KIJlFZfVOqofqmViFlcY+NzyRitaCOxYZymBGLPIlNwdd9xxucJC7a+9F2pXD3Uzpc3KyZlc8SraSphKW7Lk202Mvh6DtcA66QWrIRgbAmrw8xqIRS0lMcIwqF0BNBYez7Dot9VB2orHRTw7Uafcs4mg0pkcLGWFBLdkENBRrGZSoN8o/hV0H2JzNo9xtpPyOFahyc854ieffPLi/VxrMTx5Vdxz2wU261XpJ87wlyzphj0WmsEYd9yL8+qt8CsIZxx00EF5gUcnEl59t/Y8CLoRbrOM8Be/+MW8MQshtOTRaQHSCtz3SOz9A7JkYrG82FlIQgwFidCjjjoqC2cnQlXhngdBG1BXqMaSpUgwwdJkCRLPTsTmuhlWpsSWCaa6tJhI8ra0W6di+yGaQdAGJHFqXeuy6bCfsYfAkphYxGTValY3HdZWsutEs1OEaAZBi+FmEsza/VElNAiAkpmoiFgSoqm95CuUHRXEfQmmGs5OEXcqCFqI2Bw3k2hWS4Zksw38snluvcz5IGP7RMkzlmb1LCQbLUtqdfK0hRDNIGghRLPsm1q1NMUzqweCBUuiMkaVAde8upeENnO1u6C9SohmELQQCQ3rzq1qqYomi0lRuyWW4ZoviTaz4TLX3M8q2k2bdbJ8Ku5WELQQsTluJtGsFqfLABMAZUbhmi+JGDALU5lW7Uomm3Bru062WYhmELQQounYWckMYlBQZiQ2Z7lgiOaScM2VGlk6Kh4MliW33JJKGfROEqIZBC2irFojmrVLIG3gQTTVZ4ZoLkk5C0kcWPtBDNMmNWLAnT5yO0QzCFoEK1MSSEKjdpkvN7OTtYbdjLbSZlVL05JhNa2sTUm0ThKiGQQtQtkMN5PVVBIaZYOObnAzuxWiKQYsa15WebPIWZnarNNr6EM0g6BFsJIMflngUmuovIhgsjJjrfmLEfcV/5U8E94osDRtB8c173S1QYhmELSIUjZDOEsWmGhyzbvBzexGTDQWAWizYmWyzlmYdrbvhjYL0QyCFmGjiYcffniJrDkBIJpWA8UmHS9GmxFNVxFNFnmxzrthO8QQzSBoAeJxMuYywFXRZGmKaRKCKGp/MdpMAkgiqLjnXHLxTBUH3bAnaNy1IGgBkkBWAhHNsgyQSHIvu6Fspluxaso6fRZnsTS1lfIsE003LDkN0QyCFqC+0KoWmfMimlzLUtQe8cz6qDaobgUHomn1VLfsBhWiGQQtgKUpY87drLqZMsCSQPVicyyrYl0NIr679qpuOgwWJtHUZrWiWdqsne0WohkELaBsB1fOAwLX0rJJVmatm0lgneF/3nnn5XIbojtIED3fWY1m7XpzFma98iyT0cKFC9OVV16Zzwprl3CGaAZBCyhLKAlAsTQtlySWrrJ00v95zI033phmzZqVzj777HTFFVfkWGh53qBA9Eww1a3gwLqs3dmeNXrHHXekCy64IB++dtlll+UEUjsmmxDNIGgRBntVIIkBS8plcLuU1ixYsCBdeOGF2WJS18lCJbjtdDm7BW1Vuxaf1V721XRJFt16661pzpw56fLLL0933nlnjoWqi23HRBOiGQQtgGCqw6yeZ84FdwyvQc6S5Ib/5Cc/SV/+8pfT+eefn0V0r732SgceeGBeZ13rwvc72sl3ro1baitWZanfnD9/fjrjjDPSV77ylTzBbLfddmn//ffPG3q0Y3PiOMI3CFoAy8dZ3f/93/+dBzwriBhIZijSlhQiEv5OCBzh+773vS/tt99+OVk0iLsfkaIf/vCH+dje733veyN//fsu92X/UQhnuLTPEUcckaZOnZo222yztpVxLX+SQ5eDIJhQCKT4HLeSdVlim9xL9ZtKkYilvzn7nKW0++67p0mTJg3sdnG+M+E04VhJpZ38W5uVhQIubLjhhmnatGnZMjfhtHPzkxDNPoYVYw0vd9DA1QHN2nFcbOvRxlavaG8upLgc99t2cTLBajUN/ClTpuTBv+uuu6b1119/YAWzUGoxTTjEs1QesNCVall/rs1YlyYabdYuC7PQle65j6SxyuxcPqLOpGRDx6qNewT/QJtJJDz44INp3rx5OV5m1j766KPTvvvuG/s4tgn91sR13XXXpR/84Afp2muvzRleA3+rrbZK73rXu/JFQGMi+wdiv/fdd18699xzc5uxyk00m2++edpxxx3Ttttuu9gi7wRdKZq2hlJ39bWvfS13shIPMgsdd9xxaaeddsqbHgQvpszQYkMutX/ac/LkyenjH/94nqFXXnnlkUcHrcYEpjymFG27PwY7C1SSyEUwB9m6rKVM+iZ6bcY9lyAy/rUXw4nl2ak260rRFM8w4D/72c/m8gKNppOts8466eSTT0677LJLNtWDf2AwPvDAA7nY94YbbsiTjtla3MyEs80226Rjjz027bHHHnULhYMgGB9d5+PScMHzEggmmDCzrLfeejmDRkCDv2NGVrpyzTXXpNmzZ6cZM2bkYl+lLILmpf3MyuUKgmDp6TrRZJpzJ7nlfi8wzdWu2R6qHbVY3U71/BlF0V/60pdyOEOxb7HOgyCYeLpONGUYxeQEf6uRA5Ym0eRaDlrRbz1K3PJzn/tcOv7449PVV1+dxTIIgtbSdaJpiRl3k6VZK5rc80E+J9qEImzBDT/llFPSqaeemubOnZueeOKJPJnIiisCDoKgdXRdIoi1ZPMCYsBNLx/Pxq2WlxFOGbRBwfcXpiCM9957b86Ga5tFixblyUO7WEHCCvfvhx56aHGZRqlxk61VQF0SQe2uawuCfiKWUXY5BFNhtJ1v1FuKX5pMJMSsuSWCu+22W471EkkTzvTp07O7XjZzDdEMgokjKsS7HAkd8currroqlxKpWbUi4tOf/nS+rIrglhNGoQu/27hAOCMIgoknRLPLUfgsTmk1hNU8H/vYx9IJJ5yQ1ykLVbAay/Zj6jE9nmDGiqkgaA0xsroc4seCLNtfietaSuZEw3r1qsRzUBNlQdAOQjR7ACJoGaS4pB1dYtldEHSOEM0gCIIm6Ej23GoWa6IvvvjivNW/8phG2M1EdtgmHbF8cmyUJX33u9/NG7mWvQcjex4EE0fHLE17DSqTKduU3XXXXemSSy5JF1100RKXDSgIbBAEQTfQEdGU7V1ttdVyNvjf/u3f8pZlLElCWot6ROJa7/+CIAjaTUdjmpIZlv9JbtiMlRtZixUvtoGLTVqDIOgGumJFkNibQ6g++tGPLl7FotRGvaE9NT/4wQ/mbe3HQiG4lTN2+uHudyPE3wbKDtBSRjTRa8UjphkELYZodprHHntsaMaMGUMrr7wyAc/XsGAOTZo0aeiMM84YeuKJJ0YeOTrPPffc0Omnnz40ZcqUxa/TbdcKK6wwNGxZ58/5+OOPj3zyieOee+4ZOvHEE4fWXHPNxe85LJpDw5b80Jw5c4aefvrpkUcGQbA0dEXJkTXTtrUf/jwjf/nHrkYSRYq7gyAIuoGuEE2Cqeyouukwl1I8c5VVVol11EEQdA0dj2mq2VSr+Z3vfCedeeaZ+QRKEEynJx522GF5A4rxrIDxVcTxXPbl7EbEau08bxnk6quvXjf5tSxETDMIWkvHRdOuPfaH/PrXv54TOM68gT0iP/OZz+RBvtZaa+W/BWMTohkEraXj7jnRVLz++OOPL3bPDXJu+dprrx2rgIIg6Co6LpoOB7MreTWm6VxuSSCH6Ec8MwiCbqLjoumYXmcCEc4imtxHMU2rhmIlUBAE3UTHRZNYusQyS3iVaCoAt1ooVgIFQdBNdEw0CaQVPNzy2g05VlpppWxpcs1j38ggCLqJjoqmJNCTTz65eOkklOSUJFBsthsEQbfRMdEUvySWjz32WD62t6B2cZ111snueQhmEATdRsdEU1G7o2gffvjhJTYhZmXKmksCxeFgQRB0Gx0rbrd08rrrrkunnHJKPqO7YOefI488Mh166KE5IdSMtcl6feihh/LVrRsXmwh8rw022CDHba0OmkiiuD0IWgzR7ATDVubQaaedNrTlllsS7cXXPvvsM3T++ecPvfDCCyOPHD+xy1HschQEraYj/i/XXBLIKqCy1rxgl3ZxTbu7B0EQdBsdE00rgRS1F9HkhisxkgAimpEECoKgG+lITFM8884770wnn3xyuvHGG3P8UXmRYy0+9alPpfe///255KhZ1H1ee+216Zprrkn333//yF+7Cxa0RJfY4pZbbpmXjE4kEdMMgtbSEdF86qmn8nZwBPLuu+/OImpjjo033jgdf/zx+che1mbQPCGaQdBaOuKe26ldjWbVPWdpssCIZexsFARBt9IR0bTOnLX5/PPPL15vzm3lqjraona9ufjnPffck+bMmZMeffTR7IYHL0bJlTY1EZXNT4IgmFg6IppET/a8GhmQ+OFGEs9qEqjEPy+++OI0Y8aMdP311+cNPjoQVeh6JNieffbZvGu93wvaSnsTU1Z+EARLT0dEE7XZcZaRAc8KJaoGPcEUo7v00kvTueeem5NGt912W15BFKL5YrSdrfas569a49rWUlXtVl3nHwRB83RENAlm7RJJA54LbjWPgf/000+nhQsXplNPPTWdccYZOcN+yCGHpH333TdtuOGGscSyDsTyjjvuSLfccku2LAsmoEceeSRb7H7GhBMES09HsucGtyWUn/3sZ3NpELexLC90iJqEEDedeD744IO5FGnnnXfOojlp0qS8z+agiybrsRx9LD7MIp83b1666qqr0qJFi5bYn7Sg7d75znem3XffPW2xxRb5eGTb8NnoOepig2B8dEQ0iSSxnD59erriiiuy9VML0ZQUUoakBGnq1Klp6623HtgBLsFz3333pdtvv33xLvdEU0jD5MJCZ2X6STDrUSoUNtpoozR58uS8+mrFFVdcvDv+qquumtfEb7LJJvnvIaRB8GI6IpreUmxNrJLrrWZT8oIIWBVELA1gJ1Lut99+aZdddskWKCEdVLTP7Nmz0+mnn57mz58/8teJhSV68MEHp2OOOSafABohkCB4MR2LaXIL99prrzxA995777x80iB1oNqee+6ZPvnJT+Z4Zjn3fJAFs11IHrFoq5n3IAiWpCOWZoGLKcFTjryQvBDXVK9pP03uozKksHj+Lmg2OBHK4I63AosKbFdnE2hb1oV7HgQvpqOiGQRB0GuECRcEQdAEIZpBEARNEKIZBEHQBCGaQRAETRCiGQRB0AQhmkEQBE0QohkEQdAEIZpBEARNEKIZBEHQBCGaQRAETRCiGQRB0AQhmkEQBE0QohkEQdAEIZpBEARNEKIZBEEwblL6f00koIScnKETAAAAAElFTkSuQmCC;" vertex="1" parent="1">
          <mxGeometry x="467.5" y="490" width="51" height="42.88" as="geometry" />
        </mxCell>
        <mxCell id="vPh5yiBVEbnupIEMpU4R-136" value="" style="shape=image;verticalLabelPosition=bottom;labelBackgroundColor=default;verticalAlign=top;aspect=fixed;imageAspect=0;image=data:image/png,iVBORw0KGgoAAAANSUhEUgAAAkEAAAEgCAYAAACzRKfPAAAAAXNSR0IArs4c6QAAAARnQU1BAACxjwv8YQUAAAAJcEhZcwAADsMAAA7DAcdvqGQAAG4gSURBVHhe7d0HlLxFme/xVzFiziIgIJINBBEJIqCSFclBJAgu7rJ3V8W9ctxwd91d172cY7i6CohkUJCM5CBBcpK4CIiiKCAqohjZ3bnzKaf+Ns3bM9MzPfOf//Tve06fCd39hnqrnvrV8zxV9ZSRUZoQQgghhCHjqWM/QwghhBCGioigEEIIIQwlEUEhhBBCGEoigkIIIYQwlEQEhRBCCGEoiQgKIYQQwlASERRCCCGEoSQiKIQQQghDSURQCCGEEIaSiKAQQgghDCURQSGEEEIYSiKCQgghhDCURASFEEIIYSiJCAohhBDCUBIRFEIIIYShJCIohBBCCENJRFAIIYQQhpKnjIwy9vsizSOPPNL87Gc/a375y1+WvxdffPHmJS95SfPiF7+4WWyxxcr/QgghhBAq80YEnXTSSc1xxx3XXHzxxeXv1Vdfvdl9992bnXfeuXne857XPOUpTyn/DyGEEELAvAmHPf74481vfvOb4gny+vWvf9384Q9/aOaJxgshhBDCgElOUAghhBCGkoigEEIIIQwlEUEhhBBCGErmTWL0V7/61ebII49szj///PL3Wmut1ey9994lOfr5z3/+Qk+M/v3vf9889NBDzQ9+8IPyuv/++0sOk5lrrm+55ZZrVlhhhebVr35185znPGfsW/3z3//93+W49913X/OjH/2ovB544IGSH1XPtcwyyzQrrbRSs+SSS86JsgkhhBAWBhFBM8j//M//lCTte++9t7ntttuau+++u4iTBx98sHn44Yeb3/3ud81Tn/rUInpe9apXLRAnr3/968vPF73oRc3Tn/70saOND5H1wx/+sLnzzjubO+64owgtost5LB0gcdy5nvvc5zaveMUrFpzrda97XbPaaqv1da4QQghhPhARNEPwyPz0pz9tbr/99ubss89uLrzwwua73/1u89hjj4194skQIbwzG220UfPud7+7TPMnjp75zGeOfeLJVM+PY1966aXl/r/1rW+V2XHeGw/ep/XWW6/ZZpttmje96U3NK1/5yubZz3722LshhBDC/Gaxfxxl7PdFGp6Wb3/720UMgHhYY401mje84Q1FRMy2COIBOvfcc5svfvGLzYknnli8MkJS41E9R4TTXXfdVTw3RJEFH3vxq1/9qtz7pz/96eaEE05obr755uJhcqyJcK577rmnufLKK8taSjxEFphMeCyEEMIwEE/QgPmv//qv4oUhfE4//fTm6quvLuEoQuy1r31tua43v/nNzcte9rLidSF0eGweffTR5nvf+14Rctdee20JbwlXbbnlls373ve+5uUvf/mTPEKE1VVXXdUcccQRzU033dT85Cc/Kd+r8Cy5dx6eGuriiRKO++1vf1vO6/zeExLbbbfdmve85z3N8ssvXz4bQgghzGfiCRog9CTvCkFi9WoC6Be/+EXJw9lwww2brbfeurz8/sY3vrFZZZVVmhVXXLG8XvOa15Q8naWXXrpcO68RseJFLPHSyB2qW4AQTY5PaPE4/fznP1+Q9+PzQmnCaptttlmzySabNOuss06z9tprlzIheBzPZ4XSvGw7AqJJmOxpT3taeT+EEEKYr0QEDRBeIInPp5xySvFImZX1ghe8oCQfv//97y95PsSP0BPvi2uqL9f40pe+tHhhCJhnPetZJafI/Uh4XnbZZcv79kTjwZEAfcYZZ5R8I0JJ+MsxfYbI2XHHHRd4dt7ylrcUD1T1Qq2//vpFcPk8zxABxIMktAbizHVX71EIIYQwH8lQf4DwApkBJgmasCAiiJcPfOADzcYbb1zyeyYSYzwwZmptt912JZwnYVmiM2+PPCHeHqEs57jsssvKLLCKfJ63ve1tzSc/+clmr732KgKQmOqkeooII9f1wQ9+sFl55ZXL/4gpXqwrrrhigSAKIYQQ5isRQQPkxz/+cXPjjTcWISTEZM2ft771reUluXmy4SVCSeiLAKqeHJ4u4S/T353DTDBT73mAfJ5wEvbaddddi/gR1hrvfMJq8oycg9eI58z/hNXkJPFiSbAOIYQQ5isRQQNCKIxwMNuKR0jISn6PENRSSy31JI/MRBAwRIrvv+td7yrHu+GGG0qYzUs4TF4QiCBhrk033bTk/rzwhS8sHqWJEILjnSLS5CURTq791ltvXbCYYwghhDBfiQgaEEJUZmfxBoHA4Akyw+sZz3jGhGGwNoTTeGi22GKLElb7/ve/vyAR2rkIo5oHtPnmm5dcHzPB+kGOkVlrQmKO4z6cR5iNIAohhBDmKxFBA4LXRCKz6fAgXsyy6leUdFNFCm+NcJWQmATwuuiiMJtZYBY9nEzOUTc8RhK1iSwhNcLKFH+hNqGxEEIIYb4SETQgCIdOEWR2FYFievx0IGp4kmylYRo9UVQXQuQFIny22mqrEnrjfeoXxyeEllhiiSKGYKo/UWea/jxZRiqEEEJ4EhFBA8IUczk61gUCgUKU+DkIeGjkHflZkTMkCVo+kDygqa7rQwgRV8QWCB+zwwihyaw8HUIIISyKLLQVo52WaJDbYjr5dDvbCy64oDnrrLPKzCbIxbEwoVyZ6ezKzkvCm8Pj4mcvoWH21uc+97nmsMMOK39bmHDfffdtdtlll5JwPFWUi1laFl88+uijy3R5uI4NNtigrAW05557FgEzVRFEXJly/4UvfKGUoXu2ptE+++zTvOMd71ggjkIIIYT5xEITQUItl1xySdnyQcc70b5aE0Es8JJUMcW7IYemrrA8VXhYTCP/2Mc+VmZq8Zi0MVMiiACSbG3tH7PCLJwI1/He9763rPXjXNMhIiiEEMIwslDDYQSLxf+Ekqb7cpxObxJtp3Nv+2w/L+Ks+9htCH3JATLDCr5rppWfU8U9yDH65je/WdYGevjhh8v/CTz5OxZHlHs0CFyn8oLjE248aARRCCGEMB9JTtCAsA4QQVJFienl8oMIoalSZ2nx0li3py5eSBz5nSgSTpyuM4/Ac731+EQQAeSephpiCyGEEOY6Cy0cxrti8b8zzzyz5LlUL8RUMTOLIKiJyTpxicN2a5+ON4PHxV5ae+yxR/nZa9FD5z/hhBOaww8/vHhteFKEq/bbb7+yX1i/ECb2DTvnnHOaT3/602VLC94aidaO7X17o9leQ06QbS+mEvpzHAnQBx98cNmJ37Xzan3kIx9pdt555yldewghhLAosNBEEHTA9TVdCBCJw7wmWHPNNYtwkThMNPBuTBXeEAJjvGMQEgTdV77ylZKkDYnZRJCf/ULwWBTxqKOOak477bQF3h67v1szqG58atr8xz/+8QXT5/tFuI+Ak3NkM9bvfe97RegddNBB5bqtHxRCCCHMRxZqrIO44KWReDvdl+N0hm4IlkEeeyIRxXtiBhkxUj8rhGVhQ4sO9uPpIgptXXHxxRc311133QIBZHaalZ15aLbddttyPpuq2k3elh1T8aYRbzxO9iQjhghG0+4t0DiofKMQQghhLpKEjwHBU2SV6NVWW638JIrM5Lrmmmua66+/viwHMBmnm7wcW1YIg1155ZXNQw89NPZO0yyzzDJlZWj7g5keL1RFoNWQ4o9+9KO+8oOIJnlFVqF2ToJI+I8IIrCm4lkKIYQQFhUiggaI/CMCQq4Or42ZXXJsTj311OLZ4REaL/Qnifq+++4rU+FNVf/P//zPkjsFHhrHtUUGgbL88ssXMWQ9JNPzfd4aSbw5kwkvEkvCabfffnsJ3/keIWebD0sBuBdesBBCCGG+EhE0QAgf4bC3v/3tZR8uCFMdeuihJVeISKkzsLohSniOeIA+9alPNTfffHOZHQbhNeJq4403LmsWCfvxNPmfdXzsUm/Npa9//evNFVdcMakp/d4nnniR5FHxVJlyb3sO57E+0kQhwBBCCGFRZrF/HGXs90UaHbr8G/ktEJLiOSEUCIbZ6NCdg/eEN8WUc54WHhYCx8w110jcmOllFhvPkIUQeWNOOeWU5thjjy2iRFir7ttlltsKK6xQZoDxAtnjq+Y+OZd748Fx31733HNP8UDxHPmu2WSd9y4E5rqILatQX3TRRWWLDMnQEq7f8573lMUX/R0RFEIIYT4TETRg5OjIq3HOupYPL4vZXH7n7fG68847m5tuuqnkDF111VUlp8f1S6YmVAggiy/K+9lhhx2aTTfdtMzUctyKcxErPDhEF/FkXSE/5fj4XXiN0HJcYounSLjNTDCeKYLMMXiYrBLNC2QGWgRQCCGE+c5CnSI/SKxxc+SRR5YOHvJa9t5772b33Xef9hT5qcC7cvnll5fp7bwtPEGT2ZDUdfL0EDarr756s9lmmzU77bRTydHpFEAVj49oIqJ4k+T3EECm2PvOq1/96hIuUwY8T9///vfLy7U4j7CXEJ5zOJe1kDpn2YUQQgjzlXiCZgjnJEDMFjPVnCdGCGyiaexCW8JYW221VRFxpsJb9JHXpw335TtV7JjRxQNE5DifnCReJ2E40+mJMQKJeCK0JFfvv//+xQvkGBFAIYQQhoV4gmYQRWvGl7wgwsRsLyEpa/IIWQlFCZMJRxEg1uYhmiz0uOKKKxZRI8GayJkMjmVKPbEjxGaNIeerm64SZvY2c2wJ0ETi6173ujL1nkdI/lAIIYQwLEQEzRK8L3KCeISIEsnLPDXyhogPoStJz0svvXTJ/THTrJf3ZzzspO+YRBevmHMRYXA8ZcFLRvgQXkTRVM4TQgghLOpEBIUQQghhKEkCSAghhBCGkoigEEIIIQwlEUEhhBBCGEoigkIIIYQwlEQEhRBCCGEoiQgKIYQQwlASERRCCCGEoWTeiCCbftps1AagXjYEXXLJJctCgFkjKIQQQgjdzJvFEkMIIYQQ+iHhsBBCCCEMJRFBIYQQQhhKIoJCCCGEMJREBIUQQghhKIkICiGEEMJQEhEUQgghhKEkIiiEEEIIQ0lEUAghhBCGkoigEEIIIQwlEUEhhBBCGEoigkIIIYQwlEQEhRBCCGEoiQgKIYQQwlASERRCCCGEoSQiKIQQQghDSURQCCGEEIaSiKAQQgghDCURQSGEEEIYSiKCQgghhDCURASFEEIIYSiJCAohhBDCUBIRFEIIIYShJCIohBBCCENJRFAIIYQQhpKIoBBCCCEMJU8ZGWXs9zDD/OEPf2geffTR5v7772/uu+++5sEHH2x+9rOflf/hec97XvPSl760eclLXtIsvfTSzZJLLln+fvazn9085SlPKZ8JIYQQwmCICJph/ud//qf5r//6r+aBBx5ovv/97zd33313853vfKe58847ixDy/5/+9Kflsy9+8YubJZZYorxWXHHFZvnll29WXnnlZvXVVy9i6BnPeEb5XAghhBCmT0TQDKJof/e73xWRc9JJJzWnn356c+211za//e1vxz4xMa9//eubv//7v2823njjIoRCCCGEMBiSEzRDEEAPPfRQc8EFFzQHHHBAc8ghhzQ33nhj8/vf/37sE5PjqU99avEAJRwWQgghDJaIoBmAAPrxj3/cXHjhhc2xxx7bXHLJJc29997b/OpXvyrhsX5YbLHFmuc+97nlZwghhBAGR0TQgJH/I9H58ssvb0499dTiCXr44Yebxx9/fOwT/cETJDHazxBCCCEMjvSsA4QH6Ne//nVzxx13NEcddVRz0UUXNb/4xS/G3v2jV+eZz3xm8eyYCeb1nOc8p3nWs57V6ukRAksYLIQQQpgZIoIGiHyf7373u81xxx3X/Od//mfz2GOPjb3TFKGz5pprNn/1V3/VfP3rX2/OO++84iX62te+1vzN3/xNmQ1GIHXCA/SCF7yg5ATFExRCCCEMlvSsA+RHP/pRc9VVVxVx85Of/KT57//+77F3mmbttddutt9++2aXXXZpNthgg+bNb35z+d+GG27Y7LDDDs3WW2/dvPa1rx379B+pIoiAiggKIYQQBkt61gFhKvxdd93VfOtb3yprAdVp8Lw4r3rVq5rNNtus2XLLLcuaPzXRmbB5/vOfX6bBb7755gveqzz96U8vQiizw0IIIYTBExE0IKwFdMsttzQ33XTT2H/+yAtf+MJmo402ajbddNNmhRVWaPXoEDirrrpqs8YaazTLLLPM2H//+P8QQgghzAwRQQNAQvTtt99e1gGyCnQnL3rRi5pNNtmkeIPGW/FZ2GvZZZctr8rTnva0EgqLJyiEEEIYPFkxeprI+xH6shjiCSec0Fx33XVj7/zRC7T++us3//AP/9CsssoqZTZYL6wfREARU8JpECrjGVpnnXWaxRdfPGsFhRBCCAMkImiayAWyMOK//Mu/NOeff35Jjq5IdJbw/LGPfazsCzaeJyiEEEIIs0vCYdOEF+iee+4pG6JaFLETnqClllqq/BTaCiGEEMLcISJoGnCi2Qrj5ptvLonR3atCm+n1kpe8pHiAMsU9hBBCmFukZ54GRM/Pf/7zskK0hRG7I4tEkJ3fI4BCCCGEuUd652kgFGZRROsD/eY3vxn7758ggswOCyEMNwZI9hT83ve+19x66609B07zDXbxhz/8YXPDDTeUe7eN0FT3UQxhJkhi9DSQEC0Z+uMf/3jzs5/9rPnDH/4w9s6ounzqU5u99967+fCHP9ysttpqY/8NYeGgmZvJaINfMxH97qf/d5oASzGou15+NyPRS05blmnoj1rm7IIJFLbSueaaa0oOoQHSPvvs0yy//PLzOl+Q8Lnsssuac845p6ySb+sgE0ZMFLEYbF00NvwJ9UbbNMiu7XSyaKPSL2zBlNnEkyMiaBoYzZ188sllZpjRTWdRLrnkks1ee+1VDN1yyy039t8QZh/C55e//GXpfHkt/TSL8Qc/+EHzyCOPPEG8W8bhFa94Rclle/nLX14S+y3yudZaa5WOO4Z18vD0mDBx5ZVXNpdeemnZV9BgiehRpgceeGDzpje9qSyFMR9hD923/RFPPPHEslm0SSLWQiOILCK78sorl5SBCOw/QTATj4ceemjJN5VyMVm033e84x3N7rvvXso57XViIoKmiGKzT9ixxx7bHHzwwU8QQHjNa15TRNCee+7ZvPrVrx77bwgzj7poBMlTyfvAkN57770ldCuBX0dMFAlN1NFmxQiS2LEulZ8EvL3ueDUJI6P30BuDIWVsgMQ+3HbbbUX86NSUufeN1HX8n/jEJ8p2OoTmfEMdtKH0SSed1Bx11FHNhRdeWP6vUyb6DBLVrTe+8Y1FCNpH8WUve1nq1yjapYV3rS+n/gijThbryu28887NX/zFX5R6FRE0MYv94yhjv4c+MLq2sOEVV1xROppuXvnKV5aGzf2rMwlhNuDVIXIYz29+85vNN77xjeaMM84ov+uYeX8s5aBD9tlu8U4QEUbe15lj6aWXLot+GskndNGOclTuylj458wzz2xOO+20sniqnBhlSvzwrun8hYTWW2+90mmNt4jqogwb+eCDD5ZOvYZX1Tkzamsu5fe///3moYceKuVTQznDvmF0LSPtlDAkGOWW+n8NZ/dCeHXddddt3vKWt5RyjIdtYiKCpohGa58wG6bqWLph6Bg5+4EZXYcw0zCQOpRrr722eCePP/745uqrry6dkBGhzXh5eOrL3zV3QCfeLYigk1aPrVoeo/pklFkVjgZExxxzTHP44YcXu6DcdVi17I3MN9xww2a33XZr/tf/+l9lw+T5OnFCPeHVYQfd54orrljKQudeJ5EoO14OIUNhM+8RhDyOta4NY33TJuum21tttVXxxGqHhKPwtbrWC/mn2isPW/L4JkdE0BQRp9XZMHwqZzfUOy/Q6173uoigMOPoUHh/TjnllObLX/5ycafXTpjgURd1vn/+53/e/OVf/mXJVdtjjz2KoeWV4PX59a9/XUabnei85G6ox0bp4YkoLzlWRx55ZHPYYYeV/B8dVR2t68yNznfdddfmgx/8YLPtttsWUVBXkJ/vnRSPjvrHHtbEaGJQXVNOdaaY8uIxI4gIeUJI/tCwhseqACRkhA9FFpQJz9kDDzzwhBB2JwYrvLYrrbRSBNAkiQiaIty8l1xySXF9S2TrRiVUISnzxLnDTKL+CcNIPj3rrLPK70bVDKVQ1tvf/vbmfe97XxEzr3/960vC5BJLLFFCM4yrnzpkydJCOrUDV2+NKDfddNMyEk1+wRMhMnnaTI44/fTTm+985zsljFjLjxdEkupOO+3UbLnllqXslbeworIchk7KPbpXA0GduVyomg9EHKm76iovpt95hogg+Wy8ZzxDymsYO3T3TEQSQtqivw10ani1DW1dOIwnKUyOBPiniMYqZms000YNN6TjCDOJjkM4lvg5++yzm29/+9tllM0zZJYX1zgvhD3sdMJGk3VKNgOrY+Lt2WKLLYq3x+i7UkegXsOco9GNDpsAMt391FNPLd43a/8od2j7BkGEj1k6O+64YwmL8/7Ush9GdOLql3q2zTbbFGHup7JR19jKOqNOPpVwrkEmQVSF5bCi/cktVU76lW68TzBqq51tOExMLNsUEQ7TYHuhUg7j6CXMHjoGHkkhWR2GRNMaXtChSMwXfhHyYjx7CRleILMZ3/CGNzxhJiMPkVH7C17wgtTlMZQ5b88tt9zSHHHEEUUEmf0FZaQsedqIH2HHd77zncX7Ef5E7dB5JoUIhWZXXXXV8j/v8WAaXKrTwow87mxtrxDQsGBgU1/dqHe8tTy88zXRfqaICJoiGul4IiiEmUYeDwF03HHHNffdd9+CsCzXeU3CrYn544kYgknIQe5Kpxud58LslGENR7TBA3T99dc3n/3sZ0vZ1xl0UM5vfetbm/333795//vfX8RQQuG9UadqArAFZzfeeOMivDtRxqbYm22n7NsEwDDgvrVvArxtdwIeRgMW5ae9hskTEdQnKqPRtgZZ3d9tqJRevUbfIUyVWgd5I8yqsQ4Qw1hDBtzlElDl8+hkJlMHCSHrtVhf5POf/3x5HXDAAaVTz6ywP8L7e/nll5fF/6wBZEJE9bxBDqDwjhwqYYmU28TwYCgrSdO77LJLSeolvCvyhdTzE044oZS5FIRhRNs26Db4but3iG1eILMNlWmYPOmh+6R2QBR5HXm3wQCqjBFBYdAIC/BAmIkkL8XvVQARM3ICrBMi+bSfUSHPhdwgYRwvoTRhimH3ZmjzZoHpjM8999zmggsuKGHIOpNOGZsAQQBJhBZaTLufPOoX4SM8xivEe0nI1zKUrK+uW/PKM2B7h40aIiQKu2dwonp/hb2HOe9sKqSl9gmDqEISQJ2jwG6IIC+dUgiDRN0zA0zHYEZSJzoPxtA2F9mOYDBo5zpiiecWnbz//vvH3vmj6DQDz+rwRKOE6Aig/lFmEvnNbrI2jjKtHg32lufdDDwC1JIEw5YfpA7WRSW70caFYpWZfKC0+f5Ia+2TTk/QeItWhTATmJlkRCgMZlZY96jQiNo6NHUKcpgePGxCMLwQF110UVmnpROJ5G9729vK7Dv5GBFA00Nei9wgM8eEyapXo3o/bVgtP8haOeMNQucT6qCBjyUs2vKBDLYNeIigtPn+SYvtE41RbNbIJCIozDaMoI7YQp1yUojyToTCLH4oNyBJudOH4BSCsfWI5HP7YVWEHuRRbb755kUM6YzC9ODRUJZm1VkpmRCqGACYiScvy4wxy5TUMPB8xn0Lg6l/bflAwrFy/4hw5Rf6IyKoT4ggFVGl7DSIIcw0BI/kXKEw0+HVwU6EDxhCs7x0yPFKTA+dj41PzVAiOrtzUZSzdZgsRWAEnvIeDEI6dpcnhFZZZZUneDfUeXs1nnPOOUUQjTc5Zb7A20uMC8O2eYIsLcCDloHP1Eir7ZOaJMkLNJ47Vlw2sdkwSIx6hQFsiSFE0x0K03kYRa+wwgpJjhwARI/FJ3kdlHdt79q1zoYAMqvJrJwwOIhJHbswo/LVwXfCA+qZmC0mQb3bGzrfEApT/+QEtU3GqSIoSdFTIyKoT3iCCCAVcrxZCjqkuMfDIDHqlRcgMZSXohv5QJKirQqdhPzpoWO19IDcKxsld3a0wg9WPbZ8AG9QPECDR5kSl7xsFvHshA0WCiOErC49371B0i/k/43nCRIOy0ScqZHW2ycaIJcsRe73XqiQWa8hDBKGX15ALxEkFMYYMorxQk4dZausr7vuutLJdnc8Rty8QGaCZYuCmUH9ZT+FxQghHs4a6iFI2V+LVgpTdierzyfcq7pIBBl8t+VAGXDzBCUUNjUigvqE8JnMEu4UeUaIYZAIAzCGvJBt9Y8nqCZHRgRNHR2sfBOdrPLuxBIEOmReIIIziagzizLmdbNeVadnXf3nFeWlu/3228szm49hMYLcJBz32tbmeSW1eQnk6W+mRkqtTyhxI8NhmJUQ5g7qG0NoB2kJ+d0Gn+gxTTahsOlRR94WoTQrjPDshNC0Ea3FKHmEwsyik7cnlmUfJEh3i3sTBOTIWcepzTu6qCPvz2QIuU9tfY6QoUVOtf2IoKmRUusTFZFbciJPUAiDQp2T93DvvfcWIdQN48dDwSWukw5TR9vm/bEoos6nG52O1aEt7Jdw98yjbqvTNQG9O89SeFjyukVDuycKzAdEHWpSdFufIxyrfAjyeH+nxlNGRz7zO7V+wEhOs4/NwQcfXHIzemFDwJ133vlJSX1hehjtyclS9l7yAeoWBnJhLBhmWi0XOq/IIDoqs4I8d/khd999d/PjH/+4JMUz0HZYl4xsny45Is45aHh+nNemnWeddVa5306EZIwG//f//t9ltV0ddJgaPG0W5Punf/qn4gXqXAZDXXr3u9/d7LvvvmX69sIeefNIu17tQPiOQNZp8gSqh9oBwaZu8KhMF12FDpkYt0yDc5u6re0RJ0Iy9Zy2DhkU7tM5P/WpT5Vk6O6BgLa+5557Nu9973tLaGgueEKrnVJGRLVrVlbqlPupOU+eExHjxY6wX/5XxZ52f+yxxzb/7//9v2Jzur1B9qnbY489mh122KEcb1BCyHlquatffrJ7wo6ujY0RovSsiVODsOmifjkH7x5Rq+zqPau/zqM/VceESQdFRFCfqNBHH310c8QRR5SK0YuIoMGiIVQDfOuttza33XZbESWMv4ajszIa4jonSOr0WsZ4qh0AQ8bNrkGajsvtXhunkIlO0EhsxRVXLLuGW/Lf+QeJa3Dftmz4yle+UvJUupdmYPx0dFtuuWXpECZaNdZ1+wxjwns0CAM2H1DHlK8NUj/3uc89qcPRyVvJ2LOWsLswYK7rLEFtQFsgSGq91PESATpVYbt11123bEpqQ10JtFMRCMpB+6p5UhLGhQoNQLSPKoJ0TO95z3ua7bbbroQLBwUPCAFx2GGHlWdj1l4nOscNN9ywDAI8l4nq/0zh2ei0DVKUjTWmlJmfno2y8p7nR6wYvHhONadHrpnZhmyW9syWeMbHHHNMufc2CD8iyJ51gxDlnnWdgFHtrHWZiDH3UEWQZ61+yY3zrImhqU7I8HzVW2XFzt5www0lz8s1yIdyTXUZAPdqoOd8A4MICpNntHKPfOITnxgZrajEY8/XqAgaGW2sY98K02FUCIyMGsGR0047bWR0xDfyghe8YGTUmLeWu9fTn/70kdFRysjoyHFktAGPjDaysSNNHt8ZHbWVc+64444jox1I67lGG/3IqAEbGRUoI6MCeezbU2e0wZdzj3YsI6MjsZH7779/5LzzzhvZZpttRkZHX63X0O9r1PiOvPa1rx059NBDR0Y707EzB+V90kknjYyKyfJcu8ttVFSPHHzwwSM///nPx74xu6gbjz322MhNN91UbJA6PtohPek6O1+jHcfI7rvvPnLFFVeMjHZu5Rj94POjHdTIqNAaOfDAA8s5287jNdoJj+y3334joyJp7NuDw7M5+eSTR0YHGuU8nedVBiuttNLICSecMPLAAw+MfWP2UEajInHkpz/96cill1468k//9E8jo8KgtLPO65zMy70oY+V4zjnnjIyK8ZHNN9+89bPK4SMf+cjI6OBs7Eqmh/sYFXEjl1xyyciHPvShYtfY0rZz15d+sF4Dm9Vv/WLrtKfLL7985AMf+MDIUkst1Xoe7dH9qvds+iBJTlAfjD7gMuqhWo3Qw8xjlGBkcuqpp5YQpE0Ulb//98KzMaqwquyFF15YRmfjfb4bz9k5RwVQ86UvfakZFSE91yIxmuO+lphohDQdXKORllwU12/H8s9//vMlNGO9GiPJQVDDJVaYjRfoTxh1GsF7tWGkLmRhVLowYHtMCecRVC/Ukc5wXRtySYyujzvuuHJfE32+GyEROTcHHXRQ8cI4Zxs8AELD2sFMJIxbBNB2MLwk6m4n7om3lMdCGxnt18bemR2EIHkuhOt4o77whS8Ub5Xn1S/V43biiSc2o0Ko+bd/+7fmW9/61ti7f0Ib1n55kAaxTAObx/awl6ODoxLtsFfbRP2cNAH5c+zyZD7fjbIT4uR5PeWUU0p9bcPzr3Z2EKHdTiKC+kBF8ZBVFr+HmUVZc4lqHMcff3xxxVf36HgwgowJV66d1sW0J2uQnJNBtWGmjRq5Ztti8RWud65hjZMg6hfXSnA5H7Gz//77Nx/+8Iebv/u7vyt5AIQYt7Rr6NfA9IJBEdNnRKdyzfMVISZ1hWFv60iFJ3Q6s70qr7onYVtnIx+RuFdH1fGJOnx1RrjY5q9CWG3J3m04LgFEdGl/vl/Dzm0IxahTQjvCboNGp+/4noFzdOJa2WS5JHJuZmtjVecV6tJ2deLsBZvj2Xhe3rd2D/G8xRZbNAcccEDz7//+781//Md/NIccckh5EUz//M//XPLM1lhjjSIglbHwn9QL4TNCoRvHFQZUJtMV5QZfBIz7IHQvu+yyUk/UnYnqF7tKtPmOsKwB6mRwTvelTrNxtqZxzl7PTsifnRU+HHS4c7F/HGXs9zABjJHKYvqsGPx4D1ysVH6GShr6R+NjdG2WKDFQmWuUjKBcHwZDTJqB0ZG3eXsYIo3HZ4wgeWrGi1k7JwMm58HIuW5SOh5GJ6bviskTQv12kO7J6IfxOfnkk5uLL764dFZGtUbuNediImPUD0ZSytCCf+LsOrBhR9v2vI1KdWSdeKY6J/kunjXxOFt47joL+W/qpJE6kVbr3VprrVV+yu8iPnQi3V5LdYytqnkmbNJ4z9w5HYd3w8ax8tGIw/G8qcrINcjNka8xE+KaENImXEu3t0671tZNTnCfM+nhrOVjgHbBBReUTtxP9qoOtpQHscZOyRWUx2KjXeUjT0v7q89OHpPnoo551mwZUTcebJn+ZZNNNil5RO59KrgXfZrB3lFHHVW8TgaaBIfNgV2/vFZeOOKDTe0Wwv5WN9hZZc8zNZGdVR/ZOR4vXm75RuNB6EnEZmeV1VTvt41YvzDn0EiMQokRblbCQEMjZLbddtsympKYzmXLTb/rrrsWw94mQIgICc1GVjqD8dDAdTZf//rXS2fYPQurDYaBd0AHNJUVW12Te9VxOQZR0vmqox9Gr63j0jEQNe7fZ7u/3/YyA0VZMlb9irb5CAGk82KIdQjdKPvllluulNtMhHrGw3Xp8AlkMwN1vASQjvRv/uZvmi9+8YsLJmr89V//dUmAbusg3CNx5/u9vDkVdVJ74XHyMsKfCHVTPX3xi1887bBwGzpVwso5usNhcM08Ejwzk/V2TRUCyMCFOCQchK2dUxlDm1IOdsH3TA488MAySUYn7v+ddsKz4tGRXPyBD3ygzD400WI8EQHHqFvkTKe8iS3PV7qB+2Av2QizH3mmv/zlL5f6xXv1Z3/2Z0UMtdk59ounns2sQrAXta2xs0S9ZzYRzsm+sVmDFECICApzDo2EADLC4mZlVHTaO+64Y7P77ruX0Z6RnoZhVMBwbLTRRkWMdGNkZeTIaI03uiK8uNO5/TXMXjlA3TDMDJHrmYpHhQFjWBgcHR33cOeLodXR6fTkXHRD/JgV9tWvfrWMRru/3/YS3uB+N3ILf8o7IxDa8q48YwLIyH42Zx6pk2ZD6pyEgwk018Cb8JGPfKTM+iIKtA/1z4xInRcPQTc6aB0PL5J7HQ9lYHSu7o03A7YTnbYOipCfKWFdhVabd9391ZWVeXNnCudRJsKShx9+eBGW3Z2+dsVWfexjHyt2ifCZCIMZ7dsztU0IuzCeEFLGxJPy9t2poH65fmEwL+KYsBK6k49klq1rYmd5udkZnie2uBvfJUJ5w8aznc6pHrJDztkrB6gb18DOan+Drl8RQX3AWOpIJ+NVCFODkeGR4YonXjQojX2bbbZZ0AB1SgwiI6FRGLkIjWmo3XC7MloaXq/G6VmKv1sfhgDS2VTXP4PLKBAp1un56Ec/WlzZdfRV16/QSCcavbXhO+7HMdybHeA7X4ySczDwbSMsRpA7nEvdCLL7+20v52FQBj2iWlQxsvfM1ZNeIshzqB3CbKFeqrfawgMPPFCEDjGsLQhRVE+eOlQFgjrQ1knpfAigXkKvohwMQIhq7Y+XEs4jPPIXf/EXzac//enmM5/5TPOud72rtD04f/WITmUwMFkICufhkes+jzYrfM0b4Xf3PEgcj9fCQOmkk05aYJ86zyMkaFC22267lTapzky20yZm1DPP0M/xxI22K/SkvKdid1wze0K48H7r09Qn4SZhO9fO7rgGx3c+5c6bVZ95J0SQsmFHxxPZno0UB2FWdbraNM+zLnOgbrG3BGQNPTu/MmHvp3K/4xER1Ac6aA9NxxoRNHMwbsSHBrfOOusUtzIhwsBomJ34rIah0RIS3R2758Ww60w8t24YSzF4M2iEwHQ4OkVGQqMzurY2zD777FO8J7vssksZremQGAhGiHEY9Oikwsga3fbyZImVcxPX6wn9o44YwTLKbXVEnVK3aqcwm+gciFzCmwDSSWkPbaFMAk0HxbPY7ZlUn3VO7rFXnpuOTK6jdqCj0jGyea5B7sr222/f7LXXXqUdWCuJZ4CHrHaS2uxMz5xzfN4wIr6tzWnr2krtXAeFcmAnrr766jJYMmNO2/R/qBfsgI576623LoJRfelXEFZ7ok33qmtEuQGfsp+uZ5Ko5FmvOYIWX5Sr1C2u6jMmsGseZuf7+kMhQbZKvelGObFf9nrjBRI687f/E+/sPOG49957l/rF5vJqus9q49XtmQi1RgT1CWNSK34YPCo8o2u0a9RpthThIUGvV0IqY8jwa5y+2w2ho3Hq4DpHbeB1knMh38IsLJ/RuBmwKoAs/sYo+Z/OkMEwCutMNJ0pEeR6CDgj8uqdqrhOxsq1MVCdRilMHp0/L4mybhvc1A6+2/DPNESN0AgBLvxFeGy88cZFnPfCdfL29UrS10ERCd3tgE0jIMym1EnxFikL98wzYUVmoWjtUJ3TKdWEbG1A5+i6ugcpg4a4Ywd0nG0igceUyKsd7CBQVuqIBQN5ik3S8Hctw2ovPCsJ0OzDVNuj7ylf99hLQPEuKW/P2POZCq7Nd3nXhb7kLnnGhHb37LtOaj6h62u7P6FIYqi7fhlY8gLJ71R+npPPeJ5El0UQLfyorhG6xBlhxK6rX3Ly2Lmp3u94RASFOQkDzhNkZKKhMgy9YCyMDBlhxrEb4kHjNBLWGCuMJIEh90HuUU2EZtDMBJJwbXTUadAYCCNgeTVGhKa36nRmIkxSvVRG770653rfMyXC5jsMMSHMjd/maYNynikDPBHqNmFjVLzZZpuVDmi8zlU7IdR1HG3Xqz4ROzrxKhKUAc+JNiDUY2ZiRQelc+IFUver8PBTzsgnP/nJ8h3tgZdKfZxJPAudpFebSCBkCThtfVAiSNsjrOTsmUHYHU5UzrwUwmBmxk1HCLontsQxez1nAlSdIESma3c8R4O5Wr94ocarXzyQ2oJXW/kTQF6dnjjPwf8k2fMyds7sI+p5gJzbfdVjqscEmTWLCE/rtalvM+FpjAgKcxINketTY+hl8Co+W700baMYjZAI0gF0iiCjf1NCzUBj5Bg7xsWUVrM5zLQx6uo0CsQGbxPDoUNiNMYzWNNBR8Xgus5uLxB0OIxvdRmH/lGuvGyef1sIRR1UB9rCT7OBeuW82oEXETAe6qJ6oX62iaAqEgi+OlrXLoQp5GnwhnrPOYV0DAYMRAwudLi1nvtpFK/+awdEl3baK4QzKFyXts5T0HYu98br657a2sxUYDuEwYg9Yrl7QKIM5LPwXLA/022LynY8e6IeGPj4Od066TzqVK1fEx3PM2cj2Z22++Rp9NKWav1Sfrw/ZoPJu/Oecykze54J73qencfzO1HkPtUvP7XFmbBzsZxhkUdDZvAZIw20GyJIwzQ6rG5s8fwan2b4/d/IirvfqNeU1c6R78KAh8KovSZ6dkP8EH5E2UwYh2FAh0YEKedeIogA0vEuzLowWXRirlfH0ZY/YbakUbn6r06p95KlzUDTURGDOjqiRm6LAQFPp+OO1zHPFp0iqK3Ddl/uT3sfhCeIIOS5MFvO7FHl14myErKRC6TM/D0dXLN6qO1XEdENAVHzY2a73RPC1fvcdm42VqjL9cNPide8OdYi8r7rF0YlgAghIbaF2bZiOcO8QCMiWgih7gZVRZCXDo83iOEngCREMzoMKle2mRHi+r1GmrOJ0axOyUiqTQTV3AidwlzooBZFqidIx9npJaxUT1Cnq34u4xp1MkSQDrm7XrhX3pLqKVG3rKNlOYqaK6QNET/y8nRWMxHqnSrapGeh7vdqnzre6tmdLmyGyRJWNG4Llxp0mZkqD6itvPvFMyHkCIk2Eeee1UciqE0EzjTOzzbKv2wTxjyN2hKx6PpNOJBnRgT5n/opv0f4zWCTAFoY99FJRFCYN/CMGKF0G0iGRe4Pj4pGqgMw8tU4uc41QqM5MX0iiJHpZWBnE96JunR+m0E04jcq01FHBE0NnhD1QafT1mlWT9BkQgVzBZ2xcJhBQbdnooZX62jdLCd745kV5m+dutmPe++9d09v0sJG2xyvznum2k7bwKEfCELeH3lAyqfNU2hWqrypQYkS7dx19xJwBAjh0CsnZzbgeXYN7G13eJatInyq1126gTwg0+fdG/FEAFlHqYZYFzYRQWHeICfBKNars3ExZkb5GibXNqMmqVnDZEgYMCtRzwXXbMU1M+RG6gxim2ucEeqOpYf+0LERBL2mVStbnZvXoiI0dUw6GB0l8dZJ9TS4X2FgYR7rArl3nRsBZDBQl6OYi/esbY8XAtbW3WOvdjMZdNgGTJLECSAdeuexnNs1mLxhirkyH0RZ8TY5b/WkdEOQE6oGegur3RPWNS+oWyQrc9dvcMnDKI+KJ829sFXyy7ws+zBX2lSs5wyhokyUxBgGizLnGWH820ZlFgbTKG10aJdnrm6fl//DA8SYcbUvbKpo49I3cu+G4WB8jPQZljB1iILxwmHasDqxKIkg16qzbBNBUO+N0LUDYR5eUh2qcLCZmHV18rkwGGjD/WnrvUSAjni6Iki94NEgFNtWzXYNvBrEIu/zoOpGDVdq+20iqIbAJ5osMpPIv2R33He3pxHKjfdHiJXAJrgJaon2vECWVnD9c6U9RQTNEDWPIMweGicjwRPUJoIk5p144omlcfKyGFFK+jTyrSvwzgUYbsaQa7lNBOmciDf3OVeueVFFZ8cLYgTe1ukw8tryoEb6s4H6oZMxWvezG0sumKlj6wedvPvWbozQeYKM8OcyOn9tt9fzqCKIqG17ppOB54cHyLYSvBrdsDW2J+HRUHaDggdIu/eM1M1utHsiaGGGKasnzqSMtutQbuysTaF53j0vdUqOGSFk8DaXiAgK8wbCR+Nk/NtEkHAY41LzBYxICCDrmxipzBVcW02Kds3dMEI1L6BtpB8mD7EpHNYLBtxLh7soiaDqKWwTQQSf0brO1v1rLzooEwLkAc31+yRAiIFeniqDCOJnOl4gYsQu52xFG9qghf2U3SA9/s7HK9kL5/MaTwTONMqdvewlgghQdpYHiJiUb6l+mW3o2ucaEUFh3sAoaJwEAiPRDeNmlOhz3NiMvlkwRnK9DOrCwHUyhmawyQnqxr0RQFzSOoQwdWqdGI9FRfx0oj7X5RO6IQ7cs5fPWBndwqC8Gm3hjbmG52GQ0+u58OwJ+fXy7k2EjtsARD5Qm0BWRtofG8J2DKp+uFbX3TbwqfACEYALs046N7vDzrZFO9xHrV9EtRCYfeYGLRgHRURQmFdolFyvwkRtDU7j9b4VSq1WajQ3nkFdGDAeRupGUkak3bhenZcwTZvYC5OHIJiqx2Auoz7zBOk02zoq72sjtnqwL5+f4yUbL0poPzxcfk5FBPFkCOPYJqNNkBho1a0c2jxtU0EdFL4T/m4TXkQtwUVIaPcLG3aHHTUQa/MGsVEmbphsQgRJN5irIeWIoDCvIHIYCg20LcTF0FvXw35gYvpzceRrJCtZlTFug4GpobC55MEKcwsdFLHMc9ANsaMT5wmVDK1dpC79EcKHAOKJbWuD2p2yIzIHlZtDrFmigOe3TQQRELwqnudcCN0TQe6fHWoTZcrFANMWQ1bSds1zUQAhIijMK2q+gAbaJnAYMG5/jXcuJq4LzxjFSsbsJYIYIK7oQY1Cw/xDh6Nz4glqS9z1vtk96tEgE3sXdYgRU7wNQniS2tChEyPa36CEYw2F8QC35QQZ+HhW7NpcEEHVM+V62vIS2WGiTR2b63mLEUEDhmLnidBAVNwwu2icyl7jbBM5vCxGen5OxVU+03CJS4omgoihbhhAXi4zwwY1Cg3zDyJH/eANahM5wi9CrbwPhHf4I9ofEWKR0rYlE8C+6Nx19IMKHxJcEtV5n9qSsfUldTboXMircd/sqwFnm8hRp9jZqeZlzSYRQX3gYWoYXr0erMrK8KggEUGzD+Ov3ImFtnwZSY9czkZ7vUZ6C5Oa1GlV316ueOuTEHmMcAi9MCAghHqJZZ290IuOKvwRolBeDkHSSxyy7TxBg7LvBKlnYB2zOmOvG7aM8JorYUt21nUoizY7xLays3XAOZeJCOoD4kcjUUl7iSAKmVJXaedDkuGihmek4RE5bSM5IqgmH87FxskYSojmCVLXuiHuGENCey6MCMPcpHp6eBXb6pH3tQFCqFfYdRhh29mHulJ7N4QPT5Ck30GJEWKLvbKysgFQN9XrIg9proSWXLO65cWmdqPslKP7aat/c4n00n1A+Og4FwUX3zDimYjlWwzRarhcy93oGGyXYcQ1FxsnY8gVzyXeZlxqPoKfc2FEGOYeBA47ZYPgM844o2wT0422Qmh7GTSEP8ImmB7PdrSJIB7YmucyqEFunZJvkUGiopu5FgJXd4jnb3zjG8XO3nHHHWPv/An3ZIad9YLaZrjOJSKC+oBx6Xy1oWGotJJy28IxYeYggOyFdNJJJxWR0+YJ0oCJWMaf4JhLqFOuybXpxNrqmFEoEcQLFE/j9OHWn2/lqCO1b9Mpp5xSNkjtFe7SyRPbOuBFCW24V/uAtiEPSpim34GCDpsoZDvajk/81DyYQdUbz+uee+4pnqC2mWG8QPJMeZ/mQgicl+yqq65qvvrVr5brbhusKTtlyA63ebfmErGiA0bDqHH4jNRnhyoeGP6LL764bAXQy/CDK9csDN9hUOcKOiVGkAhqG4WqT2b8DDIfYdjRYY63TILnwMirJ7063bmEem8Efs455xQPkNDqeKhvRJA2sSjcHzwTIbxebdfg00DUTyK3H5TfeLaj1hdipN9jt+FeeEuIVYKhl/eXJ0hS9MIeWCt3i0hecMEFZRuiNtHWSV0Bey7Z2W4iggYMEaShqKwRQTMPw81wWNeDADJCMQIxUjNyalsxl8HXORjxtYmNhQXjy2hIinaN3TC+RqFGhalbg0GZjrdIoLrF8PfyDMwldDQ61GuuuaY5/fTTS6fKDskfM1W+rQPVBozsx/OszDU8Cx6bXh1rnRzhmfYrVNiD8WyC4yrHQXmB3AdvimfmGbShftYlMRZWu1c32CRhQpvvXnjhheXaeanYJHWsrayrCOp1b3OBiKABo3GoGBrKIEYKYXw0LsbeZn1EEC8KL5xl2v/yL/+y7FnTjcbsOxpn28hrYaGzlUzo1SaCaj6CEeGgjPCwUztMYqitg9EhEqeex1wWCa5NWOWyyy4r4eA777yz5LesscYazb777tsccMABJaekGyLIgGC8yR6LGmwvwTCVkDHPxnjeDYOrulL7IOy7/D8ebPuU9RIKPEHWNeN9WljtXv1XLmeddVZ5yav0P1uufPCDH2z22muv1lAdW0YIaUNztf3Ekg4YBpVyn0oDDP2hg9IY5T5wzzIojJ+dim2Muu666xbj0Y3Gy9ti1DyX8oLEzt1DL0+Q0RYh5B4jsAeDzkx7JRC02W54HYgJRnyuigTX5Rovuuii5uyzz25uuumm0jZWWGGFsjmwLWL83hb2MxCQS6ezGs8DMpcwcNGx9rpeYramI/TbTpRlW9ursOlTOW43zsOT4lndfPPNRcC21S/1U7s3+FlYIXDlwVvIu3jeeecVge1arLy/+eabNxtttFGz7LLLtvZ3daYrARURNCRoIIzqVJLywuTRoIiFK664ooigu+66q3RYppFuuummZS8kDZOrluek81kwNho1ETRRTHs2YdhdUy+D6F7qIpARQYNBOzWyFzodTwTpeNueycKmeoB0pGaCXX311UVMs0EbbLBBs/766zcrr7xyCYfpTLtnF/muOscz6l7nOu6Xx6RXGwHh4JnOZfvrHtisK6+8ssyu6iXoag6gdr8wBtXKm62UX8bDqJ7xWBs02BPsLW95S9klXvtRv5R9J+qi+sW2RQQNCRreVF2xYXIwfjw44uimaBJC3Pka4pprrln2q6mrq9YQUucoqn7fKMUIeC7gmiSoMji9cH/uZ1BJmeGPHaYQh7rSNtLWWRmxz1VPkOu69957m5NPPnmBN5RI1jEZDBit60jdn+Ra4qgT39cG6ozEuY6OlFgb73nweGknC8tzMhE8K8TBJZdcUnIYPbNeaPO82Wa7LYz+hF010cSyI9INiBn1abXVVispB7YgUrcM0Cziqu51QjCxaWztXGw/SC/dJxrheA9TRdVJaYDpqGYGxtrI5NRTTy05EJU3vvGNZUNII1/PwKhXg+01KtQ4jYAXduN0fkadCBpvOqnRPGMTBod6URPOu0exEC7SSc21JHqwRQSQmWDHH3/8AkEvcV4HtdZaa5VOlC3SBnSk3Z4g6Kgch8drro7WKwSE6xzPE+Qe3fdc9QSpS1VYjCeAUAX6wvD+qguu03pA8oCqp5DwEQZjb2vqh5/qV1sb4m3ntdd+5mL9igjqA52vTkoMXafVhkpgFNLmWg/Th/HTME888cTm+uuvL38z8naE33jjjUs+ECNYxSgDwivUNiqsITFGdWEKIYaBt8H1tIXnGHMCiFtcZxYGh3qhg9Fpthlw9UL9MAKeS+EidcZMnfPPP7/kAak7ro/Xc7311iudFDHk/tQfybXaAS91N0b7RJC2NNfzglxfnUDQlrujI67tZCoiSPkQHr1w7lpOU+nQlbX1gIQuhcPYqpVWWql47Nrqn/tRN31uNkWQ/s2MW9dp7TX9nrbAw7jhhhuWl7JSxuoYEcRj1Say2TRiz72Pl2+1sIgI6gMVn0H0UHsZC+Kn13TUMD00ItNJjUo0TC58hkEsmgdIIrSppNVYaJyMocbZJoJqGMDIbGGKIIahGoq2hetcuw6NuB7PQIf+IZZr+KTXwMXgh8dwroSLiB0eKm3AVGWDAvbIfRidS4ZeddVVF3gPdFTeU4fa6g+bpu4Rer0Gd3MFuVnaq/tv61ANejxL7X4q4SNi0asXyooQUhf6FUFVuArfC4W5F7P3JBZ7Xm19BnHhXtiA2RJBrotd5GG06jibyz4SPWwsAcQbVG2qn95jZ9WzbohGniBCqle/uTCJCBogGh1DqiG2dbqhHcahigCbCFrIUEOsRsZPht/7dQqw3xlsRp0BkQe0yiqrPGEkwvhrnEaGbQZGo9TYCY/xGqfzOxfjOxMLLDLmroGBNKLvpoogI8LxDHToHx0Lj6E6woC3dTRVBHXWyZmC0HcuXgJ1vFugqyvqrWnVwsG8oeok2yMn461vfWt51VE63JP6zxPUSwTxbmt3Ovjx0A55LYkQv890eXTjWt0/wdbWZt2fduLnVEQQ+0E89vIisQPKyM9+7t1zIwYkrsutISyIBh67TTbZpIRj286pvbue8e5F/XA9nslEdVRdYfOc3zN3L531S5mqf67TsiMWRvQZbYTwIbCFWTvDc65N25Fz1uYJck4iSP1ynePh+pWTeq/MZqN+RQQNEBWBV0IDjAiaPBqG6Zd//ud/3my33XbN3//935dOQIOARqoBmQV29NFHP+E9s8H22GOPZvXVV28NFekMdA69RJDVdRmE8Ub5jL1poWLjRt+ud5BCyPEZiV4dkGt3D4x7wqyDh+FWj9Sftnri+RCnM+3OZ/CJm09+8pOlY7T+Cq8n0VExWNBBHXTQQcWjUPOAdKDygHhEhcS60VHpdNvaiPqs/gl/6EjHQzu8/PLLy5YJfp/tkb1nIMlWu/VcuiEmiD3PdCoiqIooYag2UaJ86qzSydoAz9V1e17ygOQzEjeWLjCRQ5smeNvKsoqg8SAyiBV5YWxjW7nAdfDsHHjggc0WW2zRfOhDHyp1ibCsqOcS7L/0pS+VtYscG8r1fe97X/EE8bR1QySZjdt2reqv+7M3WmddbsOSJ7ybbK3PDtLO9iIiqA8YwF4VDDpcoTCGptdIIjwRZcpAaCRGJgTJddddVxoMkeJlefYvf/nLJT7tfc9Ag5YAbWRi5NurzBlDRrGuuNqJBsaYOaZraGtwxBFjz3gRYF/84hebz33uc8XY+M50cc4ajqgGpxuCus7sibgePIQPw66O8OJ2ow4YPc90zozz8Ajq4NU5WykIdTm386qnvD9HHXVUEUvqrvajg9IOCCBirq2OGLX7nHrU3YlpS9qUDkgn2HaPPuP+Tek+9thjm8MPP7wIMR2WNjpbOFe9RtfUjUFoTUdo8+pNRM1tURfaylEbZae0//EGThXXSLQRH2wYW8ZWmblnIVe2Sbl67m0C2z2MJ+aIYKKUXTriiCPKsyFsXFtn+bAzBo7qFY8ze8OLaHq+cxuA+f24444r+Zbyltgl3zMAU78Ic9fbZmeVVW1DBGQnjuH4yqzW2W48T89WfTrmmGOaQw89tAwG9AW97OKgiAjqAxWrUzV3Q7UbRaSzmjwaBMXPBauhaKgaKNHB0DIcGjfjr2FqEBqh8IVYurUqNNJeHhIjFKEknYPn0o2Gp6Mxuut21bo2/7dMvNGRKflGXK5vUJ2hc7jv6ppuQ13SeRFxUzHsYXx0mDpP9ajbgEO90HEIwYzX/qeLY+vUvHRgfvIeEN86hcMOO6yEKISEvacOEm3ygHbaaaeSXNsm4qDeeE8npSPrRj3USRFCOuVOdGLKwMJ+Qjm8odoMUdb92ZnEdbhvz6Eb98cT796096l4gcCGsy3sRS+vIFFKQBAPvYSQ5+f5KE9ldsIJJxSxgje/+c3F4/2GN7yhnM9gig1sE3WO33YOx3Z+dYGtPPfcc8saPkSWlILqKa84NvtCQAo1uQ/iTGL9kUceuaB+STUgPIgV3yEo11lnnbL4rAU3XW8bbJS+b5llliliuxv3qM60ebw9V+ezXAARpM6z9cpuEAPNiYgI6gOVcbyHwhXImKoo8QRNDo1RAyA2GALGWCM1Ivm7v/u75mMf+1hz8MEHl1GK92v82WKI4ukMCgHUSxx4T6Pkqu0lghgPDZSBcP5qwPzN2DEMXMOu9TWveU1ZhI4ocR3TxTHdb69wmHqkPhmdTuQWD1NDGasbBIL2240OpebMqIMzQe2kdGzqHdgbHeenPvWpZv/992/+/d//vawKXUWAjsdsHR6grbfeuozEe9kd7cM9qrc6+W50RESQem6mmHrpmrQHAw8dK0+s63GN2pSF8nhj20Jsg8a1KA9l0yaC2AXPTidMBE0V9sL3zdjS3trEFPGgoyYK2S31w/WhXidxqBOXXMyzIdzvc8JfBAVPkHLzXJS9VxvskxCcYzq2z+mD1EXXwE4KHbkOgyTH5P3uPl59jq69ChzX47uf+MQnmo985CPNZz7zmTLQ877rUr/MujXQNOBkh3qJS581gNCGeokgdcurejbhp/u77bbbilCsnh/2zpYc7G0v4TUoIoIGSBVBvA+9OuXwRDRuRs1ImxiYCGWroTEkRsBtiZ6daJyMQ8356KaO8k888cQSq2d0GAzGwgjrkEMOKaMlHZSZHNtuu20RXzqUQTxjo3/ncg1tIsg16+h0cL28XWF6MOzqlQ7UaLYbhpoHgvGeTB2dKjpOnRuv6ESoe2yNHA2hCr+r6+OhcySAdDDd6BTdo1lL8pBcg7bpfnVMOkhthBhyjPe85z2lLay44oo9O8ZB4voIUIMFHX437p0nTz7UdESZeyGCeD8cq22go0x4XD772c8WYUg0qiOuseZX8Wh8/OMfbz796U+XMoXlO3bdddcigCabuM0jovwd0zkIBIM23pu//du/LbaJ/WTj5Pnss88+C47faZ/YNLaNmG8Tkd0oTzZH3bLkQhVsvXAvyopt5j3qxrUTz+qW0CAxS6gRQIT9f/zHfxRvP1vI46RueamrM12/FvvHUcZ+DxOgAonFi7mq8N0wCCqMztmDixCaGAZFQzdiYoTbyrXCPa2Muf4JEUaqzWXdBiPAWDEm3SGNaiAkP2ugRm1e3Nhykxg2M9B22GGHkszovIN6vu6ZUWMc6gitE50yt7nRmBHWRB1dmBqepZExMVpzxDrxXMyOIUh1tjNhmCUmCzWpD+O1A+c2OpYIbTBAnE/GK+kedUbqupG3et3pMXBO9y3cy8ZZjb2GWnT6OjHhJutxSZLlLXEds2HntFFt17UYrHQ/HwKPh9b0bd6D6XjifZco1jaJ0u5kceWkHNkuNkWelPZr1W6TN5Sbjt1z1NnzkLi2vffeu4hWIqu2Y8dR3j5LALjPTqqo4qHhtSEUrAsldCR3zOfVS3Vh9913LxNE2pK6HYctE9bnoRqvfrk2QnfHHXdsttpqq2Jzle9EqAeEszLr1YaIOGXGo0hAuh+CkSdevXQvZvoKF3qOU83t6oeIoD5gIIVHGIS2SkT8cOGpNLNhGOYDDKsy1SjGyy/QMAkR4mf77bcvndFkw1GeBaOmcRKy3SNtz5IXhrEhhIgyBsPndDgappGvczP844Xf+sF5eRcYNPffbTTAGAn9Me6THT2GqeGZqiO8HTqkbohQ9U59GLRXTl0wwNKhCkv1QuemE9Wp7rzzzqVutI28e+H7xJ6O0D36vRN/8xS4BiFo7YHd44VxHmERwqt7Gv5Mo3PVUeowtc9O8cY28IS5Lt6W7sTvfqkiyHF5ndiotg6dsFCGOnzX5KXMiFntWlkSzPoEnbrEYs+uc+CmzhFZnofjCEN2Uj3ljun4chJ91ndEHgyQ2CX2SWoAj03bM2Hf2Fn5jep4L9wzj6hr3WWXXcr2GP141twbMaPOOE93WM4AlF1lX6udVVbuU6iWACK8hA3Z99noR2NRJ4lKr4Kq2H7vxsPXEFXyMDmUI+OiEXQ3/opO3yiEm5W7lxeI2JysAAKjwKNixGykxHhPJCa873MELSOjw2EQ+jnvRDAQRpOEmRFhG66BS9h5Z6vDGVYYe2FTIqcNht3ou9szMF20A3VBZzvRQIAQ09F/4AMfKJ1rW37PeBDShJzv8upMJObqAIKwILyEKOQgOc5s1Uflo5MkTpVRt61gH7QR+Stt4cx+cc8EhpAYD6zyVjcmOwDRF/i8eqRDt4QHkUJEeoadKFu2Taev/+gUSL3wzByLPSNUeOUMknrl7Cg//RZR0jbQgnt2bnVC3XBM998r0b4XvFAGq/LFfLf7frupZU0sCr3xPjnvTOcBdRIRNEm4HanYXpWIMRImaZtdEtrR8RuhcDv3EgGMhJEJoy+ebgbMZI1RJww2QyOBVMhyPDGjYTKsduB23r/+678ucepBCiAw7EJgRkbdbvCK3CP3PyjvU+iNMpZArzNtK2sCyEicx3CQ1E7KCHq8TkonaaRs/SAjdbam3zqh7RAMPBM6HR3weCgTYYn3vve9zUc/+tEigPrtGKdLDT3xSrEV3RAcBijaiUHDIFBOjku8KG95NjrryUCgEE+meFuLh3hkx9qelf/xgHievGyT8WJ5ZsTov/zLvxSbyDaNVw9q36Xs2Jw2iBXXbbC31157FREzFZuj3HjLeeWETduSpDtRLrxZzmn9IoKTwJ5NEg6bJBoilySXosbYDY8BF7HVNAfdWc5XNE4xcy7R6nI2yiNYjAyUJe8PA8xI9FqMa7IY6TDgRvs6EELH+cSpwQAZxRhVGWExgIyBTsN3+zUIE8GwywWQP9CWD2A0xHPFABPZE42qwvSoz1eHoU4S6J2dBm8NT4O6qZ4w+IOoE47rPMIDBJZ6UfPWdCKddZJngSe0H89EN9qXuqVeq/OEAyEm5MXOeY/wEV6Ra8L7KheOZ8NnZ9sjyTsmzGT2kHwSgrET7Zmd4EHoTgieDo6jk65hUGKDp0T5KC/2yrMzUPG+87MZnpNy85wIi14CqKI8lWtNzHd8toBd0ub9zyw8/QvxWnMiiQ3nnsh7VI+lDOss3FqG7ErNOWRnPWfHdT1TLUfX7Lo8F8KdzXYNnqNyY3v1l/KjpDZ4EYDaFZs81Xo9VZ4yelG9M6TCAlR4CW/WUtBpdRcbD4PEN0ZKpQ8Tw+BqlHKs5CAQQoy/RqBxMgqMi0Y5KPc7o+VZGtHr6MTXa44QY8eb57yMDgM2HdE1Ec7NsFt8kRjsFkFGiIweT5RrmusiSJhIRy53Y7Iw+O7TCJDhbbvHmhwqZ2YyM1t0CowwEe3Y/QxKdA46CyvmSnbtzp9QLyxy9+EPf7gYc6Pl6VJFkAGW8pMoy0MI53APRIltYYgWHcUgMADg3TKoM8BTxu5feRFIPA46fnXP4GFQ4qIflA3hw/ZqJ66xs50oHwOkv/qrvyp1aKbaq7JiJ5RTXcySvXIt6m1neflJpPZTXvoT55AX5Hn46V7ZQseq9lA98Lv6PVlco/qkfrF5rr1z4Od6CVxi27kGUafr/Tif+xHKdD/+79rVaaKHbVd2s+39eQKjFxUmwWglGjn00ENHRhvayGjlpoCe8Np3331HLrvsspHRRjv2jRDG56abbhoZNd5Pqkv1NTpCG/m3f/u3kdGOf2TUkI19a+4yauxGDjzwwJHRjmlkVLC2thMv//f+6ChxZO211x756Ec/OjLa0Y2MCuCxIz2RRx55ZOTss88eGR3tj4wK1ZFRodR6XK/RAcjIqFEf2XLLLct3RoXZ2FEmz6gwHzn88MNHVl999ZFRQfWE47s3x77iiiuKTQgzizpx6aWXjuy2224jo0LsCc/Ca4011ljQRkYHVWPfCmHyJCdokhgh8VJ0u2IrPAg8CQtjtBQWTXh/vHrB9a5eTcc1PZsY4ZmtJB/AiLKX587o1siPG9yCmAcccEAZjfbyoDoud7mFM4UCuNh7lQcXvKUM/vmf/3nB+ib94jvywYQiu3M0hKqMbi2lwPM1akPH3gkzgfLmRRA25hHsRljFc+KpGoSnOAwfEUGTRAPkQuxeMZbruE6bZZxDmAgdp/CHPKC2RM8Kt/dM5SPNBEITcqj23HPPkrDJ5d0GUSMHQVjJ5+U8CIP1ukeiSQiIu17Igwu9LW9AzoSQtJktOkfise1zEyEc4NqJqO6ZYsIzEpit1iucWcMKYfAo65qHaWZeZ36W+uIZE93qQwRQmCoRQZNEUpdROwPYOfojgjRGI1lGN4SJUH8k3coxaBNBNQ9AzNySC1PpyBcGhArRJheHN0hiaNvAQB6Q6b0172oyuU4EEu8Rb2u3d0ceiNlBzmn2lBmE2uJUO0bfc0z3YUahe+rEs7P8vxwl+RXxBg0eAkgei/wyXiCDT/+D9uD5EqnqEY9pCFMlImgSMHISMiXx1oTFChFUjfmgEhbD/EaiIje/9ZHaEn15fgggoZ1BrHsy2xA5Rug6KffQDdHjviaaNdMNTwAB4lXhtTEAMWWYAOIVmIyomgjXJcnVPRBCnd44IXHPzsJzEux7TWsPU4O9rUnCJk3wBnXCzgoTm67vefeT+B5CNxFBE6BBGoGYEdCWv2F0ykVvhDoI4xvmP0SQfBKLJLbVKR27DpgQmkpOy8KGJ8V1m3rbJoK0J/l1yqEflJUO0at6BXSGZgcJgVlCgVgZFLwN8k0cX/vuPrYO2mrfwmJhcHi2Bgm2eBAK6x4o8PxY48gU/kVxkBDmFkMjghgq016tSOm13377Nccee2wJSYznzq6jdt/v7rAkTXK9W1wtobAwWXg0eBDUvbZEeyNd3gd5KYOYrrowELIgSnhJhZM6Q3qWRtCxybObTChJp6icbCRJePiu7zmuBdksI0AMDdoTy/MjL8t6JtZ96e5wXYd9rGyQyUa4rzB9hIiJS/sJsrtV8ILNreuHCRUvqu0jzB2GRgRJQrUp4EknnVRe1mexQaY1KMYzxIyvdTusHaLT6oQRlvcw3syWEDohquU3WBeJse/2hgglWQ9EveJ9WFTygdrQSfFo8QZ13odQR120bTLeIGJJaMT+atbR8X0eWKEqCdbyQoREZqKsPA/J0dYBM9iR/F1xXdZAsZ+Va/M8Ozvs0D/SDeRb2VzTQKFzGxGeOLlfZgp65p5NP+HUENoYGhHUPb3dyE1HJPHOe23Gy/80SqNPxrfTLWvUybjrrMx2SSgsTAZ1kEdR3VMHu5FbZqQr2V69WpRx/bxB3bN3eMIsnGaSQZsnrBOCx6J0FijlHZCLo/PjYeKdMZV9JpemcFzTr51HDorzdg54DK5cF6+yTttsscl4t8ITUWbqhXbhWVuoslMAqT/CYGYA2ttqsgn1IUzE0IigNrhaL7vssjL9sm0NCgmPPEW2+2eIO2HcJX8SQYvyaD3MLgy7dWbMLGrbiLO6++eDq18nJZxkpePONkL4aFcEzURTzAklg5DDDz+8eIN0ljyvpsLrEB1/puGB4AGyJYJtBXjqOjE4Ov3004ud4DGON6h/lJmZdueee27zjW98owwUOsOLBp1m/yl/3sUQBsXQ9N5mlHQLHe5riXdf+cpXSmyfMdMYGVoN8rzzzmuOPPLIkotQjTVjzvVuZCgh2ogkhMnAqPOACMuqe7wcnchrIYDsQaSOzQdXP/Gg0+JBqXlzRvwEkARnnpReaLM33XRT6RQNWAxKeJXMBBMG4xmY6jT4ftHuPR/nlVNoEFRzkNgMtoW9IITYC2G+eIQmB0+853v00UeXPCCTUDqFJNFpXysLZapHg0x+D2FoNlC11oQRpdFkhaFiWHl5CCDvffvb3y6C6NJLLy2xfq5u+Qs1d4EhN7LVIHmCuOJDmAzq2JVXXtmcdtppZWZYFUHEDsNut2l7zxFBOtj5IIKIB+LPqr91zyLiwL0TFfZC6s4Z8r7vaItnn312c/755xexZLYcT4BEaAsn8pTNZhl5RnKRhPlcIy8VoVafo3sT4tSpC6GxFf0uAzBsKC/eM0KXN02OVad3kNgUhrQpqckCZh121pUQpstQiSAhCG74Thhbo3Lvm+VhNMclK9FR2KIzb4NB0yirW5xRnq2RaFh0qZ2+Tl3dUsc6c2F0rpLseRiqh2O+dJy1fQhvyJnpzKvrzBnqFAu1TX79618vuSHaIUFhRhAvkITo2RZAFeLUApC8E2yDnEEhTtdsoESsEbier8+5btcaO/FElJXyk5NJ6B5zzDHFM2hQ6rkKpZqNx85qF/KALGAZARQGTWpUHzB8m2++edkWwO9xy4bJoIMUBuPqJ7SFTjpDJTpK3g3TvQnr+YQOTSKz3Dn5Tp15TmZd8hARRp3lwRPAAytBVqIs74tp6vYE4yVb2LlS7scspQ9+8IPlmrrXQuI5Fkb/v//3/5YOnqALf0KoiwfN87Uz/KGHHlpCYNWjRjDysO+xxx7NPvvs02y44YYLTfSG+c+89wTVUTijyhNklDYVGHGjUJs+2issbu7QTe3Ia72ouS/qnnwHRp+x9/+KJF+j3d133714RIx252O9MoIX6hASq7N+lIOcOu3JoMJnCCI5NfL0eGf9z3To97///QvCzwvbq+L5uC5iiNfOek6ErkR3oTD1wN+8RESeF8+HUA5P0rB6M5SL5ysP02y6E088seR8KbeabiCMKC/OQNPecnUPuNjaMFMMhQhikDQ8rlcj8snCYAlT2OTRzIRNN920rII7X5JWw2BRt6655pqS3+An8SO3zHpUfvJ86CTVHV5Enb98B8JaBy88NB87SPdrJG8WphchBO1Sp0cI8qz4Wxs988wzS9iQWKpT4a3T0+1JWth4hhK/zVAj5ogz9+AZE3h+yjdUL/zkEaobMBO7Pj/f7Qj7qxx4x9hgeZa8Y35adkRIjGdIWcgPswYQWyv0KaE+AijMNEORE6QhVkMk5syLU0eT3vMCo2Z0pzOqI1TJqtyytVHOJSMc5g7qkIT6o446qjnooINKJ27Zf7uNy4Vh7HWQ6hiPgFwYSdAEEMM/n/Md3Jd2wwsgJ0+Iq7Y5AwreHdtTyBvSOZ5yyilFMNackJ133rksWKjs5hrsCHthsoQBE9si3CkniHeDF9qz5wW77bbbimeQKIB7Vy7VFs03iBvCT06XHEsL1Fqo1p5r6oLyqTlW2gMbu9tuu5VnTlhmHaAwGzxl1Bj9KRg/j2F4hMIYIqN0PxnjTqOk4XG/MrhyD7jh/W40okEOqxs7jI8mROAw8MJeBFAv1DH5LZI91bFFeWuMftHmhLnkgGhzyk0HaA+oAw88sITBJELrMHWQpkV78ZYtCmWkDhA8On33YbaTUFhdmoP9YEd0/ITwP/zDP5QOnydsvuHZGnBKbv/qV79aZkXyjimjzunvxKPna7KJLYh4BondeH/CbDE0IshtGp1xsYtBM1YSMBnjGo82MiN4vBhnDZJnKOInjEc1+LxAch2EwVBHuaaCS3hm8IV3eBj9LZTCczAs8PScfPLJzSGHHFLCXtqdDo/HRx6IQYqX/xOI++67b/HELkqz5Vy7kJctdgyyzAgk7qwNJUeIZ0iiN6/y//k//6fcnzoyHyF4DAi0CwMEeN7CmsKfxC8PoIGnNqJc4v0Js83QiKAQZgpNyChXR2ctqpp3xnthxM/o8wCZReSn/w3jSNcgxOw4qz9bVLBzNpBwoAGJAQiPgMRYHgJekkU1XOR+hPWEQyV5S4on8niGJIJ/6EMfKvdKLM9XJD5bF4tHSLiQ51Puj3WeCKEqfuL5CQuLiKAQwqzA1PAA6RA/+9nPlmnSneaHV8zEA7OCTI2WKzQX84D6xT3yEFkVuYohwkcCMBEwnz3NPGKEkHCYGbaED2FL7IYwF4gICiHMGjrFb37zm83f/u3flllinYtGChHJlTIRQchwviUME0JecmJ4Pgi8+R5qd6/uWWjM8/Ryz/H8hLlCkl1CCLOG0IdwCK+AsGAnwoZypWweOx/FAQEgRMoLxOs1DLmG7pHY65wJFwEU5hIRQSGEWUcCbHdnKIfGi9cghBBmg4igEMKsICxihpg1c+TFmFHXieUqrCNk/61E6UMIs0FEUAhhVjB13Bpdxx9/fEmQrqsnVyxmes8995QE4s61ZEIIYaaICAohzCi8OhKgJUSfccYZZRkBSwrI/TEDrOJzhJDFBs0c4zkKIYSZJCIohDBjEDY8PjYvtoqyqdLCYNbHeec731kWy+vci08ozMrSxBChFEIIM0lEUAhhxpDoLP/Hgnk2krWRphlgtkkwHX699dYrK0ZXEWSvKYsLyg3qzhkKIYRBExEUQpgReIGsnn3++ec3xx13XPndisGbbLJJs/vuu5etMWwjYsp8nS5uNWVrCckZsq1NCCHMJBFBIYQZwZYRdtK3K7xdw60DtPHGGzc77LBDEUP25rNisoURqwginOQD1ZBY52KKIYQwaCKCQggDxTo/Nim+7LLLmgsvvLC5/fbby/8tkPi2t71tQR6QxfNsjsobZBHFukK0ENodd9xRPEcEUQghzBQRQSGEgWFquzCWPbLOPvvssqmsEJf9ojbaaKNm7bXXLrvn1xwgO6jbRdzmmnUjUd4fOUHf/e53S45QCCHMFBFBIYSBQfBY5+eII45oLr/88jLbi9DZZZddmi222KKEvjpXiuYBkij9ute9rvyO6kniQbLruhBZCCHMBBFBIYSB8Pjjj5dcHrvEX3rppSUPaNlll23e9a53Ndtuu23xBtWQV8W+UtYKWnXVVReIIBA+ZpXdd999ZZZYhFAIYSaICAohTBthsLvvvru56KKLShjMFhjPec5zmrXWWqt4gFZaaaXmuc997hO8QJAQ7f88QRKn5QlVCCArSEuQjggKIcwEEUEhhGkhfCV3x4rQ5557bpnezuPDuyMRet111y2J0L12TZcLRCQJi3XuLG9NIcKKGMo2GiGEmSAiKIQwLSRCy/856aSTmuuvv76EuHh1ttlmm2bTTTctv/cSQOD9WWKJJYoQMlusIkGaR4kQIrTiDQohDJqIoBDClJH3c+211zZHHnlk2R1eYrT1f6wF9Na3vrWsA9QdAuuGQBI6kzPUuZcYHP+uu+5qHnnkkSKEQghhkEQEhRCmBA/QLbfc0px55plFCAmJmf6+5pprNltuuWWZCbb44ouPfbo3RNLTnva0IoJ4jTp5+OGHS3jNjLNsoxFCGDQRQSGEvhCWMhNMmMp+YPKAeGzs+r7ccss1b3/724sQ4hGaLIQQAUREdcIDxBNECD366KMJiYUQBkpEUAihL4idX/ziF2UWmJ3hLWzof8985jOL92f99ddvnv/85z9pOvxEyCXiEerGqtE33HBDEVoJiYUQBklEUAhh0hA7FkA88cQTm/POO69MYa/eGcnNyy+/fNkXrF8BhF65Q4899lhZeVrOEc9QCCEMioigEMKk4IWxgrOp8CeffHLZ34tAqfAE1T3BpoJwV9teYWaJWTjxxhtvLF6neINCCIMiIiiEMC7W6CF2JCcTQLxAV155ZdnaohOfefDBB4tQkjQ9GbHiMz7rO5Ks/eyG98lnrrrqqnJeQsi5/D+EEKbDYv84ytjvIYTwJMzKEoo69thjm+OOO6751re+1SpwCBWeHEnT9guTF8Q7NN4U+V/+8pfNd77znebUU09tjjnmmOamm27qKZ6sGWQBRdfzile8YsHxQwhhqsQTFELoCUEjB+j0008vW2LY2b3X6s1yg4StLrjggpLDI3l6PAHk2DZJ/drXvlYEkPwioa9eOC8vkBlpQmMEVAghTIenjBquzDkNIbQi5GT9HytCEym8PRNhLzBT5NdYY43mZS972dh/nwyPD1FllWneoMlujWFrjbe85S1lv7HuKfUhhNAPEUEhhBBCGEoSDgshhBDCUBIRFEIIIYShJCIohBBCCENJRFAIIYQQhpKIoBBCCCEMJRFBIYQQQhhKIoJCCCGEMJREBIUQQghhKIkICiGEEMJQkhWjZ4nf/e53ZQ8meyt52S3bZpOLLbZY2Qhy+eWXb1ZeeeVmmWWWKdsOTBVbEdhgsp7j/vvvLxtP/uEPfyjnsuXAsssu26y66qrNUkstVf4eb3+nEEIIYb4SETSD2Avp0Ucfbe66667m5ptvLj8Jk5/85CfNT3/607JZ5FOf+tRm8cUXL7tiv/rVr25WWmml5o1vfGOz2mqrNS95yUuapz/96WNHGx8ii/CxIeVtt9224Dz2ffr5z39exJFzPec5zyn7ORFARNcb3vCGcj67fj/jGc8YO1oIIYQw/4kImiGIDp6fW265pTnnnHOaSy65pPne977XPPbYY2OfeDIEz6te9apmgw02aLbeeuuyCeXSSy/dPPvZzx77xJNxHh6lO++8s7n00kvLTt9XXXVV8QbZ/HI8eJ1sRLnVVls166yzThFGBFkIIYQwDEQEzRCPPPJIc/rppzdHHXVUEUD9IDxlh+xdd9212WGHHZoVVlhh7J0n84tf/KK59dZbm8985jPNFVdcUbw//UB48Th96EMfat797ncX71DCYyGEEIaBiKABwzPD23P88ccXEXTttdcWofLMZz6zWXHFFYvHZd11121e/vKXF68LwSFs5jP33HNPc+ONNxZPDu8O8bP55ps373//+0u4zDE6eeCBB4rwOeyww4oQEmKT+1MhcOT88C753aN23B//+McLPEXO7z1huN12263ZfvvtxxVdIYQQwnwhImiAKEoeoBtuuKH5/Oc/X8QMcSMPZ8MNNywvIogYIk6qqKni5MEHHyxCSAhNaEv4jJeGR2iLLbYo4aqat+O4l112WXPyyScXseX7Ne9H+EyuD2+ShGuC62lPe1o5z29/+9viLZKfJHfo3nvvbX75y1+Wa9loo42anXbaqQghydkSqUMIIYT5ymL/OMrY72GaPP744yU5mTCRm0NsvPCFL2xWX331Zs899yy5N4QJgUGU8MLUFxFC8Cy33HLN61//+iJkCCoixTHl70ho5j3iwSFgiJ9zzz23nIc3iUAieNZYY41mxx13LIJmyy23bNZee+2S/Owlz4gQczyfJ4okTkvS/tWvflXug1fIdSdROoQQwnwmImiA8M7cdNNNzRFHHFFCTuD12X///Zu3v/3tJSxF8IxH9eT4HiEixCWx+nnPe17xBDkG4XLCCSc0Z599dvOd73xn7JtNEUC8OR//+Mebd77znSWpmtjqpIa/HIvYIbx4n1x7nUX2yle+sniQnDOEEEKYr0QEDZC77767eICIFkLFejzECI8MsdEtSMaDGCJChNJ4eoTK/O5/wmTHHXdcc8cdd5Sp8YSNKe7yh4TO1lprrfJZxxgPnh6CixfKtZvOLwTmbx4rIoxgCiGEEOYjWTF6QAiF1ZweidFCVtb9IUiWWGKJBfk/k4WAEf4S2tpmm23K/yRNE1hePEByeUAErbfees1mm23WvOlNbyqLL04mn4cIcm3rr7/+As+TkJgka4ssSp4OIYQQ5isRQQOCR4bHxowt8LAQQcQFb8pEYbA2eI6EpjbddNPmNa95TfODH/ygOfPMM5vzzz+/efjhh4vQImTqZ6z5IyTWD65THpKp8bxVPFjOc9999y0QWSGEEMJ8JCJoQPCayN+xQjN4WIgLU9ung0To1772tc1b3/rW4t255ppryurTZoNBGOxtb3tb8QQtueSSfYstQovnSOiOJ4iwcmwhNzlCIYQQwnwlImhAEA6dIoiweNGLXjStfcBA1BAqZoxZv6fzeDXB+V3velcRQFOZzeX4xBVvkmuu8AhZcygrKIQQQpivRAQNCFPMhY/MsgKBQpT0kww9HsJtXmZvVQgX0+/lAVl3aKJE6F4QQsJiNQma8JEbRAjxDIUQQgjzkYW2WKJ1bayDYyo5D4q/5yKEQQ0XmZnVK+HYuj2f+9znyurNsDbPvvvu2+yyyy5P8LD0i3IhRo455pjyuvLKK8v/XYcQmVWe3/e+9xXBNVURRFhdeOGFzRe+8IXmrLPOKsLNFhr77LNP8453vGNKHqYQQghhzkMELQx+//vfj5xzzjkj22+//choJ0uIzcnXC1/4wpFNN9105JJLLhn59a9/PXb1T+bWW28dGRU9C743KoJGDjnkkJFHH3107BNT4ze/+c3I3XffPbLXXnuNLLXUUguOv/jii4/st99+I9dff/3YJ6fO448/Xp7FVlttVY49KoJGtttuu5FRQVSeUwghhDAfSThsQDzrWc8qs6tMa4fwmGRpP6fK6PMpOUYXX3xxWYTRjDAIX/EuSYoe1IKGrrOG2urx68rWIYQQwnwkImhAEEHycrxg4UH5QdNZa8d6Q9/97ndLqOpHP/rRAkFFHDmudYm8phtK9H3XK+wGIshii9Y2mmqILYQQQpjrLLScIIsLfvvb3y57X9lotDPhdy7BG2J7CSsx+9lr0UMeG1tZHH744WUDVZ4U39lvv/3Kgof9QphYxVmOzmc/+9myBhERJD/HrDMJyzZJtZDiXnvtVUTLZBZI7MZ5zGz70pe+1Hzta18rHif3eMABBzQ777xzOUcIIYQwH8ku8gOCF8VChkTQeeedV/5nw9Q/+7M/K0nG/WImmJWhjzzyyOaMM84Y++8fZ4TZH4yXSEK5BRntFWYtIUKoX0yDF2b713/913I+m7WaKXbQQQc1W2+9ddloNYQQQpiPJNYxIHhPrNVjZWfhJPzwhz8snhVeIp6vycI7Y0FE+5Bdd911Y//9o1dqlVVWKTPOtttuu3K+u+66qznttNPKStVT8aYJq9nqwz5kRJVwnmn3RFUN7YUQQgjzkYigASF3xg7vNh61gCFRZP+tq6++uqzyLOdmMk43HiWrNQuDmQ5PmFSsQL3BBhuUdYGsEC3MJheJB+rSSy8toquf/CCi6aGHHirn8V3nlmhtYUYCy2rVIYQQwnwlu8gPEGsKydWx7xZxwQMk34bYMHOMwCBaeiUb1+0qLrjgguakk04qm6QKi0EekDCY0BqRIueoipjLL7+8iB//s3cY8VK9Ub0gyITBrr/++ubEE08s3iD/4wGyAvWaa65ZjjfRcUIIIYRFlYigAVJXiJbAbPFEe29ZeVlITDiMkOFhqdPOiY76ImjMBDv77LNLIvS99967YLaWhGeLL2677bbNxhtvXHJ2HKNuoXHLLbeUcJY8ISEsHiNCq5fYcj7Xc+211xaxJZzmmuUb2VHe4ovEVF1BOoQQQpiPRAQNGELI5qkEiRWx69o+prITKzfeeGP53fR5IknIjGAiRo466qjmG9/4RvHuECnEimRnO9HvvffeZaNUG7JWceNcPEvECk+O/CAv5ySGiCSf6fTmOK7rcp5jjz225B3xQDmO4xNawm3CefEChRBCmM9kdtiAqV4deTYnn3xyye3h1QFhYYFDW3BYVFHYyueJkB/84AdFEHXu3C6EZoq68NRmm21WPDy8QJ3wNPEgEVDCaLYhWXrppRdsuOr3l770peV7hJkEauE63inii+AigN785jc3O+20U7PFFluU6wshhBDmOxFBMwTBQQiZ3s7bQpwQOxNtSMr7IvwlHCUvh/gxE4yQ4dXppoouCdjCWoRQDaURUUSQEJx8JB4gYosI8r7zEGU8TTvuuGPZJ8zvvcJoIYQQwnwiImgGEXoiOuT5HHfccc2dd95ZpqRLYlbs9QXCgwAS2iJYJEBvv/32ZTbYZLbGcEx5Qdb6Ofroo8t5ia56ropz1HwhQmudddZp9txzz5ILRBAlBBZCCGFYiAiaQRSthGMeGN4XIujWW28tL1PShaZ4jITJhKB4YYSxJEEvv/zyJbfIDK3JrgRNYMkHMsPsiiuuKFPz5SE5N4S9hOFWXnnlshYQT9Nqq61WPEXOk33CQgghDBMRQbMEMSTfR1jMPmCEkbWD/J/3R+iKZ4YgEcKSED0VUcLzY1o94WP1Z+cyVR/VyyS5uobJeH8ifkIIIQwjEUEhhBBCGEqSARtCCCGEoSQiKIQQQghDSURQCCGEEIaSiKAQQgghDCURQSGEEEIYSiKCQgghhDCURASFEEIIYSiJCAohhBDCUBIRFEIIIYShJCIohBBCCENJRFAIIYQQhpKIoBBCCCEMJRFBIYQQQhhKIoJCCCGEMJREBIUQQghhKIkICiGEEMJQEhEUQgghhKEkIiiEEEIIQ0lEUAghhBCGkoigEEIIIQwhTfP/Acri3a4KECcBAAAAAElFTkSuQmCC;" vertex="1" parent="1">
          <mxGeometry x="596" y="490" width="84" height="41.93" as="geometry" />
        </mxCell>
        <mxCell id="vPh5yiBVEbnupIEMpU4R-137" value="" style="shape=image;verticalLabelPosition=bottom;labelBackgroundColor=default;verticalAlign=top;aspect=fixed;imageAspect=0;image=data:image/png,iVBORw0KGgoAAAANSUhEUgAABBIAAACHCAYAAACrvHolAAAAAXNSR0IArs4c6QAAAARnQU1BAACxjwv8YQUAAAAJcEhZcwAADsMAAA7DAcdvqGQAAGkJSURBVHhe7Z0HuBTV+f9H/SXGEjE2NFbUYAVBaTZUlBIFREAQFBQEe4kJiGIldsSOIhYsICKiKCrFAhawYC+IHdEQrNFoojH+k/nP57Dn5uwwe+/s7szu3r3fz/PsA1z27s7OnvP29z2r+AGeEEIIIYQQQgghRAxWzfwphBBCCCGEEEIIUScKJAghhBBCCCGEECI2CiQIIYQQQgghhBAiNgokCCGEEEIIIYQQIjYKJAghhBBCCCGEECI2CiQIIYQQQgghhBAiNgokCCGEEEIIIYQQIjYKJAghhBBCCCGEECI2CiQIIYQQQgghhBAiNgokCCGEEEIIIYQQIjYKJAghhBBCCCGEECI2CiQIIYQQQgghhBAiNgokCCGEEEIIIYQQIjYKJAghhBBCCCGEECI2CiQIIYQQQgghhBAiNgokCCGEEEIIIYQQIjYKJAghhBBCCCGEECI2q/gBmb8LEcn/+3//z/v888+9t956y3vllVe8JUuWeO+++6733Xffmf/faqutvG233dZr3bq1t/vuu3ubbbaZt8oqq5j/E0IIUXn897//9b766isj119//XVv8eLF3tKlS70vvvjC+7//+z9vo4028rbbbjuvZcuWRq5vueWW3i9+8YvMbwshhBCi1PznP/8xuvvNN980PtmHH37ovfPOO8YnW3XVVb1NN93Ua9q0qdHd7dq185o0aWJ+nhYKJIhIfv75ZxMwmD17tjdz5kzvo48+8v7xj394P/74o/fvf//b++mnn8xihl/+8pfe6quv7q255preeuut5/Xo0cMbOnSoWbxCCCEqA9T9X//6V2/WrFneI488YgyRf/3rX0au8yeyncAxgWCCCcj1NdZYw1t//fW9Tp06eUOGDPF23HFHb7XVVsu8ohBCCCHShMA/Ptljjz1mfDKSudYnwx9zfTIC/r/61a+M7t5ggw2M7j722GNNYiCNJK8CCSILjMj58+d7t956q7dgwQLv66+/9n744QfzcyJc/fr18/bZZx8TMMDoJJM1ceJE7+mnnza/zyJdZ511vPbt23sjR4702rZtq+oEIYQoM4sWLfLGjBnjzZkzxxgfVq5vsskmXp8+fbyOHTt6v/3tb01Agefef//93ty5c81zkeEYJXvvvbc3fPhwb6+99jJBBiGEEEKkAwGE559/3vhkTz75ZI1PRrKXKsHDDjvM6O4NN9zQ/OyNN97wpkyZ4j366KPm99Hda6+9tqlMOOOMM7x999038eqE1c4PyPxdCGNEPvzww94999zjffLJJybKxULu37+/d9VVV3ndu3f3ttlmG69x48bG6GzWrJnXrVs3k7169dVXa6oVyHp9++23pt1h3XXXzby6EEKIcvDUU095o0aN8v7+978bOU9Vwf777++NHTvWBIgJFG+88camLHLnnXc2BgcB4/fee8/8DkYKrQ/ff/+9+X9aHxQkFkIIIdIBvUvwf9KkSd7HH39sdDc+GZXf48aN83r27Glay9HdPNDNXbp0Mbr7pZdeMv4YftmyZcu8L7/80mvRooUJOiSJhi2KlaA8hoctVjnwwANNFooFSvsCBigRLR60NWBQDhs2zAQbLJTcUNlAVIyNIIQQonwg0zEoANm9ww47eOecc47JVKy11lomGOzKdWbdDBw40AQZGjVqZH6PCgaqz8iMEFwQQgghRHqgu9G91iej4hvdTSIX3Y1PRlDf6m4SvbSX04poIaDw2muvGZ+MioYkUSBB1ArG5nHHHedtv/32xtCMggVM1UHv3r1NUMGCofnyyy+bygQhhBCVAW0KJ598srfHHnsY4yMK5DoGyX777Wd6Ky1kNV588UUz7EkIIYQQpYGqg1NOOcXbaaed6vTJqCDneRaru/kzSRRIEDlhMe65555e8+bNzeCO2rAZLloZLEwQZaKoDE4hhKgMkNXI9c6dOxsZXxtkOiibpJ3NfS6ta/Rq2uFOQgghhEgXWg5btWplKg9qgyADA+932WWXzE9WtK7Tnrh8+fLMT5JBgQSxEgzRopSVLBSDFZnYXRcYmQxZZPiHC6W09phIIYQQ5QHD4ze/+Y2R53awYhzQBVtvvXXWrBta1yiP1KxmIYQQIh3wraxPhv6mQhAdXlcSgP9nyOIWW2yR+ckKCCYw5yhJFEgQWTADgZJXpnZzrvgRRxxhFmMciICFKxcYCmL7coUQQpQHhjL97W9/87744gsz0yZXS0MYqhKQ624ZJTLd7dkUQgghRLJwlOPRRx9tjmpGfx9zzDGxfTJ0PG2MLlQRJj23ToEEkRgEDdxSVxsRS3pCqBBCiNJAsICgAfLdwtnUVCgQZBBCCCFEZWF1t0saPpkCCSIRWLCUun7++eeZn6yobqAkNm70TAghRGWBXGcmgtuiRoklcr2u8kohhBBClB5Oavjss88y/1pRXUgCwJ7ClBQKJIhEIJDAUMUPPvgg85MVkS8GfZC9EkIIUb9ArjPhmUCCLYekVHLHHXc0cl2BBCGEEKKyoIKQVohPPvkk85MVlYQMxOc0piRRIEEkAuUzHPXIbAUg8sWQD44Xq+vEByGEEJUHg5neeecdb8mSJZmfeOYUn9133z3xrIYQQgghioc5Rm+99VaWT8Yw/LZt25rB+EmiQIJIBAZ4zZgxw/vxxx9Nloqpol27dvWaNWuWeYYQQoj6AtUIVCLMnz/fHBkFGCAcP8XZ1HUdPyWEEEKI0mIrxOfMmeP95S9/MT+zJz7suuuuiVcSKpAgioY+nEcffdR78sknzb85qoRzynv37p145EsIIUT6/POf//See+4575lnnjF/Z+ZNhw4dvIMPPtjbeOONM88SQgghRKVAJSEJgHnz5pl/UxXepk0bc3JTGsPvFUgQRUHk69VXX/XGjRvnff311+aIMLJVxx9/vLf99ttnniWEEKK+wDwEjpuaNm2aaW3gGCnkOscBM/fGPQpSCCGEEOWHk/NoZ7jllltMS6L1yYYMGeK1bNky86xkUSBBFAWlrzfccIP30ksvGWNzq622MmeeMhsh7jnlQgghKgOCw5RD3n///SarwfybzTff3OvVq5epNKMyQQghhBCVA7qbNvM777zT6G58MHT3YYcd5u2zzz7eL37xi8wzk0WeniiYb775xps4caL38MMPm54bhisS9Tr00EO9tdZaK/MsIYQQ9QEMESrLZs6c6T3wwAPm75tuuqnXv39/I9eTnvYshBBCiOL5xz/+4d13333e9OnTTVUhupsqwn79+nnrrbde5lnJo0CCKAjOFidjNX78eBNQYLjioEGDTDWCjnsUQoj6B4bI448/7k2YMMEc5bvRRht5ffr08QYPHmyqzXTcoxBCCFFZEDggATB27Fhv2bJlZrhi3759vWOOOcYEFNJEgQSRNyzYxx57zLv22mvNNG8W7IABA0wgQUEEIYSofzCg6fnnn/duvfVW74033jCy/JBDDvGOPPJIr0mTJmpVE0IIISqM//73v6aV4fLLL/feffddM+SeYfdDhw71Nttss8yz0kOWgcgLgghkrMaMGWMGenAEGGUzp5xyiunFEUIIUb/g5J2FCxd6N954o/fss8+a1rQDDzzQGCIMauIMaiGEEEJUDgQROFnp0ksv9V5++WXjk3Xv3t079dRTvW233TbzrHRRIEHEhgXLcWCjR482mSumgdI7SxCBslchhBD1C4Ypvv322yaIwDG+DGQiiHDsscd6zZo10wkNQgghRIXBTKPXXnvNu+SSS8zx+wT8e/To4Z122mnm1LxSVREqkCBi89Zbb5l2BoIIGJ9du3b1hg8f7jVt2jTzDCGEEPUFgsOffPKJmYkwa9Ys8++99trL9FW2atXKZDeEEEIIUVl89NFH3tVXX+099dRT3r///W+vQ4cO3ogRI8wRzaWcZ6RAgojFxx9/bDJWTzzxhCmDJYhw+umne9ttt50GcAkhRD2DbMZXX31lTt6ZOnWqkesEEU444QSvbdu2CiIIIYQQFcjnn39ufDJOzWO+0X777eedffbZXvPmzUs+z0iBBFEnGJt33HGHN2PGDO+7777z2rdvb6JeLVu21AAuIYSoh/zzn/80R0XdfPPN5uQd2hiOP/54c970GmuskXmWEEIIISqF77//3rvzzju9KVOmeN9++62pHjz33HO9du3alaUVUV6gqBWOAyNbdffdd3ufffaZiXbRzsDCpZdWCCFE/YIySOYh0Kq2fPlyb4sttjCDFffff38zaFEIIYQQlQW6m6P3OV3pr3/9qxmoeMYZZ3h77LFH2aoIFUgQOaFflt4bqhE+/PBD77e//a0ZrLj33nt7q6++euZZQggh6gu0NCxevNgEEd5//31zfC9HPHLU469//evMs4QQQghRKaC7mVF3/fXXG5+sUaNGxifr1KlTWVsRFUgQOXnnnXe82267zQxZpFymT58+XufOnY2xWddcBBY8Pbe0Qvz444/m30IIIcrL3/72N2/cuHHeCy+8YIwPZPrhhx/urbfeepln1A79mMh1/pRcF0IIIdKHwcjjx483R+8z8L53795ez549vbXXXjvzjNygq6lmoC0iaZ9MgQQRCT2z9M9y3COLDmOTrFXjxo1jDVf8+9//bqJmBx98sHkdFr0QQojygfFAWeTkyZONTG7RooV30kkneVtuuWUsuU6rG8Flhu3So4lRIoQQQoj0+OGHH7x7773XVInjk9GGeOKJJ+blk6G7e/Xq5d11110mEZAUCiQUAJn2l156ybvgggvMxGsyPNUELQ0LFizwHnzwQTMXgfNIBw8ebHpxOKe0LjBQKZnFYP3ggw/MMJBw9Os///mP2RBXXHGFOXbs66+/VnZLpA7rbunSpd5NN93knX/++eY0EhEN94pqpNGjR3uXX365UWT1HWQT816uvPJK79lnnzUKuVRQkshAJOQdMrEcvPvuu2a4IgEAshjI9d122y2WXAdaIqZPn27uHTKbNSIaFuwhympvuOEG7+KLL/Y+/fTTzP8IISoBe6zv7bff7l166aXe22+/bX5Wn0HXkNjEZ3jooYe8L774oiQ+A+87b948876zZ88ui6/C+y1cuNDYLsw02myzzbzjjjvOnJoXR3fzGZDZ+HSsBT5DkutBgYQ84OYzJZOITvfu3b3LLrusxtmuJieYAR4cKUIwgMV2wAEHeE2bNjVGN5UKuR4EVHDSpk2b5p1zzjlm4dMSQStEeJIopbEEK6677jpTVst74NhhqP7888+ZZwmRDKypZ555xjv22GPNVPphw4aZIaJvvPGGAlghcDIfeOCBmlYmAqb8e9myZZln1F8wPubMmWOMq27dunkdO3Y0lVMcpZTmOqCkEGOEABbyjuMVzzrrLCNjS7X+uAYyEa+++qoZlEtGg3k3nN4QJc/dBwE3KssuvPBCY8ytv/765lGOCdGiPJDBmjt3rjdkyBBzXjkDvtD1lNlKhgpRftijyOc//OEPpm/+1FNP9SZNmmScRxKg9Rmq4WjHQ18PHDjQ+AzoUGw4dFtakMnHV2GmUP/+/Y3N8Oc//9m0fpeq0hrfk1PzlixZYnwyroHB9yR3ovS1feCTEVAiqTtq1ChzfD/tjOuss07s5EEsAgUg6iD4MvyJEyf6e+yxh7/mmmv6gfGE1jSPnXbayZ85c6YfbNLMs+s3wYb0J0+e7O+4447+KqusYj7j6quv7gcLz2/UqFGdD57n3qNtttnGnzJlSubV/0ewCf1DDz205j1WXXVV8z6bbLKJf/rpp/vBhvH/85//ZJ4tRGGwhubPn+/37NnTX3vttf3AgapZcxtttJEfOEZ+IIwzz27YfP/9937gGPh77bWX2ceunAuUjv/AAw9knll/efbZZ/1AAWfJnTXWWMPfYost/GuuucYPnOrMM5Nl2bJlft++ff1f/epX5n15fytXTz75ZP/TTz/NPDM9+OxbbrllzXcaGBQFy3Xu15133ukHxl3m1UW1gk0QGKB+9+7d/bXWWitLhm666ab+FVdc4f/444+ZZwshSs2//vUvI98HDBjgb7jhhka2uzru7LPP9r/44ovMs+snH374oX/UUUdlfS506MYbb+yfeuqp/rvvvusHjn3m2cmxePFiv1evXiu9L77KiBEj/I8//jhVX4XXxvZKyif73e9+5992221GridFYoGEV1991T/44IPNAi7HY4cddvDvueeeRJ0CbvQzzzxjFChfhP0S7Zdx7rnn+osWLYr9hfC8GTNm+L/5zW8iP0Ntj5NOOsn/5JNPMq8UzaxZs4xRHPX7UY8NNtjAbMC//vWvmVfwzXscffTR5vPaz1rMI1cg4b///a8RbHfffbffvn17szHs7+C0bL/99v4dd9xhnBshCuHzzz/3jz32WCNAEf52ff361782Cumpp57KW158/fXX/imnnGL2TtSeKsVj1KhRiRru7MWFCxf6ffr0MYrHlXO//e1v/WHDhvlvvvmm//PPP2d+o3ZQ5hg1HTt2jLz+2h78DgYD1xQFShWZ26lTp8jfz/UgkMRn4NqQcddee62R4e66QO60atXKnzt3buKGAZ/n22+/NYGaffbZZ6UgDQ7Z+PHjUwtqEejme3S/22IeBBIIriuQUN1gGwwaNGglGYoNM3ToUH/BggV5rVlk7s477xy5R3M9CL7tvffexqCvjaefftrsrajXyPXo3Lmzv3z58swriGqGYO3xxx8fuQ5K8cBmuOSSS4wNkRTolaVLl/pnnXWW0SHhPXrYYYf5c+bM8f/+97/n1Klh/vKXv/hdunSJ/Ay1Pfbbbz//ySefrNWZ57UPOuggs6ejXiPqQQIXucH1f/XVV0aHHnDAATVBeR587qZNmxod+s0332TeLRl4X3yVu+66yyRZuCb7vuhufM80dSHvjc257rrr1rxvMY+KDSSwcB599FHzhfOFJmWs5PPAGcXpTyoixWa//vrrjSNs34PPRUYHQ76QjDnGPwYsjkzce8TzEAiXXXaZqYyojSuvvDIrW1Dbg+cgeHhd66zzeaiu2G233SJ/p5AHFRsY5rXB+997771m/bgBBR44fB988EHihr2oXlgrjz32mN+sWbOstUSQbeDAgf4rr7xS8Hp6//33/d///vdGicXdw0k+eE8UaVJKAOV3yy23GCXsvgdKi8qgjz76KO97RXaEgOkuu+wS+x7xPHTH4MGDa82c8LmRJ250vraHfV0MSAwuF+Tpdddd52+11VZZBhhOExmcJA0+F5x67s+ee+6Z9RlYU/369fPffvvt2EZfXHDCqMSw71XsA2fwkUceqZpKPJENe57EhCsXeJDdIoDw+uuv571GeT7Vjk2aNMlLLmAvIRc+++yzzCutDEHOqVOnZlUb1fVgzx933HGqSGsgvPbaa36PHj3K5qOwl0icJZUEQPYSPMOpdt+HJCAZdP4v3/dij7788st+ixYtsnRibQ/uJc8lWP/GG29kXikabK/NN9889mvzPJIGVBu4YLc8+OCDJnjhBhR49O/f3yQbkvIFXb777juTsN59992zAgo8kFGF2Et1MW/ePH/XXXfNeq9iHshI7l2SNkZiFQlcFFEvlM+BBx5ojPaoD0EEh4VOmXE+D0rqWDC5FmDv3r2NAVYsLAJKVc444wx//fXXN6/NRuGau3btar7UYox4Xp9NMWTIkKysVPjBe1I6QySKao84Bhuv/dZbbxlhWZug5Lvp0KGDWUxuxh9ljENPVi7qOyjk0aZNGxPgiQOG/siRI00W1L1+sgwvvvhi7IyoaLigOG+88UbTtmDXEDJn6623NlHjJBwfXoM9iRGKYW3XqfvgvZFXUXuirgf7M5dsIDhC9UCxShJ5TbaRoCj7zb4+77vvvvv6jz/+uAkIFAqvT/aB1hEMh9rkEe+JzCKbEceoR84RyKWsECcj6jV58L2jgMlS4ITkUpzoDUpCXYOEgCytCFRHJG0YWAhknHPOOSZTZe8P96Jdu3ZGzyQp71gz6623XuR6K+TBNRKsSzKrISoD9iAJD6qT7H5gXRK8o7qw2O+cvXjmmWfW2Fe5HthcyAXshzgOEfv0vffeM1WWlHdHvSYP5AJy9PbbbzeOgWg4sLZfeOEFEwxD7katD3wMdHCU3KvrUZvupqoGuZ6Eg8u6xVZ3g8NcN9lxEqDFBsGpnuN13Fa4qAefF0ef0nt+J45zSlXBRRddlPM+8eCzEHAk0UklSa7X5f+wYbhO1zckKYncSCvQbX1EfDTXtsF2IhCTpO4m6ZCkT4buxk9PksRnJPCFs1m4WHtz3QcRJIR9PsYZr0mQgsVK5QGKwH1NFhDZs9oi1nFgg3NtZK+sUclr45TQWkBff5yNUhd8djKbzAhwF7/7wOjDUKa3Nl+ee+45s8DDr8mCp7rhyCOPTOyzJA0GAy0N2223Xdb3jMBM2rgW1QWK7NJLL81yLokaI3NeeumlxNc7jjiR/3AVDQ+u4aGHHso8Mz6sf/YvmemoIAVR/9oUaxyQP0TOhw8fbmQbr2sDH1QAkb1OKpqP/EKO1VaWhxwkuJqvTiAAgKMR9ZoEAmiToHohjuNDhoOyUxStNQxYO5R4kslKI7sBfGYqTHDSrLxDJ/Dv6dOnFxXMESJfKAvGMHdlGs4CVVgET5OSoTg62FTsN/s+7oP9y94mYJgvGPJU++R6XZIo7OlKtH9EaUB30IodZX8je5kJkm/AjCAFrT7oM9aZ+5roFNoM6mrPqQvWLHt0woQJ/rbbblvz+rwfvlGS89pIMlLlHM682wf3bv/99zczqPLR3cBnwHaKel3ejwQk+i+OvY/NRKUHPoIbnLDz69LSobwvLQJUmri+CpWYdbV4VBupDFski0MfjL2x7sOWqBUixPniMLrcKBwP+jVvvvnmovrp2QhcNxUANojA5t9ss83MLIRCHPra4LMQGHGFgfsgk0bFQCGOM1UJCEP39fgsBCeIxNIqUMmwAR9++GG/devWWYKB7x2h1ZA2qIgHimnMmDFmjdv1gkKi778QYzQOKChK4MPGMHuNzAD7sBCQjWRN6McLGzr0uRNULRTkHNF0MoKNGzeueV3uG69NVVCSBjbvx56l/DLKaGN/jx07tqDMIN/r4YcfvtJr8r1TFUdGIh/5iVzBMHArNHCo0GWUbOZrLMWF16UMlXJJa5DwJ/IOHZBWVkUIFypkyBRS/WnXP7YQ7WDhtqAkoEoGYz9KLnANVEUUIotIkhAsCL8mzla3bt1S3cuifvDll1/mrIohAE1pfCFrBB3CfKCodgMy2MxtKhT2AskSKivpc3dfmzluvG+S65rXIuFJ8sIG190HFR1U1FFhkC8MNcYXCb8me7Rt27YmAJCPnc+10l5P1Qf6374e8iXNyjmukYQR7eCur0Iwge+jofgqJT/+ceutt/aChe8FCzPzk/gESs0LDHRzdqb7+xtttJG3+eabe4HRl/lJfgT3wRx5yLEiHM8VOAjm9Xndvn37ekcffbQXGJeZZycD19qsWTNvzz33jDyGg3vUqFGjgo7o+Oyzz8wxZy6BYjbHpfzpT3/yttlmm8xPKxM+c5cuXbwRI0aY9RIYGubnHPPCOeychR4IVfMzIf7xj394d9xxhzd69Ghz3A2wvzi6MDCMva222sr8rFQgO5BRyI9C4PcDQ8HbY489vN/85jeZn3rmyL7tt9/eHN9TCFbOTZgwwTw48hDWXntt77DDDjPnEiNHC5HNuWDvNm3a1Mi59dZbL/PT/7Hxxhub+xQo4cxP4hEYDl5gVJljkVy4R7wXx1+1a9cur9dF7gwYMMAbOXKkkb0QOPHeU0895V199dXmGCXuYdJwj3bffXdz/O2OO+5o/s3nQ85xPO6LL75YsmOmRMPk+++/926++WYjQzkOFJChBx54oFmXW2yxhflZkmDL8fpRdht7EdmQryxifwaOTc1nsCAH9tprL3Mstd1jQkTBWl933XULWiOsW+yNFi1aGF1kady4sbG7scML5YcffvBmz55tjh7k2GDAFkB3/PGPfzRHCie5rnkt9iDHSLp2iAV/DJ3On/mCvPnLX/6S+dcKeD/uEXY/75mP78Pvcpzx8OHDjY1kf5ejaTm+mj/T8Bl4n9///vfmKFy+d3v/X3/9dSNr3nvvvQbhq6QiTTGCom4eCw7H0N1g+bLhhhsaI3uNNdbI/KRwYxRQPJwT+tBDDxlnhCACYEgecsgh3kknnZSKEkVBIlxw7qMcDpwjnKJ8DUgrbFCmFu4Vwua0004zRn19gA3atWtXcw7upptuWmNQzJ071wgGhFAaRr2oX/z73/82a4IAoF3zCHPWO0bxtttua36WBsi4n3/+eaV1yFrlfddZZ53MT/Ln17/+tZFz/GnZcsstvSZNmhR8dv93331nZMPdd99dE0RANhx66KHeySefbGRzkkEEC8YGzj2fJwz7mOBGvnLuxx9/9F577TXvzTffzPxkhVG16667escee6xxGgq5T8gdzqg+8cQTa+49sviBBx7wxo8f73355ZfmZ0nDte69997esGHDvM0228z8jCAG52aPGzfOnFmt4KlIA2Too48+atY3MgKQoazHMWPGGJmTBgQwDzroICMfwnIHG7IQHU8AgcDb8uXLMz9ZEVzcZZddzN7iz3wcFFGdWN3NOnNh3eMQksgrFPQ+wSrsVssGG2xg/l1oshP9SCLtmmuuqQkioDN2220343izV60TmyTcBxIarVq1yvzkf+BrkLDkz3zg3i9cuNB76aWXMj9Zcd+xP0gAEFwsZI/yGgQgsGWQWfZ+PP3008ZnSCsRwLV269bN+CoknK0se+KJJ0wia9myZVXvq6QSSPjmm29WiggDWTqc8kINYWAjEjiwETK+RLJo66+/fkFGMMKEBU003ma3MEjZoP37908liGAhsLLTTjuZyoQw3D8ybvkY2GxQDE+MXgtKlEjlqFGjzJ9pOAppwXd9+OGHmyyhzRDC1KlTjXFNVFM0XFjvixcv9m677TZvyZIlNY4WexZlkmYQAQg6Uv0TNkbYY0TWCzUaABlJ0NSN9mPg4GQWYjDgLCDn7rrrrixDBJnQr1+/1IIIgIzmu0D+R90T5C7XFxfuN9/3jBkzjJIG5Bxy9JRTTvG6d++eFWjOFxycE044wevZs2dN9QdB3UmTJnn33XdfpG5LAq4Zg4RAiJV3yLg5c+aYIDdrTYgkQWYSjLvllluyDF5kDYkH/kwTHC6coLDjwHURtMtXLrz11lsmKGIDpchKbKzzzjvP69ChQ8HVXKK6wPklgE2Q2AW5ixNajO5GF+GPuIkEkob4LYX4PuxJrhUf5bnnnjM/Y12TWMA+xtEvxCaIA6+7ySabmEBC+J5wD9mjBPXzgSAfutQG5bE7sGuolj7qqKOKuvf8bp8+fUwywPUJ77//fu/aa6+tCZQmDe+Ln3LEEUdkJX/uuece78Ybb6x6XyXx1ceizxVIYLGQfS9m0fOFsUAw9oCAAkZwIdk/rhXlefvtt3uvvvqq+RnXhvIkiNC6devUNiigPIlStmnTZqXyIIzrpUuX5mW08nxKYT/44APzb66dMh82aH0LIlgQ7AgFrt8aGxgZZFWJ+Knkt+GCczdt2jRvwYIFNcqM0sEjjzzSVPoUE7CMA8oBZWgDGBauAae5WMhiuHKB4AT7IV+ZhJz79NNPvQcffNB7+eWXMz/1jOzp3bu3kT9pG9gYUVQlEPQNQ1AAg846MbXBc6g8mT59uvfkk0+anyEXMP5Q5JQZFhNEAOQk10tLG06IhewLQcxXXnllpeBRUvD99urVy7R22co9Pi8Vc48//njeRpsQtYGdMWXKFO/55583FTCA/BoyZIhxvNO2GbDleJ+w88D+wo6Ja/gjF3C2kAvIOPtZcLaoLtpnn31WsrFEw4V1hZ8Sth/RI+ioYmwH9BGtETYYjG7F92GtFwIy/5FHHjE6wIL/Qyl/jx49imqXiAOOMbobP8uFRAp2RT5VevgzyBsqIy3YOYMGDTIJjWKCCBZ8QV6La7Y6FCZPnmyC8mn5DHzf2J74KtZGQ47hq1A1W82+SuJeMjcLgysc6QOEeiGGsAu/S7mNVQpEy1jghZQiEVEjej1r1qzMT1ZsUCLkOCKlUDwsegz5cPYUJ4ly1nAPcC54/q233mqcBcAAICBCqRDlPsXc83JDSTSRSjK0FsoeidBSriQaHlQSPfvss97DDz+ctUfYSzhiNtCYJjh4rL+wgmC9RjnM+YJMs4oQY4SgYCFGAwEPyvuQczYyjrONcb3ffvsVFITNF96PigFkdTj7SCCBDGIc5xxDhADixIkTjSGInCM4zXdOUCSql7MQuEb6XDFI7P0hO0rvI8Gr8AyapEBOU1FDVsUtKSdITKUZcxPiBFyEqAvWM/M/cFJch50MJ+1OSRj1dcF6x+DHVnGDFshU1jqOShxoT0UXEEiwexO5QDCQCiU3SygaNjYYTcVvGErTsTPDOiofWNPsHes/sA7R3QQX8oVrffvtt02y07ZuEuSgRRl9l/TstiiwPXg/9GEY9hq2eBwnGXkzb948Y7dbOwQ7jc9xzDHH1ARekgA7g+oAt9UAG4NK5o8//tj8Ow24T/gqBEeA7w8Zhm9Wzb5K4t4l0TMWVjiSbLNGxTrnvA5Khz4ajC3KT9mk+UYQySJ++OGHxiDFCQdrxNGb7/Y3pQkChyCCm/mysPB41GVgE7ShdAdhY7OjlFKRVcAgqO/lfHwvBHaIwFqhwD155plnjBFksw+i4YCMwWhkD9s1jyJCHpC5Z82kDQopqiIBJWYVSTGwhwkCIufItjM8MF/jnn3y0UcfmTYAW6kEXCPDKJHJrgGfJrwXPcrhwAXXxVCiusqY+X9atxiKaz8Lr4UuoGopaZlN0IYKBzIMFoIXBDIoMSWYlQboSKrhOnbsWCO7yf7QmkJVQlrlmaJhgW1BUIwglZVhODsMmMYOKpVcIMEUrn7gejDAaVUIy9cwJISoTqJti6AkMHeBICAPZHGpPouofJDblNdHBRKoHCg22claQ3djr6K7scFpDSgk2YltT3k8MwUs6DzsAnREKdY178Ee4jOEA3LcRxKeUYljF+wQKvmY8YDNhoONz4Zdb2cLJAnf37777mte361KmD9/vkm22ll4ScP7ord5XwtBFpvIqVZfJXFrm82J4Ro2dliIGJLFOrV8UUTGLr74YrPB3EnX+cAX+thjj2UN/MBwxGgkq1lMRDIf2KRELPlMYQMbBY8ira2/xn4OWhrsgCE2Owp08ODBVROJpyyM4ZduxhFhgCFke75Fw8A6lJTjunsDR5sMeykqiTBGWHdRioGodBLlhijXCy+80Mg5epj5fK5SjAMKHqfXNUQwaDAKGExYbBtAPuCkEEigbcCFTAHXh87IlW3HEEEWYohQiQJ8DowFshlpDJFFp+DkEHBxK1xwcDAK7HyGpEEnkBXDGOH9LZRuE0hgLkhdzpUQtYHcoiWMfecOS2NIKXsqXzlTDOxjqkDDjhbXiOyKcvgsPIfhiszJwVHBaMfmYYgjmUECIvnahqK6Yb1jW9sEooUgPUnKQhz+MLwOQxDR3VdeeaWpuimkXYL5JSQBLLwGSQCc1UIqHAqFe4LuDrdsUiXB0GN3uGkYdDrVRZx8hCNvqxfwtbhHaehuIJjIzCF0qQ24YEfQnsj1pAW+Lr6KW2HBmmO+kpvMqSYSl7CUuhAVDvf2s7HIGBWymdKAbCJfrOsI4KxiNBJNLCUoPoz68CblXjK7wQ4OCsMGpdSWIALlTxiXGAAoUYaFlfpzpAmCAEeKII8FgcQkW/qP6spmiuoBBw6HynXkcPRQrrQUlMJwJICBUohad+zjUhriuUBpknXkXuGEWsi60NaAkV1KCCIT9KViJHx/6GumyiTKQUbOIQMJptCKBhh9yILjjz/eyM60vnMCLZR6c90WAh4EspDNcUo6C4HPR5WaK+/4PpHzOFd1ZYCEqA2CYfQLuy062CFU4LjlwKWA9yKwufPOO2d+sgIbJCCDGQWygqQVPchk/KiGZd8QlBg0aJA5XrJS7E1RORCYYk1RXeZCQo9kZ75Vf2mB80k7G9V6Fhz69u3bR7YZpAn6mnvTvHnzzE9WgP7j+kiq5KrQQ8Zw3PTMmTNrKgHQp2eeeabRb2nJGl6Xqg3ew9oH2BIEZ7Aj0vIZeF9ODQv7KvhqtHakVclYThK1vhDsTJYOb1AgiECkplSZ/trgS8W4JoJtsX1ALVu2LPk1skmJMqJI3fe2m5TATNTi4+f0G2HUWoMWJcoxRxjr1QaBEcqYXRC2lBrXFhEV1QPrHAeOTJpbjcBcAgR3qTLszGUgqh1WRsi4tCLs+YJhTcUVlRsWFCqyAVlTymoECwFlTsQhW+BCeSQK3g3sWnCaqTyifYv/xznAEBk6dKgxqtJ0FpDHyGYySi4EsaiMCGe1kgJjBHlHEMMd0kVAhe+TAFGu6g0hagNbAged4J2b8KFFlCxhOVohCV645cBgA6FRATsbXMTRwkHBOWSvYr8RRMCBqBSHUFQWZNGR32HdjY/COqyEJACgE90T2NAJVOSiE5KcJxAH3tu2N/CnCwkAqgWjWu74Ga0EfA4rawhIMACexE/aSR+CQySHXb8K+UcggetOC3Q3CV0XO9/JTepUC4l+i3aKZ1QggewXpfssyHKDIGEhuUYrGU02KMMbS43dpChBd6AgkPUk6x5ubyBgw0wEyp7sJG9+/4wzzjB/VsJ9ThocBhwHN5OKUKC0CscSw0NUN8gWMrLhsnIi9DippcpAYeDyCBu4VCMk3e9XCBjayDmcXVdxYYAQRKByoxwyAh1AiSQK3gWHnIBouL2B/c0QNeYi4DhgeLD/cRYIKqYdDOEecc1UQ7kVXjguOGMEk9JqMyD7xLp25+dg/C5atMjohKigixB1wV6jxDhc6YiTUKqKrjC2kiDspJAoQLeHA3bsP+YjcYwcNicQTGZqOvMWSjFsV9Q/0NcknezgQhf0Nuuv1InEKLhOstdu2y62DUkKqgLKobvRRwxMdqvzgKQK2Xbuq6u78QdJ2FKNgK2EnqStkeON3aOV04TvEr8O29DCvUV/Ykem5TPwXYWrPtHd+Cokd6rNV0lUY5A5omQofNIAxh5RqFL0LseB6BnKyQXFQ6Ysif6oQuD9ERDh9gbuJYuP8iC7SVGiZOgo6UMg8nOUKFE+HO1yGAKlgnXEZ7Tw2XEucZhqmyUhqgN6G1Fa7AELjh7l7fQMlkLBogQI8EUN7CHbn9TJAcWAsrT3ygVFjpwp1zWi2DFEeISDAGRIcQqsY86flCxffvnlpjKL79YOUWOAVal6RDF4yNYSALFwbfb+2kBu0mCM0IYSHsTL+xLECOtZIeKAjRZOThBgtMPUyuGkAHKJgJ0LMpbKUbe3mMwewxVJpNheZ/YJZ+rTE10J8ldUJqwnMtFRspM1VEnJTgIJLvhP7NFyJSrQRzjGJCpdXw57iIAHcsVWTmN/4KjfdNNNRkfyc+4tx+qzT0tZUUEQgSClC7KPYe1RVRRJQSUjM2cs+CoERPFVqq01MVGPE4cOIyd8k8jy82XGjUCx2enfwzFmmGKSfSW8Dl+k2xtIKRMnJ+DEl0uIsEltD1I44MImpY2BzUkWiuGKd9xxh7nXGLSUZDETgdMmqr2cD0OH/iMXDHkM6zRLlUT5IaLLoDnX2QT2Dc5WqQKVyCf2Y1RGGIcz7nUgi4hOX3LJJUbWMZgpqpqrENgTOAtufyUQSEDWlaN82YLBRulx+FxtrpWgqZX1zAO49NJLTWkzcF85N5tqhPDAxjQh+EE1QriHGx3C9UZlt5KCYAlZILdSDf3KvUHeuRkgIeoCmUUihSolV4YiEwjulbOsmzXOpHsXnBSu1coFHjgm2D8EHvl/fo8j5JiQj61ZCY6gqEwIQjFXg9OWXHBysSPiJhKxxQlw0ec/cuRIk9ijeiYpsHOwaV3Qfzjx5Up2Ajo7KpjBPWVfWsec6yeIwEBX7CXsDYJ8HMfK75Zyj5KkxWdw3xNbkmQyPlRaRPkqrBFsvmrzVRILJKCUKG2h5N5VUIDhiICPo6T4XcqWGazFtFOizhjtSS08W5LqwgbFgXdLV8sB2TZKWcPtFQQSMKa5djYrE4oxBlCqRPY4+gwlijCsdlgHOI2uYW2zr/RYV1vJkPgfKCkcKDcICER+SznIlagyTi8KMgwDvuKWRvI5GPh62WWXmXOGWb+s5WLBueRe8Xqcr27BAKFiotSKPAyVCMjbcBkz10yQFzlH2TWGCOfcA98tPdQnnnii+b5LDfeOslK3CgKjgIwo+ims85IC3cTnpeTchWAaeiFqDQqRC+QBrTHhjCwVjciFcpZ1894Y3m4ZMpA9RC4gEyiRJuBKRQJrH5unS5cuJsvJPqnmakxRPKx75LU7GwSw/TkhJ24SAF01ZcoUb8yYMd748eNN0D6poC42LEEyN9jB3kAHlDPZCehuriE8Bwq5QrAP3w0/kD3KEHSbVOYkGAYjI2dKvUe5XwRJ3XZK7jE6lGtOy2ewvopr52DfMei/2nyVxL5RbhCLKFfvEU5ynAVExJxyVhQFcIxakr3PCBF6cV3I4rMxkjiyrRgwVll4bDYXu0kpxcG4pmQIJcp19+rVy/QFkqErp4ApJayH8D1CMbA5ZVhXLwQpGUBko94W1kKp2hqADBlyJDysCUOErEYc+F2CgTjK7G8CYxjCScggnFqM7vARR5T8IufKXfqLHrCtAuHPyyBBgqX0Vd57770mWMrzGQJH1QZVAeWQc8haG7ByYU2SjQmvhaQg+I5sD2eAcKhwCBtqOxey/rTTTjNH/FX6489//nPFHPuFjYZcCFeN4hxUQlk31xEuQ0anIxOwf5AJZH+RmTh9lA5zj6naKVUgWdRP0IsE78OJCEDG8oiT7MQBJHDAEEH8HhvsTWpeD/aNOwgeWNs4w2E9UGrQxSSGaSUl4+5CYJskLQGW6dOn1wQrqWA4+eSTze+Uq+KJlgxki4uVK2m1JgI2YdhXQfZi+1WVr+InxLfffuuPHj3a32STTQjLZT2GDx/uB4Zt5pm5CTaoHxgIfqdOnczv/fKXvzR/X7x4ceYZxRM44itdX2Ac+o899ljmGeUlUPT+iBEj/ECpZ11j48aN/RYtWvjrr7++Hyh787OuXbv6L7zwgh8YsZnfbhgEgtY/8sgjs+5PIMz9Hj16+EuXLs08S1QTgcL2Z86c6bdu3Trrew+cYn/8+PFmTZSKqVOn+oGCyLoOHsiqwLHMPCs3gUHjf/jhh36gXP1AGZvfbdOmjT9r1izzOYslUIx+YHAbmeFeX2CI+IGS9wPnPPPM8hEoUf+GG27wAwWfdY2Bw27uxeabb14j53bYYQf//vvvN79TLtBNgdHhd+7cOet6WX9nnnmm/+WXX2aemTzItOOOOy7rfXn06dPHf/vttzPPaliwVwKDdqV7UokP1vOCBQsyV14+kC2Bge83b9486/qwKSZNmuT/8MMPmWeWD/bZhAkTjD53r3GttdYy173VVluZf6+22mrmviKLA8M889tC5Ab9cffddxt94q4tHn379vXfeecdo5vrYvny5f7QoUP9wLk3v7vNNtv4Tz75ZOZ/i2fRokV+06ZNs66P9X/++ef7P/30U+ZZ5QP7Ytq0af7OO++80jXys6233tr4bvwscN7922+/3fiHce5tWiDb+M7c67X+5ZIlSzLPSh4+94ABA7LeF9nWq1cv/5NPPsk8q/6TWEUC5aiU+4ZL5qhEiBOtC67FZPpuvPFGU8YGRPooxQ2XwBYK1Q707rhQMkSUL9xOUC64X5T9hjNfZBipSuD+cq8oATzppJPMc8vZ11gOWEtE+lz4bikZcifUi+qBzDR9ZeHp3ZQksldK1fNPFJmhQlFRbGRVnCFClCwSsSejYTPKVCTwWZIoLWYvkCUPV4eRcaS8rxIyd3xfVCQgd91KNa6d3kXKDpFzXC+Z50Dhl3X+C9fI/QvPZiB7xL0Or8skoWqDLFC4egOdwFoi0yZEXVA1QyULtpqLrXipBLlARQRDr8PZQyoOyQKj4wGbklkptDuF94UQUbCGqCSMqkhAvqK766rIIZtMuzX6m2oE9BhViGF7vRjQJ1QOuWAXkFWvBFsfPcxMFR4u3F8y7bZCj3syZMgQ03pU7monrjlcLYpNiTxJc15BlK/CvWEd0gJSLSQWSMCgwfgLl3hiHLMBchn6GIuUqVHiy+ASTiKwZXd8CRjn4RKaQsHoC5cYojy5Phz4SoAFT9kvnzsXtD9QKsSxJgRbGhoY9eESL7uONHCxOkFJ8d3yHbsQZGQAUBIOeByQISiBqEACxm9tco7PwKCdq666yhs3blzNWkXOIYOSCphybVxjuAcPOZrUexQLRgWGCMOjch3Vxn0hWMogtUpwFrie8P3jHmOYhgPoScKaIqASPqWCQBHvjUErRF0QtMRGC7fDsLbitp6mDXKB1kVsm1yg+wcMGGAGr5bq5BZR/7FB33AgjSA+9nZtQwzR3cwpo03puuuuqwnSI5vR+0npVYLCJGRxcl1sIKGczriFa2AP0qoQHphsISjD3BJar7m/5b5u25Lhgk2GLExz4KJNVLvwHVebr5KI5rDGVFRWhgj46aef7u23337ennvuudKDHreOHTuas0WJ8rmvgeGGUsllnOcLr831uPBFs9ArJarNhmOoClPNua4w9ElxPzt37txgz0rmHkVFgMlm0rMcFsKi/kNwEYEfNgLo98dBLpURjAxh4GPUhGYMDPp7o+QcD843Z57JzTffbBx9m0nGGCbDRtS+WHhN7lW4MocAJfIkqaBsEuC8UFkVNbMB2T98+HDvuOOOq5jj3LiHUQYjBiqBhHDgJinQfxhs4e8OYwS9i9wToi4wmsnAsV5d2IfYEpUQSAAcOmRl1L6ngoks5+DBg02SqhIcK1E/QHeTBQ7LaeQog92peovS2zw4TYTgFUPgXd1qM91J2eLIcnwUt8qMNY7eyeW0lwMCBQQSomZC8X9UC7FH8WUqRa6EAwlA4pvvMy2fge8uHEgAKluryVdJ5BsmA8bijxq0SCSPoVAMCKRlIerBgA6icDzXBYVCWUhSygInhLJkFxY5ijSpYEUS4FhQ9hu18MkeMBk+ThlWNUM5Zrhqg81JSZgM6+oDI5ijEcPZV5wrnM5SKSsCAFRfRTmNyJYo+cYD+UfJPkEInE7XUED+sNf5HMVClJ1AAtfoQuUSxkglVTBRDUZFQtQwXQK8DGmKCqaWC8pKCWCGDQMMUe53WkYB94I1EjYk7RT7qOqYaoeM9ezZs81Qskp/TJw40ejzckMAgbUall0EMJE9lWJPsN45vSrqnuGwkQFG/zdk+0fkB7KZIEJUOTnOJJXKDGGP0t08+D/8mPDxzAQSSAIk1RaEDYtjix63YNtg91dS4hBdSEVheJAg4LfhoxD0q4R2KQv3MHy9rAt8Bu57WiCrWCMu9nuuFl8lEeubAABGNIZNUqDY6P+PiuYUCl9ceMHYioRKCiRwP8m+5qrw4BFuIWloUEESLmtEKGDQhwNSov6DARzOpAHOcRIOeBxYX+y9qGqEYsBBxEFNov+RAAVyI2zw2EBCbeWbpYZrJTCD3gg7N9zjNI9mKgR0BYGrsEGHvCE4lJZRgCHJ9xcOArEeCd4nvR7rAzi/tPgRiKr0RyWcCAXIhHBbA2BgV5L9Y+UCbRhh0AE4fQ1xzYvCsUmmJFvQ0Ac4y7W1IeeLrTJzAwkEzNijJA8rBfRyrsAMNjina9kW9UoBGUxA3oXEFPc7rWvlu2sIvkoigQQy/fR7hDMjlL0wPJFqAxzjXA+OcqL3yFW2GE1s0CQ3D06Au0GBLxolWinlNwi8J554wmQxonpouF9ER6MMgoYC3xnGfNigRyhgaKQZXUwCWngo6abaptIf3bt3L/vRZSitXEYwe7dUmSnWFaXBUUbssGHDTDA1LNvsg9+jGoG2Bo4qcyGQmVSGjXuFcxke1oR8I1CB8VMJIIeZF3H99dcbpyEsl3EmOO4tqsqtXHDvkDnhwBUBBOROWsFdvjsCQFHOKIZIpcs7UX7QjcjQKMO1kuwf5AADsS+55JKawYouGN8LFixYSb7Vd9jDjzzyiGn1jdLDlfag5Qz7NCy3KxV0NnZM2KYmMDxy5EgzyDNKb9sHPsytt96a1VJrs/K02CQFvhTrPnxf2aOVkt3n2jhCljYPKi3DIGu4n+zRSkoERPkMXB+6O82qvtp8FVUkZGBRYeyFo2hANQE9/QQUGBSS60Fmgb43+v4tlAzxf0lm0KIMPRtVrARYXJQ/M4iNwS5Rm5Cf2anmlbRJSw3fWziDizKuD6W+GHMIWVtdUskPssVET8sJcoW17rYDWMjmIytKAYY49yRqfVGGj4EVlm32wf8xRLVr167eIYccUpNdpg+Ycrskh4ahnMIRduQoFQlJVD0kAUYdMyUwRHIp0yeffNLIukqBQA/GXDgYw7qg3zHNKjEcvaggEN+zAgmiLpCh2BdRMrSS5AJ25AUXXGCCiFH2DdePY4d9xOepFvh+cHapmg3r4Ep8YPPXJ/uTTH+UY0sQYOeddzYBgSi9bR/8f79+/by+fftmfnNFIIFkZxKzjSysaa7V9aWQ/fgo4Yq0coHvMWHCBG/GjBk5dTeBBCoKK6lyKMpnQGcjT9K8zqj3xYZkH1W6rxKXogMJfBFE+aJKXFj8ZNvqiqRhoOEQ0MpgYdMQgEgq28iCj2q9sMZhuUFwEIknQ4cBjcAjComjEc6A0atFdrNaolmFwD0JB4Csw1mfFJyoG5RrrooEhHSpsmkYIkTiw0qHAEEcWcX/U2GF4WLnn2CEMJAoHLEuFO5VVFCXe4ScS0qeFgNON5UZc+bMqflOkf9hOUwAa968eak66PnAPSSDFZ5VwL3O5aQlBdUIUcPnJO9EHFiftDxFVSRUilxArl588cXe/fffb64X2R7VjoUTi6OCwyVEXSAfsf2jqljs0afY2rXB/sDmbNeuXeYnKwIJJAiSbK1EN0bJc96rEvYorSFTp0717rrrrhrdje0SrpZjj7788ssrDccuJ/iU4SHtafsMdt2wzlyqzVcp2gInosIGxdAPwyaLm2nDSKMPCNjU9BVGTQQtFGvshQ3sSoHoFMY1UT4WF/eAY8/OO+8843i4sEmJ2Dd0RRolWMnOcX9E9VCbo1Yq5co1EImnHC0Mg3RQUHGuBaOd4IE1jjGUGTaYVFUF11nuCpLawPjACJkyZYopUwamYlOdwJnw4fswd+5ckzGoFPiOo75n1kVUoCtJcr0vj2oxSEQ6WBlaqeuEa7vhhhuMHLBBBBJL/Jtz6F1wZhiAx1F+QtQF64lAQlQi0SY7WW9xQF9b0FVh27xYuNZKhSAkA27Hjx9fcy8ZikoFEVWWbjAGeUMggTaNSvpMUTqURIW1RdIgl81QTb5K0YEESivff/99E0lzoWSorrNZw9ibbSN97qatZljEd999tzd58mSzuLgP7du390488USvW7dupvQ5HDFlGjS9xZUseEQ0BM1QQvXhwV4sVca/kmFfUnkVVQJnj26MUhZ1wfAfotUN4R5zDx944AHTa0pQhvtF6xvHPB544IFmEn+4fPP111/35s+fn/mXEKLaIEB87733ehdddJFxQJALZIlHjRrl/f73v/d22223lWQryStkQzVVZeLMYudF6eFKe1RKhjwOJDvRN+FBi1w/CYB8jhe2n5mEAC3ZldIWnTbsM4J311xzjWlL5D7Q7sGx/YcffriZ+RUejE/lNHOQoqqgKg3kjiicoq1XymjJpochkEBvUT59PQhRKhgIIFAunOR8hEqFbBJDdqhGQNDhUNBvffLJJ3utW7c2Tgb/Dg90obUBRYpxLuoX/fv3N8E3vrtKf+DEcdxWQ4fqHwYuhbPOKFRkVTjQVxsYIZTIkwmh6spWYlUzVEnQskXrFi1c3DcMD+Tcvvvua1o+kHdRLR6swUqbAC2EKB6CCE899ZR3/vnn11RYIhvPOussE1ykLBj7hwpVF5Iv2D9JTuEvJ3zOnj17mmn3UXq40h4kvrDvrWNdybCuuK/hrDNBhHxPVEF346PQ3oZd1BCSnSQr33rrLe+KK64wR/XznRNAOeKII7xevXoZO4aEQLhtgAAOgQRaquSoVzdFBRJYYGzOqPIMjEScXzZeHHje4MGDTYsE5TB//OMf8zLO6yNsNFoUKN+jTI8NSvXB0KFDvf33399EfQmmUD7FxnWFNr9LhJAeJG1SIdIFZYgDHG5tINCHMRK3NJI9zd7GOSYIS5mgnZdQrVBOTQUVpcv8CTgLgwYN8nr06FFzMg8Znl133XUluc+UdgJvQojqgSCCPbGLE2+wY8h2E1wcOHCgkanISypb3flZgBxmmJv9PSGiYG1gIzPEMgwOMPOJ8plxwKkadrju2LFjjR6rZtijVD5fe+21ZqYRUH3J0Gj2KPcQ2KMEVqIqCvFtKrndUhRPUYEEyl0oMcMgdrHZJsp2VRYdDRuLycNXXXWVMa65Z9wvSvl4uFFSMp4EE8IVGkT7MLDV3iBEemCM0NYQDiKAnY8gORcNhgiVHBwVxeBE5B7OQqdOncwMGLcag6AMhhr/74IhQjUDryUE0GLE7AwcyUp/YCORxRX/A5lKwohjHkmIEGwkmdSxY0fvmGOOqXHusIvI+rZt23alACPl6jgqaU5cF/UbbGP8k7CPAiQ680l2NjTYowRMaEWk9QgI7DEXgRMsaD+3EFCgvSGcFKG9gZOZ6kN7gyicoqxfyk0xEsPRPpxgIlRJHmmWBG5Gv5ygNAkAUInwxBNPmJ8RJECJUpUR3oxsUjJ14TIqyrVeeOGFBmmkIOSiHAscurjZYSHigPNLVD5quCkVROzLSpEtUCnXwv4kAMNwxYceesjoCwwRhityDvkOO+yQFYDh/3AYqFBwPwPyksqtShhMVJvcSTuYxHuHQdY1RHn39NNPm6ATfbqV/qBk3VbilJtKkA2sY4a10W/98MMPm2Fn7J2WLVua4dKUzLsQVOD/kBcuvAYD3aKG6AkBJDsJOKKHXFhv2NmVprsrBfYolRcEEAgkUAFNwKVZs2beCSecYOYZufqOSgT2Z1RShSOcCeSUOxGQS3fz/acZTOJ9o3R32u9bSoqyfDCs2aDh47moRqD3N5+SobRhcZPpCgsNvuBSZvRZyGQoyNAxeAy4LqJ5xx9/vCnvDcMmte0N4U1qS6SjFmo1g3MX1TdN1iKf4Tmi8mHN871GCV2czLTXPhkv5sBETeVHzhEErBRjxMq5MMidUtwrC+9D/zIyjn5ajH0cXgwRMo5RGUagPJIjttzvmmunvYE+zXLKOa4DwzQqcEuJa1JHeEaBjsWYC0PQnvdV8FTUhpULUeuklHIBKDW//fbbvUmTJtVkKqnsIojAYMUwBBjJfoZtI/YhGU8SKnwGIcKgu6kKCic7CVZzWpJtq6sUsPWjbAl8lFLuUe7bo48+ato3COAjN9ijJDqZXRKlu7GFmJUQnjlBCxL7tNzHOHMPo3wG5Ev4SOek4DvL5asgjyst2V4oBQcSMKowFJcvX575yf+gXBWnN2qx5QPvwSIm685AHhZkoUdscS1Ri4X3iDq6Mg2scc3RZ3feeadRhLZUiCgfwYRwoMBChQebNNzeQHsEm7ShtTewOcMZYu4dgrhaonxiBSgxFH7UUCTkAWshTZiPQBluuDyPvch8BPZwsbCWKdNFztGyhNxDNuUL94osS9hhQIlzr0plcPNeGCJkM2hNYG9iaBx11FHmmMdcTjcymiBDeA/TVkJ7QzmNEeQ3znzYKOBaMQpyye4k4HNHlXCz9qKcQyFcWKPI0LD9AOytUskF9s706dPNcGl7xjwtTSNGjDDtTlFOFD9DLlCVEE5O2faGqLYz0bBBXttkZxh8FAIJxSY7eQ90Hb4JupthhMVUzlF9HNZ9vAc+Stp2jgVdQzvCmDFjzAkN6DX2KO0Mffr0qVV3s0fDw6PZo7Qvlbu9gfsX9vVK4TNwP6vdVynY8uHmkFmPGmJCEIHFVKyBwwadNm2aGcjVoUMH7/TTTy/q7OAoRwRjHeXGZk0b3ocTGm688caaExoQZhjXKNHaHBKcA9obmKPgwv1n00dlq6oZ1l/46CeMeaph2KCiesCQzFWRgHJKO4hGsJTWhvAeI3uOc1ysMmAt4yQfffTR5gQDjlTCICnEuOdeYRyFMy0o0VLcK+A+UUFw0003eW+88Yb5GUYGMxGQ5VEBXQsykIoEnuM6FVw/xkhU4LpUoCP4rsIGHfcaA7DYwHkueF++tyhDEp0meSfqgr2EfoySVdglpQgkkDhhTgr2DxVe2F4MbkPe4aDUZv8QAIlqb8Bpw4krp1wQlYlNREadKod/Qhk+e6IY0AdUBXMEIrobHY7uLhSb8HR1nw1WRMn/pOGeMQD1sssuM21DgI7p3Lmzd+SRR9YMV4yCe0nVUFR7A61d7NFCkiNJEeUzIHO43jSr5/newu+Lzq4mX6XgQAJKgUhTeIgJG4FJqMWWbKDYEACzZ882Az9YzGTlw8cg5gPX5W5QYGETzU57k7KI6eu8+uqrjVPCdRAUOOigg7yDDz44MsjhwoJjcnFUewMGNgGFUgRDKgE+J5FFMsUuGEkYJjKsqwsCksiTqAnJae9d5BB7KxxRBuQJBkl4P+YL8o1AAtF/oHeTfV5IgIJrIehIBsGFe4TDgBxKE16fDCGtWwQ4gQwGVQiHHnqoUdp1QYAm3IPJ94AxgtNQLmMEZx65g1Hngs5jbdbmCBUDn5f3jMq6ojeKNYbrI9gBXbp08Q455JCKf+Bg1BY8KwXIUFr+ouwMZFvaAUbkD5VWBBFoUeL90NPYP0x/r2v6PXuLpEu4vYHXYU7Xu+++m7psE/UL1hy6lUcYHGIexehu7FASgrNmzTLHsaOv0bvhGR/5gJ0TPlaT90F3l2KoKL4JA+Aff/xx8290GwnMQYMGmaRJXdD+QBt2uGqBPY/uLucepQIqXC2CXEzbZ8jlqyDzqsZXCRZpQQROvn/CCSfguWY9AiPYv/766/1AOWWeWRj8fqB0/MBQN68bGO1+sMD9YDNlnpE/Cxcu9ANlmnW9gWL1//SnP/n//Oc/M89KnsAI9gOj2t9nn32y3vewww7z33zzzcyz6iZwaPzBgwf7wSbN+gzBRvDvuusuPxCcmWdWN4Fh7T/99NM1a8M+AmPNP/vss/1A6GaeKaqFRYsW+T169Mj6vnkEzqkfGJJmTaRB4MD5Y8aMMXIt/N5/+MMf/EAxZZ5ZGP/617/8Bx980G/VqpV5zcBg9k899VT/008/zTwjPwLD2g8ceX/vvffOulbkzZAhQ/xly5Zlnpk8yB++p+OOO84PlKR530BR+h07dvQDY8t81jjwGa6++mpzL9zPsOaaa5p7HjjUmWeWFt4XnRQYe1nX1bRpU/+OO+6I/fnyJTC+zP3bbbfdst53jTXW8M866yz/yy+/zDxTiNwEhrzfqVOnrDXE44gjjjD2XFoyFPvnjTfe8AcMGGBsFd4zMKT9Dh06+PPnz49ttwQGuX/FFVfUvIZ9YNOxDwKHMfNMIXw/cN78K6+8ciV5jdxEj2BPF8NPP/3kz5w5099+++1r1iG6uxh5zBrv16+fHzi4Nde76qqr+i1atPAXL16ceVY6sH/whdDZvC97tGXLlv7UqVONDooD9+SWW27xt95665rrt49jjjnG/+KLLzLPLD0vvfSS37hx46xrQpbwmbHz0gDZN2/ePH/DDTfMet8NNtjAP/fcc6vGVykoHBf8nonsMA01DFE+ImrFlIqQfaInmYm+tuKB8lEiYsVkX4jIU9XgwnuRcUyrf4dsEnMMLr30UtNDBUTXd9llFzO5nLkHcSGrwTyFcLUHmSpeOypjVa2wLsLVMKwNIsJplRiL8kGEm0x7+LtFDrHu2WdpQBSbbBdRZRciycxHKCaijBxF9nByC1k1YI8jo4iSFwIZFu5VuAQR+ZbrCMskQI7SdhY41KYHmgw618KpFv379zcnNcSV3WQJWrduvVIWl2zG888/b4ZnlQMyXAyNtL3dFjILXGshFSRxIOvKe4arYtgPVK80xIoEkT/IFNZpuHIGPcp+RR4lDXKBYYi0OZG5tfIHGcdcKIYrxt03tDeQ7eQkDBdkMzaWbZcQAljT6O6wvKaKEL1UVxVMbVgfaMaMGWZ9A9U+xehuwJ6g5N2tSGBNs7bD2fQkoWqDPXrbbbeZanPen6ovqoUYrhiWGbnAPuO4en43XP2N7sZGQCaUA+Rc+IQXPhfVn2npUNYJ7/vll19mfrICvmd8larR3cEHLYilS5eazBMv4T7WW289/8ILL/S//vrrzDPzw2bUyDS6GalNN93UZAaLqUiwEDFzr5kHkaopU6ZknpEM3IMLLrjA3BP7PsHm8oOF6993330mWlUIb7/9th8Y2lnXbx/777+/v2TJkswzq5dgc/rdu3fP+uxEmlk3hWZzRWXDfiEz26ZNm6zvHTlxySWXmAxE0gRGiH/ZZZcZ+eO+J4+jjjrKD5zzgjJ5fJbAIfZHjBiRFSUPFIt/8sknmwxhMfz4449GxoSvm0wBWXX+PymIqk+ePNnfcccds94rMIj8iy66yGRZCoFrPOmkk7JekwcZmu22284PjDijL0oFmdNnn33W32OPPbKuJ3DOTCVUsdUptREYxH7//v2z3pcHVW2BIZt5lhC1g9yZPn2637x586x1hAy99tprE83Mse9vvvlmv1mzZmbP2vcic3vdddcVXLWKzEVGutdvH23btjVZYjKjomGDPTB69Oia6jj7CJxdf9CgQX7g1GaemR/oe9bgaaedllUdQ+XDKaeckogeoLJvp512yrpu7Fv0YZJ7lEqDhx56yN91112z9ij3iKqNQt+L3zvnnHNWysTzwP+ZNm1aSXU3sB569eqVdS18zoMOOsj4s2lBpUfXrl2z3pfqyr59+1aNr1JQRQKZGXpp7CAtFyJRVA5ETQeuCyJVvGag0Ez0mvexEOUjEp1EBIc+O6JQLgzDeP/991cailEoRMk5P52p5W5/DFk6+oTDZ6jnQ/C95cweMOhl7ty5VR+ZJ8rH9+VCFQzRUCpPRPXBfrHzA8haW5ATZKnpI8y1LwqFLD5Dh+iFDIM8IgsRjrzXBXIO+Tlx4sSaoxEtZAx53fCwxHwh0k5lWLgCi+wM7829SgKyF8gbjomiT9SFyikyP4VmaPguo+QYP2NwE6dCuLI1bagMoIKEIcMuVAbYtZAGrBc+Z3igHPeXqpjwAF4hcoEM5ShF7DTX/kCGUhWVVB821TNz5swxxzySFXb3sbV/Cq3mqs3+ITv8zDPPpJq9FZUP6w29unDhQlOZ4ILcRC+GK3vjwLoLnD8z62Py5MlZFX74POiBYioSLGSrmYnm2hbsUfZSlC1SCLwee+WKK64wfpe7R6kSomo6POsgLnaPRu1T9BiVHPhIpYSqAO6fC/4ksihNHYqvYudfWfBVeN9q8VXy9mRZGBg1lNKHDUfAqKI0J1yCnAteD2MURwClM3LkSHNSg2vosqjZWAQoCnW+XRgIwgRgF8pmcUzD5aOFwP0hiHDDDTesNDEWwYDAwdAvBDY7r5mrFQPBxvGS5Sr/LRWLFy9eqbWG+0qQqJi2GlHZYAATLAo72jjHKFhXGRYLMoijZ1GyyCgXyiPzCWwi55AxOKEPPvigd/HFF3sTJkxYST5YOVfsGkZOcq9wNF2QDyi1JAxtgq4MZbr88ssjJ1VzDci5fAMtFr7PXKf0IP8YXsvpEDj4pYDTKDBEwuWRrIVi2+5qg3XDOiGo5YKeZS8UU6IrGh651g1yAeO+WBmKjCHIN378eDMglfXrgkwoVC5wbVwjAb0osN+wTRnsFpbZouFAQAzdHaWXCNYzuDOfwC9rGAf4vvvu884++2wzTDisB3C6CZwXatu7EIwI+ygElLHrwzZDIRBEQH+OHj3aDGuP0qHFtG3iA9Gejs6MAruBE1z4TKWCICN2ogs6u1mzZgUlvuOCrxL+zlgrtLVXi6+y2vkBmb/XCcYwQpzZBWTaoxY0C4Ofs0geeuihWA+iU/TVskmZ7BuuCmDD77PPPl737t0TyfqweHBCuUYLCoqAxX777WeM+ULgNVioOAgIGhRzWCnbCB1OCNPJ8+mrZfOjmLn3UffJQgQMZU7AhMBOoYZ8pcJ9IBrsfn8IbyK49HQV+v2JyofvGSeYfeA6w+wr+vBx6PLZU7nAUSVaT88gpxCEFS3vgaPLczjSNUquhR/IuQceeMDIulxZMyYkc4oLWbti9i2/y4MoPL2JVqEjj8jEtGrVyhhThb4HhgKfA0MEWRRliBBIoHqEyDuKM+578V2S9eGsee5ZVJaU5yDj+Hw48jhHSRhwueD96COdOnWq6ce2oI+Yyt+tW7fUsgtUkVChx8O9z6yVnj17rjTlW4jaYJ9gIyBD3awgaxw7i/XkVnzFBdmCs4VcoN8aJy7KkcApQ/YgFzDg465dbEsCiyRpkKe5qqrYL8gG5ALB1LhJLVEdoC/QryTyOC0gygZn/XNsI75MWE9HPQj+o7tJckbNI2ONkcHv16+fsbmLBd3Jeqeqx62oYK/wPsxKKzSpSrCNz33NNdeYYEI40Ae8D3OW0DHouHx0N8mSe+65x9wv7nMUfCaCgexRKqSSsNlqA58B3f3YY49lfrJiFhMyaMiQIcZ+SAPeF3nFqVwW66sMGDCgenyV4IuPRbBx/IkTJ5qJovTCulNF037QU8O0Xnpmk2Lu3Lnmdd33CRaTf+eddxbUu8O1TZo0yT/kkEPM6wabPOu13UewkEyPIv1U9NzWBdfzwgsv+CNHjjQnP9BjGGzsyNe2j0aNGvkHHHCAOUEjcIoyr1QdBMaK37lz56zPS6/a8OHDiz4tRFQ2gVFgpu926dIlSwatvvrq/qhRo4qek8BeCZSNOZGGkxQCBzhrnaX5+NWvfmV6ID8pcj6CJTAQzOkm9A2779OkSRMjFwJDPPPM/EAW0ZvPaQXu64YfgXFg3otp7cwziPN+9J4yV4aewkDJ1inn1lhjDTMvhgnIH3zwQeZVkicwCMyE+fB8jm222cbMnEhLxrLemdZNP6X7vugA5msExljmmULEgzXFKVLt27dfSYZefvnlBfVFY/8ExrLpPf/d735neo/d9Rp+bLvttsaWfPTRR+s87SRwqEwPM/NWOHUCOy3qNd0HffHs1YsvvjjVEylE5fDTTz/5s2fP9ocOHWp0Avo0am2k8cD+ZG5HsfaHS+CErzQHLHDqzWy6rwucQYfu5vfx4Wrbo+hd/JjevXsbnyjObDr6/W+44Qa/Z8+e/lZbbbXSqUvhB/YBfhDf15KU57oxpyBqphrfGXOw0gJfJXxSzrrrruufccYZVeWrxAppBc8zkaV7773XPGhpKGVJCtksIthJlo5SzkIG04UIN1H0Qtob+B3KdSjpIyofjoK6EKV68803TVQwTp8QzycLRkSNCCK/w3dSG1wPkdNwT1A1QKkQvW8urBHOnudPUb0QGUcWhKf6U53DLAMy1LXtvbog007ml9MHyLTnynqlAX16VBEl0WMJRPm5V1QfuCCf+Gy5sgV1ETghJjNjT5rIBdlzKrSQQ5Q5xoHSzcBwMVUeVADUJefIeCIbqbrIVaGVBJRJk91C9riQyUCXpFWiiOynwi98r6lYofRV8xFEviBD6RFHhrotYuwfysGRgXXtuzDsQ+QCNgotolFZTheqNcn0xtnj2JrID2QO9lWutgYXMp7YCLSlpSkXROWArkZvMHsIO76UrS20AaC7k7Q/ke2dO3fO/GsFfCZ7+kG+oI9p+eEe4cPVtkfZk9gJ7Le69LyFKkKqkagiZL+iu2qD62F/InPS3qN8hrDPgD+51157pdoayH0Ot9ewRtq1a1dVvsoqwYKpU2PwFEp9Fy1aZJRMqeGG09MXPtKsGFBOGKwnnnhiTfkdpS4cRzRu3DhT0pMPbHB6cDDO4wZZKOvjOCPXIYqC12OTYpTnIxwpfcKRoG+r0DKoSgOBQzcOx2laKCvr1KmTd91115nPK6ob9gMlf/QqumXmfPcM/TvggAMKDjpSFokzG+5HLwU4oxj4OKfIoiTg86DYmT3j9gcSRP3zn/9syvLzlQ04AeFBp7XB58LIYlBmXe9Fu0e+xj+OEeWk9Bym0euI/sOZP+ecc4yRaqGVYdCgQd7pp59uSqjTgPtBiS4tJOhgIEBE+8t5551n9AefX4h8QIYiF5Ch7qwr9iltmXvvvXde5cY4JTgP+cxmQsYRhAsPfgxDYBi7k+u0eyAuBNywf9IK9InKgTVIoDdOoClpsDdYZ+i4JOUxn4d2CdorLbQDXHDBBd7gwYPz2qPsI/wIghBx/Qhen3ZR5EJdups9isMeJznqQqsl7RppzSnAlsBfuOiii2qCG8ge2rhon+SzpQH3GB2N7rawTggO0VZSVb4KgYSGSrDoTXkft8E+KJujPCdYfJlniUoiMCbMcVLud0aZ7/jx400pt2gYUK5KiR4tPHYdUEoXOHWpHsNX3wgcBnOUFMeiunsmMLBNGXOg9DPPFLlAFzzyyCPm6Ez3HrZo0cIcnRUYJ5lnJgstba+88spKbVy0i4wdOzbRY8BEw4Ny4oEDB2a1byFDaRPS2hKi/ATOqGlpduV/4HD7RxxxhL9s2bLMs0RtcDwy7Z2rOu3mtDVw3G2aPkPUEZ4cFc2RuNXmq1RHmrpANt98c69Xr15Z0WoGqFH642bvRGVARPWJJ57IKrVicEmbNm28/fffP9Vha6KyYEgN3znZewvRZkrxqAyibE6sqEoiS0LFDkPULEycZgAQeynQA5mfiigomeVeUZVgoRqBrC2Va/lkhfKBSjnadWhDsfBeti0vicHDouFCth65QIbTggzF/kEuFNMiJoQoHjLYPXr0MJVnFvQC7QCcWKQ9WjvcH1orsQntvcImwmegMiAtn4H3otU97Ku0bdvWDPSvNl+lQQcS2KRdunQxBqGF8ihK6JjoWlePjygtnLTByR58RxZ60wgGMflVNBwQxMzEQCi750GzdwkmRE36b6jQGsa94mEh0MKclqhztsX/4D6xpmilcYNTBGcwRNJqacAQoUSX93VLRXnfjh07mjJatTSIYkCGtm/f3pT4un3CyAVkaD7tRUKIdCCIcOihh2b+5ZnAP7NF2KOFzjlqKNDKwYkbbksUgQTuZ1otDWB9FdeHpHWDU5aq0Vdp0IEEDDGydBzDYaPybFIMOI4uoRdYVAb0dDKcieyczaCSnTvwwAO9rl27ppYVFJULVQn0iuNU2ZkCBJnYuwzGY82IFYqTfjwyG8wRsHBM0+zZs020XlUJ0VCNgCHiDllkVg9HEe++++6JzbIIQ9aJI8zmzp1bk0nBEKESgUBCWv2komFBRReBeOQDcgKQoQxNlFwQovyQLOvdu7cJ+FnQSwxep1LO6geRDfYf9g3JEjcJgM+ALZSWz8D7YjO4lYQEbXlfHtXoqzToQAJQlUCJNAvLQiSe6aacqqBsXWXAUL3bb7+9JtNMEAjjZ+jQoallBUVlg+GLM3fIIYdkDWIlg8xQvHyH/lQztG9RkXDQQQfVZB9ReChZst6cdiGywfjAmcepspkF9AUDecks0N6QBnwvlEROmTIlaw0ziJP3JZOiagSRBATCqMhEhrqVXVQloG9xWIQQ5QNZj+wfMmRIzWB2AnwMhCbrnc/g44YEQ5sZqP/tt99mfrKiou/444/3Ntlkk8xPkueVV17xbrvttpoh/nx/6Gy+P5Jf1chq5zMCvwHDl4yRTWSerJPtg0WBMi+BbKcMt/LC98DkU7Jz1qDHABo2bJjXt2/fqus3EvHBsWPvUkrGNGLWBxF6pocTaKIsMK2scX0C+UWLA84v81+s8YGy46hYDBXulyp7VoChxppiOjZzCixUsJ166qlehw4dUltXTL++/vrrTQDDZpswQAYOHGjkXTUdGyXKD6ceYWBTgYlsIIDGukNGYP/stNNOsn+EKCPoGmaa4BQzHwGwdQg0ow9atGhhbCGxAnQoJyOQJHFPqPjTn/7kHX744an5DPgqnBAxb968mioI3ov3pZ2iWu2rBh9IADKbRONRqJzRSj8NhiSLgkwdR08SwZIyLT04Otdee605ksrNjlDqde6556Z6BqyoH7B3WQeUkrFf2bsoD45Mat68eaq9cPUJ5ByBBBQbQVOOFgT6Lfn7dtttZ4wVW+LckCG4gmrEmbfl3ZzrfdRRR3lHH310aq0FVFyRRbniiitqMhoEumlnOO2008z3I0SSYNcgF5Chzz33nHFWWPOsPyoBqcBxB7UKIUoLe5RAAfIf3U2QG/BVSH5SqUDbohIBK45dHD9+vHfTTTdlVfTRBsuR140aNcr8JFmQl1dffbXxVdwZXX369DHH7Fazr6JAQgaCCAzBYMMS8SPaR4np8uXLzWYls4khKUoH9/+uu+7yLr74YhPUsTD5lGijjBsB7Fmy6QhqAoG2HQmDGKVLX7k7mbwhQxCB02oIFtAC8t1335mfU81h5dwGG2zQoIOmZBJw5MeMGVMTRCBwwCyWM844I7W1hM6ZNWuWN3LkyJogD5koHLmzzjrLZJ0a8vci0oN1RVUSJ4EwaNoGsTDEmZWw1157GbkghCgP6Gx8EPwUAnx20CLZd4IJ2EDs4YacCMBnmDZtmvEZmHVnQYdeddVVqSWVeF/aaXlfN3jRrl07E1zA5qpmFEhwYKgJpXyU9dEjyNAhjDs2KYq1adOmJvspYy59mFMxadIkszEZCodBj4CkJ/7mm2/OGhonBGuDjDrBBHrU7JRelAmGcKtWrRq8g2whw43RwZ6iF99W+tAOwn3jPpKhbGgGCfeDbAYBhMsuu6zmdBicK7IZF110kblvacB7zZw505RAMmkaCPq0bt3au+SSS0wfu9auSBP2+w477GCCZsxOsSXB6F8CjRjjODJah0KUBwLLVEfzYKC0TbAReMZPoUWJBFtDbOfEZ7j33nuNz0CLlvUZOOqRVsG0AvG8L1WEvC+JZ/u+zKSiOgGZWu0okODAIqPfiC+eYALZTBYJQQT+Ttl0kyZNTBlRQ9yopYD7ToSVDUh/MsKRjYlRTWaZTKEycyIKyvo4Y3+dddYxfe2Ul7F2UCq0PdCiRK+5yv88E3AhMAoEEAgmEDQl0/H555972267rZFzDeVekVEgw0OwgIcNIqAPunXrZtocuCdJw/rk3hM0Pf3002uCCJSx7rrrrqYUk2ndDS2oI8oDehb9SvDsxRdfNMEE1iiBBIaXITOQobJ/hCgP7FEC2syGevfdd00wAf1FuwNVhgyeJpjA8xqCnYzPQBUAFQH4DMx2QWZhu1ARwMwCqpiTllnWV6GF4sILLzS62/oqVHBdeeWV3i677JJ5dnWjQEIINh49NJT40u5Axo5AAgqVTUpAgWwdJwXw/zLwkoENyD1GMDJYcdy4cTWT5MmQdOnSxfy8ZcuWuuciJygPDGGMXSoRKN1HydqjDnGgKTPDUWvoxjD3AjnHvfj444/NXACUI3KOU2sIJFDGT6VWte455A4BJ6pYcOQxRvgZkH097LDDjDNPyWjSEKQmUErgggoIjBL0D9/Lvvvua4wiBRFEqcEQpvoAG2fRokWmVQwZylp94oknTKCWzGc1ywUhKhl8D3QSpfokSrCVackjI07ShL8zT4GAYLXaOehpdCg+Gu0DY8eONXYe2LlCVAlQkZBkQsT6KtiX6O0bb7yxphURX4UjHvFVGlLCU4GEHGDMsRCI/FEejZHHomXTcn4rCwdDm4WD4pVCLQwcFwx5jrLh7NVzzjnH9AlTYs19pRydAWcY1bSd6D6LukBxUplA0Il1hZJl75L5xRBGAbB32eOssYZcoYD8Qs6RwcAIIbuBEcJ9Yx+SpcehQDFXU+AUx4j1gDznmLvhw4ebYAJGAp8TI4zhhmeeeWaiMxF4fQLT6BRaGXiPGTNmmGoQ1i0BMIYzIe/IZqjySpQD1iJyARlKphO5gAwl2IgM5YQHAm1Whjb0oKwQpYZ9R4U0e5RgHzqbSjp8lQULFpggIPuTwB86jT1aDfoEnwEdStDgkUceMdWC+A7cA2w5bDtOZhg1apQ5cSYp2WR9FSoPpk+fbnwVklP8zPoqgwcPNrqbIE9D0t2rBIbNivSLiMSW+956663e448/bgxA2ztIqSvnLzOEC6OPDSvDLz4YJpRMYpjQ20QpJQICZwUjhWzp0KFDve7du+vIM1EQlOnTHzd58mTzdzsPgPXEuuJIHsrfcJYb8t5FSTIXZsKECebIJLKPtqwZp7pnz56mxJ8SQeRcfQbFj5GFEXD33XebUkiCJxgcBA3IxuLgUxWQZOCE9yBw8dRTT3l33HGHmZBPQAMwfphNwYkQ/fr1M4EbISoBAowMN0ZHE1i0MpTKTGRor169jFygpFr2jxClBR2NUz116lTvnnvuMVW9ONXodOxojirGT2HODrMV6nPihEAJ1ZMcr4g8sqfsoaeRR8xOw5nv0aOHmWeXFPgqtIDiq3CfaZ11fRUSV8ccc4yxkagCaXAQSBB187e//c2///77/cDx8Js0aeIHi8UPlCZBGD9wRPynn37a//nnnzPPFnEIjGo/2PT+L3/5S3Mf+TMQdOZ+jh492vx/YHxnni1EYQTOmr9w4UL/xBNP9HfYYQc/UDBmvfEInGR/7NixfqAoMs9u2AROgj9z5kw/cGb9wLHNknONGzf2Ayc488z6y2uvvebvvvvu/mqrrWY+V+C0+1tssYW/7777+oGD73/77beZZybLV1995R999NH+mmuuad43MOj8jTfe2G/RooV/0UUX+UuXLvUD4y/zbCEqB2yb+fPn+8cee6yRC40aNaqRodhDt9xyix8Y+ZlnCyFKDTZM4OD6w4YN81u2bOkHDm6NjsPmufLKK/1vvvkm8+z6yaeffuqfdNJJ/uqrr24+Fz4DOrRNmzb+hRde6L/33nup+GEfffSRf+SRR67kq2BHjBkzxv/4448btK+i1oaYkCFiWBt9NwxjDBaSiewRgWc6J30xRKYUkY8P94+yc6o8yMiRGaaNYcSIEWYmAvezWkqpRflgT5JVP+CAA8waYy8Hss/MBqCUnAxwGoP06iPINVqIOnfubCqC2KO2dJlS54EDB9b7igQ+I5VQDGhiXgZzCE444QTTxsCpMPR+pwHv+9lnn5k5O2SGKEkle4IKPuigg3QikKhY0MO0PyFD6TlGdloZys9px6HMWghRHtDR6BX0GXqMWW/8DB3OLAWqChmWys/qK1w7rRu0F1CBgCzCJmG+EZXhVEWl4TNgA1GNZX0V7u+gQYOMr9KpU6cG76uotaFAKLGhT5Azl3FSmNLJxhXxofSKvmQMa4wQHBfuoYxpkSasO9ocnn32WaMcONqPCchiZbhXON3IOWD4YFqOdqmgxYA2NYKYzZs3Ny0FpfpMTL7nXtIKx3vTwypEfYOWHFoekKGUURMIIygrhKgMcO0IXNMyzEw3WvWws+uzfY09wrGXDIPecsstTUsBAYW0PxPvSzsD87UIyuCrqJX9fyiQIIQQQgghhBBCiNioblwIIYQQQgghhBCxUSBBCCGEEEIIIYQQsVEgQQghhBBCCCGEELFRIEEIIYQQQgghhBCxUSBBCCGEEEIIIYQQsVEgQQghhBBCCCGEELFRIEEIIYQQQgghhBCxUSBBCCGEEEIIIYQQsVEgQQghhBBCCCGEELFRIEEIIYQQQgghhBCxUSBBCCGEEEIIIYQQsVEgQQghhBBCCCGEELFRIEEIIYQQQgghhBCxUSBBCCGEEEIIIYQQsVEgQQghhBBCCCGEELFRIEEIIYQQQgghhBCxUSBBCCGEEEIIIYQQsVEgQQghhBBCCCGEELFRIEEIIYQQQgghhBCxUSBBCCGEEEIIIYQQsVEgQQghhBBCCCGEEDHxvP8PG95rrjaqUtwAAAAASUVORK5CYII=;" vertex="1" parent="1">
          <mxGeometry x="482" y="546.68" width="180" height="23.32" as="geometry" />
        </mxCell>
        <mxCell id="vPh5yiBVEbnupIEMpU4R-138" value="E(X)" style="text;html=1;align=center;verticalAlign=middle;whiteSpace=wrap;rounded=0;" vertex="1" parent="1">
          <mxGeometry x="384" y="490" width="60" height="30" as="geometry" />
        </mxCell>
        <mxCell id="vPh5yiBVEbnupIEMpU4R-139" value="V(X)" style="text;html=1;align=center;verticalAlign=middle;whiteSpace=wrap;rounded=0;" vertex="1" parent="1">
          <mxGeometry x="384" y="540" width="60" height="30" as="geometry" />
        </mxCell>
        <mxCell id="vPh5yiBVEbnupIEMpU4R-140" value="" style="shape=image;verticalLabelPosition=bottom;labelBackgroundColor=default;verticalAlign=top;aspect=fixed;imageAspect=0;image=data:image/png,iVBORw0KGgoAAAANSUhEUgAAARYAAABgCAYAAADYQV0nAAAAAXNSR0IArs4c6QAAAARnQU1BAACxjwv8YQUAAAAJcEhZcwAADsMAAA7DAcdvqGQAABsNSURBVHhe7Z0J3FRTH8dvqVC023mV0kZZQpSypFQkLZZ20ULZPloISSgiEaUNEe1CEhFZQlKylUpIoaJEslbc93z/773Pe5vmmZl758xUz/P/fj7zqW4zdz3nd/7bObeAa3AURVEsUtD7U1EUxRoqLIqiWEeFRVEU66iwKIpiHRUWRVGso8KiKIp1VFgURbGOCouiKNZRYVEUxToqLIqiWEeFRVEU66iwKIpiHRUWRVGso8KiKIp1VFgURbGOCouiKNbRhZ4U6/z777+ONqu8wV577eX9LRwqLIp1li5d6nz11VfOtm3bvC3KnkaBAgWc0qVLO2eeeaa3JRwqLIp1Zs+e7fTp08f54osvnIIF1dveEylSpIjTr18/p2fPnt6WcKiwKNYZO3asM3DgQKdChQpO+fLlVVz2QHCBateu7bRv397bEg4VFsUq27dvd/r37+888sgjzpAhQ5w2bdo4++67r/e/Sn5BhxLFKhs3bnS+/PJL559//hFrRUUlf6LColjl+++/d9avX+8ceeSRTvHixb2tSn5DhUWxytq1a52ff/7ZqVy5slOyZElvq5LfUGFRrILF4gtLiRIlvK1KfkOFRbHGn3/+KfGVX375xTn66KNVWPIxKiyKNX744Qdn1apVErA95JBDpBZCyZ+osCjWIGhLVuioo45ySpUq5W1V8iMqLIo11q1b5/z0009OxYoVnTJlynhblfyICotiDV9YiK8wz0TJv6iwKFYgYLtixQrnt99+c8qVK6c1LPkcFRbFCj/++KOkmnGBDjjggMjT7ZW8gQqLYgWEhQ9l/GXLlvW25g2YTodF9tJLLzn33Xef89FHH3n/s3vA+a1evVpmIz/zzDMSQN/VUwBVWBQrkGresGGDZIQOPPBAb+ueD9c1bNgw59xzz3U6deokM7fff/99Z+vWrd43dj0srPXpp586Y8aMca666irnnHPOce655x4Rm10lMCosStow4fDbb7+VdDPCgisU5N1333WOOeYYEZxEn+OPP1467t9//+39cmcowhs8eLBknuLtw/8cdthhziWXXOJ8/fXX3i/DgXBMnTrVOf/8851bbrlFrJT999/fadeunXTcQoUKed/cmcWLFztnnHFG3PMKfqpXr+48//zz3q925IMPPnCaNWsW93fBzxNPPCHLUpxwwglOr169xFr87LPPnDvvvNO54IILRGyohM46RtEUJS3MqO52797dLVGihGsaurf1/2zbts1duHChaxq6azoBQ+gOn+LFi7udO3d2zajrGlHxfpU7xi1xJ06c6JqOGXd/ZcqUcc2I7a5bt841o7n3q9Txr6dIkSJugQIF3GLFirnXX3+9u2rVKrmWZPvke3379nVLly6907nx2Xvvvd2uXbu6K1ascI2Aeb/aEY6zaNEit3nz5u4+++yz0z6qVq3qTps2zTVCK9/nnNjXmjVrXCMqrhFWOXfuBffWiE2kexEVFRYlbZYuXeq2aNHCrVy5sjtz5kxv687wveOOO26HDlK4cGG3fv360snCQCeZNGmSdPrg/kqVKuWaUTrXDpuMlStXug0aNJBOiWjVrFnTnTt3rmusMu8bqbF9+3YRWWNV7HB+7PO8884T0UvGX3/95Y4cOdItV65czu85r7p164ro5HZOXPv8+fPdxo0by/e5xxyTbWGvIyrqCilpQ2zFXyrh4IMP9rbuDG4SLkKQokWLykplRxxxhLclNUyHEXco6JKYkd1p3bq1c9FFFzmmM3lbU8P0Befzzz93evTo4RghEffCCJ64GmeddVboVfDIipnO7JjOLeflw35SnfnNOeFm8idwzSeeeKJz1113OUagcz0nrv2UU04RlxF3EGbNmuXceuutznvvvSeLcWUaFRYlLWj0BDhZLiGZsNDBKlWq5P3rf9AJ+I1xD7wtqUMcJNjpatSo4Vx99dWhl2tgH999951z7733Om+//bZsO/vss2UVvGOPPVb+HQVS7w0bNnT2228/b8v/jvX777+n1LkR648//tjZtGmTXB/C3Lt3b+fkk09OGOMBRIdzJ1OE0DJva968ec6oUaOcZcuWiWBlEhUWJS2MuS4TD0k1IywEFBNBUDUIHQZRCWsRGFdI3gbgd1A6b9euXcUaCAsdd8SIERJI5XqqVq3qDBgwQCyidODasMawMvy6Hl/E/vjjD/l3bvD/b775pojBli1b5L5iTZGdSnVVPo7P/ejWrZtYityzF1980Xnqqaek5sgX5UygwqKkBZ3ym2++kYwJopFsRvNBBx3k/S09cL9ef/31nFeMkL0hixJWoLB6qE+ZMGGCs3nzZhGoLl26OCeddJL3jfTgnuBS+a4ZnRmLgVRwbiCWH374oTNx4kR5jQpVzB07dhS3JuxSFAga2bZWrVpJRTTXiIAiWlRJZwoVFiUtEBbmCOHOJLNWgA4WdA2iwMhLx/PjBaS36XhhC/Po5LyihLQyQgW4QBdeeGHoGE1usJ9TTz01Z7Y3x8S6IyXMdcTCNizAadOmyTXiPrZs2VJqaLjHWCFhQZiwWDgPrMOVK1fKNfNnplwiFRYlLZh0iFnNyHzooYd6W3OHRk6swIeORt1KvE6WG9RlYNJzbEbktm3bOnXq1PH+N3VwN1599VXpwJwDnb9FixayloxNqlWr5tSrVy9HFLCyOCYuTixc04wZM8SqoGYHawcLilephLXGguCm4kb5954ivzfeeMP59ddf5d+2UWFRIsNoR9B2zZo1zn/+85+d4ifxoHMFOwgWB+XyvkuTDL4/f/586RR+PARhCWsF+dYK7hRWF9StW1c+yQKjYfHfKOhbQVwDBXC4kEEQGjJSkyZNkoA4QdrOnTuLK5OuBYXlg3tHNgmrBQFDVDmHTFgtGREWHhqjAUEqotqvvfaa88ILLzjjxo2TSsBUP9OnT5eKTmX3hOwGla08a4QllaUSCDySYo4KbhfzYRAzxAQXgQrWsGChIFBLliyRv9PxEBViQFHcjUQgpKeddppYDUBH5r7RN/xOjbBS3Ut6m6B0lSpV5No4J1uvUDn88MPFHfJdViqEFy5cKJaRdYwIWMM0MKnwmzBhglT/devWzW3SpIkURZUvX14qDjlkqh9+N2vWLG/vyu7G6tWrpYLUdJi4FbfxMCOl27Bhw5xnXLJkSXfgwIFSDJYMvjN+/HjXuAVS+NWoUSMprDNulPeN1KE6tl27dq4ROTkPivsohKPiNRNs3rzZ7dixY851c1yqe421JMV0y5cvz6leNiLtDh482F2/fr33azsYEXNnz54tRX/+eXTo0EGeY5R7mAgrFgumHdHrxx57TIpwbrrpJknXjR49WiLun3zyiQSkGBmUvAMuDBYlwdNU4xJYA8HMkWmD4tKkEmNhlH/uuefE/cKyuPTSS8UKCGthcCwW/SY7g7UFzGViZnamlnsga0Zg2L92+sKiRYvkmgjmEqzl2rgWCuuaN2+eUjA8DFhOZIa4Z/55cA70XfqwTdJ+xSo3CJPuySefFHeHQF4smMgExniI3ETMP4qYiOInCkixEtl1113nNGjQwNuSOYjSv/zyyzLlPNvQmKk3IBuxJ72LhzgHtRXUe1DlSbwjGbhPzMCllgJwZy6//HKpJqXz5Qbm+uOPPy6zdnGxcRNuv/12qdgNKyzsi0GQV8D6ad+bb75ZJvFlcq1exIxiNfoLII4cl4A2xXm4dxTU3XDDDU6tWrWsZaaCEPjmuhn0ibPgZt19990SyylWrJj3LQsgLFFhTsKCBQtcM3KIScvu+BQqVMitVKmSe8UVV7jmhrmmEbkzZsxwx44dK/MczA1zTYNwzU11jUrL/JJ4H0xTI1Te0TLL9OnTxRz2ryGbH1zEZs2aiUm6p8Czxy3BdL/mmmvcLVu2eP+TGNzlLl265Fw7c32M0IirkIjFixeLW8294jnhIptBzfvfcDBPh2MaUZNzoO2OGzfONaLnfSMz4MoxmTH43GvUqCEuv+ngbr169aTdc48yBfdszJgxEprwz+PKK690zYDvfcMOkV0hzEncG6a54+5gFgNWyMUXX+wYv1ncomuvvVai9kzh5k/+jSmGcvpFOqg0BU6xH+ZopJLCVFIHCxMXAAuTrEC8lGcq8DueP9YWVkOqWRkyLmEzOBR1vfLKKzLSmzYrhXA1a9aMPKJjlZIN8d0g6kPIaGXCQghCNoZ6Er/IjWfBOipYy6SBscJIS9sK1saDaySIG7QOsaToj6m4o6kSWVgQBGoJnn322ZxcOL421YF9+vRxmjZtKv4cN9M3VblhiAi+MT4dBU6sG4FZzE1WMgedE9cFsxf3khgYGYhEFaCJ4JnTOXFzw9R9xBMWGjSCEQ+2E6NDWChiY90RBh2OG9YF8mE/pJj9juS76unUiaQK5f2IYhDuHwV+XBduUSbhnjH4B90eYla2V52LFGMhRoLSGrMuZ9IWAsICOCyKk2ySFCk+Y36JsAAT04YPHy7FQFEbS7oQ+yGIRQwg29CgmbBGnCU4EzZdeE7EI7AMSfmTzqQ+gmMg7NzrkSNHigUQFjo7AsWAgFhRp5EqiBrxEeBcOP7QoUPjWqeIwAMPPCCWMedLYuCyyy5LKbUdD66bICnnQFoXmIF8//33y/3PtLgQqB40aJAMqD6kyx9++OEdiugyyfLlyyXORbsA0v9PP/20CJs1qw1hCQu+6IMPPih+Ibvgw5oRI0aMcI0l430rd/DzSDEaM1p+S8yldevWrlFO7xtKOhD/MNaJ26tXL9eMkLLojxkJZXGg3r17u0ZkXOOSSsrTWJeysFFYTKN0jUktizeRug3DqFGjctqNERZZy4UFimIxIuDOmTPHrVOnjqxjwrGMOyTbo0L8gnZKitw/B9LO8Y6fCYyl5/bo0SPn2HzoO6TrM5XqjsUMNpJm9lPtfB566KGcRaNsEEme8a8prgkW1uBnU3yD+iWDVBfWDa4SMIq89dZbsoShOSfZpkQHEx/ri8g/1aVka+644w4pOGTEx88nfoVfz+zZsO4Qoy5pUuJq7AOfPQypxhCwrmbPni3rpNC+yJpxvHRSwhSi4cYFXW+s60ylmYNgQWIZMLkwCPENSvz5MxtwrTyD4DXzTG32vdDCQqPFH2MCkw8pUnzHMKk/5j5gegIXRCPFNIsaTFT+D8JNzQTxrvHjx0tDZr4J1Zy4EHQkBgFMcBo0bg0NK1VwFwnc4qfzzBO5vVFBACh7Jy5E2zj99NNlPlDYwG8s7Jfz508fYoOZDtzSxolJktSIFRDaPBWwwT6VSXheGABBYWHtF4TPFqGFhRtEPIIT8eFhU1wU5qETlfaFBRhBiPoH96tEA3En82bcVQmi03FoSEHRp4aCuSMELbFawtx3OgKdgOxGKvODYgn+hmULiAPFTuFnG9lGMlgUrzE5kGkD6cYgaL+xIzOikunYCiJJ/JEpCQg8i0j5cSkGa+4/MR/uR6YhrkVfDQ4INkUFIgkLihucQMWDiT3RZDCqBtfm4MKo4tS5QXago2BR5PZM6KBYAQTOsRTJDKQKrgQuFtYPnT0sQeuAToVQBRs2gwwjOK4x/0+BJAVjNgPb2YR0Liu5IZJY9wSOsSaD2SG8AKpgs1WgyfNPV6QTEUlYiK0EVZ+MEI0srDkZ2yhpREETVcksrIvK6Em1NDEuvxYpETx3vofFQtoSlzYKiRo1MR+WDiC2QuejxD3Rkpe7M1j3ZID8DMyNN94o1hcDMavL+WvIYLGRaSU2lheIJCz+NHPbYAZiKu4KODa1Hlxbtj9YgDQshDXbkOInIEo6mmBpMhhUeEczIEpR5rPQmXBv4sF9wFJhvRBS8KwhwlT/TAZXadPBgdIWtCdS5QTN2T/l/J06dRIrkg9BdZZE8MFqJBwQTIpkAv96M3HNPqGFhZGGBx6LjZOk8QQLd7IJgTXMba4t2x8KpHgRFnGFbEPtBHOy6MwIRjKLkWpV3CBiZFHcIIg1w31LlT8ZsZlzhtWCtYIbxD2yReyxAWEnM2kTAsQEzqm/ITBOJo7MHPEuwFVFlBEWP76DdUMwnT8zCedGfVAwnmM7xhRJWDDj/NmRwAniJ4d9OLGNGBW32YiU5CBquEQ80zlz5iR1h2iUxAqoEI0qLLjMwfZDO2BCHLEbXDKsFfbNDF8yV7FCkA4cm8Er6LbT8W0GL9kfAxVFn4gWlsltt90mAh6E8+De+7FGfkfxGm5mJq1XjACuN2gM0O9sikvoPXFwbkTwJtEwaBRhHg4XFQwA03gYBW1PFVeS06hRI0kbIyyY44msTwYQGj9BSL8OKSyIEr8PQtvBWqF0n85IxopFjhA8myAoHJ+4oA8Doy1hYV9Yf1TSkpIn68bbAxCQWIFEXHEngwtVcf/JDvnzmDIBAkaQOFjLwz3ZpcLCzSGQFmxUjGJkc8LcDC4u6NNzk3kvjB/MyjaYqNR2EHPI9odiNa59V2U9cAFp4HQEOkVuPj6djxiYv8YtJQZRoAHHxkywlFgmkmwQyzBQ5h81MJwIhCV2rgzWko0YFxY7AVhSyUyf4BjUD/EStaCQ+fiDNDEkP3uHi+JPvcgUPF9ie74rRCkCRY5W41hmdAoNZcnGX5RybHZhHpbbtGlTeYVmqhghkiUU+D0fpt8PHTo08lR4JT3Gjx8vS1nwKs7cSvxN55PSb5YZ4N3EUTEWiduqVaucZ28GKll6oXbt2jL1gJUHw04TSBUjHjJNwFgQOcc31pG8ftRY3t63wmNEV1aBY0U97o8RErdt27byylb+LzeYYsB7qJl2ETwfloVI53wSYdxNOYZ/vGrVqrlmQElrqkQskWwfyoEJRjHKAa4QfiEVnMGAUG4wMhCkwlcHlJtRioKhoO+tZA8sJ4rqWAeWZxnPNcDKxExnJI7qBgFWQ3DaPhYD7/VhpGZFe6yVsNMEUsW3uIMxBawEPlHdIdOPxIUhWEvgGeuLrBcBeVzMRC4G7Z17GbyfhAi4F4QXbEPfww0Kehf+/bAZy4okLJhtNADmbvgrbnFjMWWJ5nOjE4EpzZwJzDHgotq3b5/SCmRKZmBmMXUVmPN0jqD/7eMLC3GPdISFjhYbvKUtsF+mIqTyCtF0oL0RHPbnLOHe0W45jyggjKSUJ0+eLBW0XAcVz8SJ4rlAQbgX9KFgbNEvlqOfJOtLYWHg53px/XxwOYl5JRLAsETeEzeDQh+Kl7iRqCu1EFOnTpW0abwbwjZiMSwxSKAQ9eSCWJ+Ffe2plZV5BRboItY0c+ZM8fGDz5C/U5dBSpqOmU78ww+gBmEb7xpu0qSJ7D+TcGysbX/pBTob8aV4YpoMgtkEnLFW/MmciDTiGLTKcgMrgWuPtdQRcKx620FcBIUJpL41hLhiXdkOkkcWFgI9zPXp3r27iAKNAUFBNCgKwnpBcQnschGUNfMSJtY25cXUbCNwRXCLdV0wGZVdC4so0bl5Vu+8884OwUwsGRokHSnKjOYgjIx0piAIGqM8QWybJnk8/M7k15QAtTlko8JYCLRhRIVX1SAEvivFAMkxUrEAsJKwIGILQxEpBl8EL/gc0gWLimv1LRYsT7JStkMQe93ur7gTAcQFcWC+CZFlTEIaHzeZ6DhLK7AQFDefUZCVyHkhEyMEMRpeVk0lYtR6CMUudGieDeXnuD0MGH6mgNEcF4nJdFgVxGSiQuclhkDHATohmTHaQ5RJjWHhOun0LAmJiCKaXB9zp4gzJcuO+CI7ZcoUKYDDbQlaO/w/FgDCxYAbz63jHiBkLHZGWID6He65DyJFf8JiYbIn+0m387PPBQsWyADvCxnPkfc6Y71ZFXRzgWljbqQsUEwk2+iULAxNpNncXOQ/Z/Fsov6dO3eWzAKLcBMRV3YvyAjx7MqWLSsLWPuQyWExLrIXxuz3tkbDjMDu6NGjpW2YxuwaC8g1nSurGUHa3vDhw+UdPpyH6fzugAEDJOOZjI0bN7pDhgyR3xoRkt/Hfsh09evXT74bDyMirungbq1atSQjGm8ffEqVKuX27NlTsqjpwjNkgTXOzd83fdG4uN437JH26z+CYLLhhxPIpSyZgBxKjmLjbxKXodKTKHSyoJay68A1ZZEoFoXq37+/bON5EljlebJWbpR3JfvQ5CiGw/phlCTORqAz6JpkGs6BGEbfvn3FWsAlYfSmWhYXP9HojRXBBElcikTgMlKyHy92iFXDPeAckkG9EO5KunEQsrY4KCxHgWXK8+S1LbjAyay00CAsihJkyZIlrjGNxXJhNMPC4A2XxYoVk1dUbNiwwfvmng3WyaBBg1zjzssITg3No48+midrqahB4vU7FStWlGs1rpW8mse4W9437GIvv6TkGciYMNISfyAmhm9O3AyLlHian03Z08ECYDoDla/ELwjG8taJXTEZNNNQG0PW1l/viCkGxLX8V5HYRoVF2QnMYoLqQIASYSHYivvKHDGb9Q67Etwd6rHatGmTU0eCW0RwM2pNy+6IP12C4kdcWTJBLVu2lEHCugvkocKixIWZxWRrZs2aJdkT1gnxhSUvwTXx2gtWdKO+hfKIYcOG5byaZk8HgWS2OAME5R9YKGSBWMw+lTqbqKiwKHGhbL9Dhw5S78B7eHyLhakXeQ1cOyw00s24RLgL1FslC87u7mBpUvZBSpzJnVgnCAoFqdQhWU0vx+LFWhRlJ4xfLoG+KlWqSMlAw4YNs/bum2xjOqEErRs0aCApZD78naD1ngjXY0TFNZaYpNJ5jvXr13fnzZuXlWeowqIkpGbNmlJrYtwimYGclyH7tWzZMteM6nLNBQsWlFnAc+fOTThDeXdj69atMlu7cePGch3+oMCs5mwNDCosSkImT56ck4qloCw/QJEghZx0SDom107hJ29LpGMiQLsbnBPntnbtWnlLafny5eXcWcKhY8eOYnll87xVWJSEMFKz7g51D6xjkl+glmXKlClisRUtWlREpkKFClKdm2yNlWyDYCAoVAPXqFEjx8KsXr26O3LkSHfTpk3eN7OH1cpbJe9B8+jZs6fME6KmJb/N62KW96RJk+RtktSCMGeHV3iw1koml3YIgxEWqVEh2G4ET2ZX80YAgrTMQjdC430ze6iwKElhqQTK+8kO5UfoIkxVIQVNoSCl/7xSeHeB82MaDdkfZqezYBoCuCsExUeFRUkKa6QOGjRIXrylKKmgdSxKUgoXLpzWMglK/kMtFkVRrKMWi6Io1lFhURTFOiosiqJYR4VFURTrqLAoimIdFRZFUayjwqIoinVUWBRFsY4Ki6Io1lFhURTFMo7zX9Yfe/ExTPaaAAAAAElFTkSuQmCC;" vertex="1" parent="1">
          <mxGeometry x="517" y="580" width="93" height="32.11" as="geometry" />
        </mxCell>
        <mxCell id="vPh5yiBVEbnupIEMpU4R-142" value="" style="endArrow=none;html=1;rounded=0;" edge="1" parent="1">
          <mxGeometry width="50" height="50" relative="1" as="geometry">
            <mxPoint x="300" y="530" as="sourcePoint" />
            <mxPoint x="710" y="530" as="targetPoint" />
          </mxGeometry>
        </mxCell>
        <mxCell id="vPh5yiBVEbnupIEMpU4R-143" value="" style="endArrow=none;html=1;rounded=0;" edge="1" parent="1">
          <mxGeometry width="50" height="50" relative="1" as="geometry">
            <mxPoint x="302" y="580" as="sourcePoint" />
            <mxPoint x="712" y="580" as="targetPoint" />
            <Array as="points">
              <mxPoint x="512" y="580" />
            </Array>
          </mxGeometry>
        </mxCell>
        <mxCell id="vPh5yiBVEbnupIEMpU4R-144" value="" style="endArrow=none;html=1;rounded=0;" edge="1" parent="1">
          <mxGeometry width="50" height="50" relative="1" as="geometry">
            <mxPoint x="450" y="450" as="sourcePoint" />
            <mxPoint x="450" y="610" as="targetPoint" />
            <Array as="points">
              <mxPoint x="450" y="540" />
            </Array>
          </mxGeometry>
        </mxCell>
        <mxCell id="vPh5yiBVEbnupIEMpU4R-145" value="" style="endArrow=none;html=1;rounded=0;" edge="1" parent="1">
          <mxGeometry width="50" height="50" relative="1" as="geometry">
            <mxPoint x="560" y="450" as="sourcePoint" />
            <mxPoint x="560" y="530" as="targetPoint" />
            <Array as="points" />
          </mxGeometry>
        </mxCell>
        <mxCell id="vPh5yiBVEbnupIEMpU4R-146" value="" style="endArrow=none;html=1;rounded=0;" edge="1" parent="1">
          <mxGeometry width="50" height="50" relative="1" as="geometry">
            <mxPoint x="302" y="480" as="sourcePoint" />
            <mxPoint x="712" y="480" as="targetPoint" />
          </mxGeometry>
        </mxCell>
      </root>
    </mxGraphModel>
  </diagram>
</mxfile>
